<svg width="22" height="21" viewBox="0 0 22 21" fill="none" xmlns="http://www.w3.org/2000/svg">
<path d="M10.0794 16.2155C10.1838 16.3156 10.3079 16.395 10.4444 16.4492C10.5809 16.5034 10.7272 16.5312 10.8749 16.5312C11.0226 16.5312 11.1689 16.5034 11.3054 16.4492C11.4419 16.395 11.5659 16.3156 11.6704 16.2155L15.913 12.1496C16.124 11.9474 16.2425 11.6732 16.2425 11.3873C16.2425 11.1013 16.124 10.8271 15.913 10.6249C15.702 10.4227 15.4159 10.3092 15.1175 10.3092C14.8192 10.3092 14.533 10.4227 14.322 10.6249L11.9999 12.8503V1.07813C11.9999 0.792189 11.8814 0.517963 11.6704 0.315776C11.4594 0.113588 11.1733 0 10.8749 0C10.5765 0 10.2904 0.113588 10.0794 0.315776C9.86842 0.517963 9.74989 0.792189 9.74989 1.07813V12.8503L7.42775 10.6249C7.21677 10.4227 6.93062 10.3092 6.63226 10.3092C6.33389 10.3092 6.04774 10.4227 5.83677 10.6249C5.62579 10.8271 5.50726 11.1013 5.50726 11.3873C5.50726 11.6732 5.62579 11.9474 5.83677 12.1496L10.0794 16.2155Z" fill="white"/>
<path d="M20.625 9.34375C20.3266 9.34375 20.0405 9.45734 19.8295 9.65953C19.6185 9.86171 19.5 10.1359 19.5 10.4219V18.6875H2.25V10.4219C2.25 10.1359 2.13147 9.86171 1.9205 9.65953C1.70952 9.45734 1.42337 9.34375 1.125 9.34375C0.826631 9.34375 0.540483 9.45734 0.329505 9.65953C0.118526 9.86171 0 10.1359 0 10.4219V19.0469C0 19.5234 0.197544 19.9805 0.549175 20.3175C0.900805 20.6544 1.37772 20.8438 1.875 20.8438H19.875C20.3723 20.8438 20.8492 20.6544 21.2008 20.3175C21.5525 19.9805 21.75 19.5234 21.75 19.0469V10.4219C21.75 10.1359 21.6315 9.86171 21.4205 9.65953C21.2095 9.45734 20.9234 9.34375 20.625 9.34375Z" fill="white"/>
</svg>
