<svg xmlns="http://www.w3.org/2000/svg" width="23" height="24" fill="none" viewBox="0 0 23 24">
    <path fill="#04565A" d="M11.072 2c3.055 0 5.537 2.66 5.537 5.95 0 4.46-5.537 11.05-5.537 11.05S5.537 12.41 5.537 7.95C5.536 4.66 8.018 2 11.073 2zm0 4c-.489 0-.958.21-1.304.586-.347.375-.54.884-.54 1.414 0 .53.193 1.04.54 1.414.346.375.815.586 1.304.586.49 0 .96-.21 1.305-.586.346-.375.54-.884.54-1.414 0-.53-.194-1.04-.54-1.414C12.031 6.21 11.562 6 11.072 6zm7.382 13c0 2.21-3.303 4-7.382 4-4.078 0-7.381-1.79-7.381-4 0-1.29 1.126-2.44 2.87-3.17l.59.91c-.997.45-1.615 1.07-1.615 1.76 0 1.38 2.482 2.5 5.537 2.5 3.054 0 5.536-1.12 5.536-2.5 0-.69-.619-1.31-1.615-1.76l.59-.91c1.744.73 2.87 1.88 2.87 3.17z"/>
</svg>
