<svg width="24" height="24" viewBox="0 0 24 24" fill="#444444" xmlns="http://www.w3.org/2000/svg">
<path d="M11.625 3.00037C6.86203 3.00037 3 6.8624 3 11.6254C3 16.3883 6.86203 20.2504 11.625 20.2504C16.388 20.2504 20.25 16.3883 20.25 11.6254C20.25 6.8624 16.388 3.00037 11.625 3.00037Z" stroke="#444444" stroke-width="1.5" stroke-miterlimit="10"/>
<path d="M10.3125 10.311H11.8125V15.7485" stroke="#cccccc" stroke-width="1.5" stroke-linecap="round" stroke-linejoin="round"/>
<path d="M9.75012 15.936H13.8751" stroke="#cccccc" stroke-width="1.5" stroke-miterlimit="10" stroke-linecap="round"/>
<path d="M11.6251 6.09229C11.384 6.09229 11.1484 6.16376 10.948 6.29768C10.7475 6.4316 10.5913 6.62194 10.4991 6.84464C10.4068 7.06734 10.3827 7.31239 10.4297 7.5488C10.4768 7.78522 10.5928 8.00238 10.7633 8.17282C10.9337 8.34327 11.1509 8.45934 11.3873 8.50637C11.6237 8.55339 11.8688 8.52926 12.0915 8.43701C12.3142 8.34477 12.5045 8.18856 12.6384 7.98814C12.7723 7.78771 12.8438 7.55208 12.8438 7.31104C12.8438 6.9878 12.7154 6.67781 12.4868 6.44925C12.2583 6.22069 11.9483 6.09229 11.6251 6.09229Z" fill="#cccccc"/>
</svg>
