<svg width="200" height="200" viewBox="0 0 200 200" fill="none" xmlns="http://www.w3.org/2000/svg">
<path d="M103.548 177.972C103.338 177.972 103.13 177.931 102.935 177.851C102.741 177.77 102.565 177.653 102.416 177.504L100.016 175.104L97.6159 177.504C97.4689 177.659 97.2925 177.783 97.0968 177.869C96.9012 177.954 96.6904 178 96.4769 178.003C96.2633 178.006 96.0514 177.966 95.8535 177.886C95.6556 177.805 95.4758 177.686 95.3246 177.535C95.1735 177.384 95.0541 177.205 94.9734 177.007C94.8928 176.809 94.8526 176.597 94.8551 176.384C94.8576 176.17 94.9029 175.959 94.9882 175.764C95.0736 175.568 95.1972 175.391 95.3519 175.244L98.8999 171.696C99.0485 171.547 99.225 171.429 99.4192 171.349C99.6134 171.268 99.8216 171.227 100.032 171.227C100.242 171.227 100.45 171.268 100.645 171.349C100.839 171.429 101.015 171.547 101.164 171.696L104.712 175.244C104.935 175.468 105.086 175.753 105.147 176.063C105.208 176.373 105.176 176.694 105.055 176.985C104.934 177.277 104.729 177.526 104.467 177.702C104.204 177.877 103.896 177.971 103.58 177.972H103.548Z" fill="#A2ACB5"/>
<path d="M70.4319 171.788C71.6999 171.76 72.9719 171.764 74.2439 171.756C85.3599 171.672 136.644 168.956 170.016 127.22C207.6 80.192 189.5 38.192 129.2 44.904C129.2 44.904 103.856 48.192 78.4839 34.248C53.1119 20.304 29.9999 33.332 20.6439 44.304C11.2879 55.276 3.27194 74.8 20.6439 95.2C37.2439 114.676 28.1679 111.92 28.9279 140.828C29.0604 147.486 31.4367 153.905 35.6719 159.044C41.2839 165.724 51.5999 172.22 70.4319 171.788Z" fill="#F8FBFF"/>
<path d="M137.3 71.872V124.272C137.3 125.863 136.668 127.389 135.543 128.515C134.418 129.64 132.892 130.272 131.3 130.272H90.5562C90.3733 130.273 90.1959 130.335 90.0522 130.448L66.8722 149.128V131.072C66.8722 130.86 66.7879 130.656 66.6379 130.506C66.4879 130.356 66.2844 130.272 66.0722 130.272H53.7002C52.1089 130.272 50.5828 129.64 49.4576 128.515C48.3323 127.389 47.7002 125.863 47.7002 124.272V71.872C47.7002 70.2807 48.3323 68.7546 49.4576 67.6294C50.5828 66.5042 52.1089 65.872 53.7002 65.872H131.3C132.892 65.872 134.418 66.5042 135.543 67.6294C136.668 68.7546 137.3 70.2807 137.3 71.872Z" fill="#F4F6F8"/>
<path d="M66.8722 151.128C66.3418 151.128 65.8331 150.917 65.458 150.542C65.0829 150.167 64.8722 149.658 64.8722 149.128V132.272H53.7002C52.6496 132.272 51.6093 132.065 50.6387 131.663C49.6681 131.261 48.7862 130.672 48.0433 129.929C47.3005 129.186 46.7112 128.304 46.3092 127.333C45.9071 126.363 45.7002 125.323 45.7002 124.272V71.872C45.7002 69.7503 46.5431 67.7154 48.0433 66.2152C49.5436 64.7149 51.5785 63.872 53.7002 63.872H131.3C133.422 63.872 135.457 64.7149 136.957 66.2152C138.457 67.7154 139.3 69.7503 139.3 71.872V124.272C139.3 125.323 139.093 126.363 138.691 127.333C138.289 128.304 137.7 129.186 136.957 129.929C136.214 130.672 135.332 131.261 134.362 131.663C133.391 132.065 132.351 132.272 131.3 132.272H90.9762L68.1282 150.672C67.7742 150.963 67.3308 151.124 66.8722 151.128ZM53.7002 67.872C52.6393 67.872 51.6219 68.2934 50.8718 69.0436C50.1216 69.7937 49.7002 70.8111 49.7002 71.872V124.272C49.7002 124.797 49.8037 125.317 50.0047 125.803C50.2057 126.288 50.5003 126.729 50.8718 127.1C51.2432 127.472 51.6842 127.767 52.1695 127.968C52.6548 128.169 53.1749 128.272 53.7002 128.272H66.0722C66.8148 128.272 67.527 128.567 68.0521 129.092C68.5772 129.617 68.8722 130.329 68.8722 131.072V144.948L88.8002 128.892C89.2987 128.49 89.9199 128.271 90.5602 128.272H131.3C131.825 128.272 132.346 128.169 132.831 127.968C133.316 127.767 133.757 127.472 134.129 127.1C134.5 126.729 134.795 126.288 134.996 125.803C135.197 125.317 135.3 124.797 135.3 124.272V71.872C135.3 70.8111 134.879 69.7937 134.129 69.0436C133.378 68.2934 132.361 67.872 131.3 67.872H53.7002Z" fill="#A2ACB5"/>
<path d="M135.3 71.872V124.272C135.3 124.797 135.197 125.317 134.996 125.803C134.795 126.288 134.5 126.729 134.129 127.1C133.757 127.472 133.316 127.766 132.831 127.968C132.346 128.169 131.825 128.272 131.3 128.272H90.5561C89.9158 128.271 89.2946 128.49 88.7961 128.892L68.8721 144.948V132.548C111.648 116.24 123.272 77.16 124.84 67.888H131.3C132.358 67.888 133.373 68.3072 134.123 69.0539C134.873 69.8006 135.296 70.8139 135.3 71.872Z" fill="#E1E4E6"/>
<path d="M135.3 82.872C143.584 82.872 150.3 76.1563 150.3 67.872C150.3 59.5877 143.584 52.872 135.3 52.872C127.016 52.872 120.3 59.5877 120.3 67.872C120.3 76.1563 127.016 82.872 135.3 82.872Z" fill="#EF5B5B"/>
<path d="M117.9 93.672H66.2998C65.7694 93.672 65.2607 93.4613 64.8856 93.0862C64.5105 92.7111 64.2998 92.2024 64.2998 91.672C64.2998 91.1416 64.5105 90.6329 64.8856 90.2578C65.2607 89.8827 65.7694 89.672 66.2998 89.672H117.9C118.43 89.672 118.939 89.8827 119.314 90.2578C119.689 90.6329 119.9 91.1416 119.9 91.672C119.9 92.2024 119.689 92.7111 119.314 93.0862C118.939 93.4613 118.43 93.672 117.9 93.672Z" fill="#A2ACB5"/>
<path d="M92.5 106.672H66.5C65.9696 106.672 65.4609 106.461 65.0858 106.086C64.7107 105.711 64.5 105.202 64.5 104.672C64.5 104.142 64.7107 103.633 65.0858 103.258C65.4609 102.883 65.9696 102.672 66.5 102.672H92.5C93.0304 102.672 93.5391 102.883 93.9142 103.258C94.2893 103.633 94.5 104.142 94.5 104.672C94.5 105.202 94.2893 105.711 93.9142 106.086C93.5391 106.461 93.0304 106.672 92.5 106.672Z" fill="#A2ACB5"/>
<path d="M115.432 162.48C115.827 162.48 116.214 162.597 116.543 162.817C116.872 163.037 117.128 163.349 117.28 163.715C117.431 164.08 117.471 164.482 117.393 164.87C117.316 165.258 117.126 165.615 116.846 165.894C116.566 166.174 116.21 166.364 115.822 166.442C115.434 166.519 115.032 166.479 114.667 166.328C114.301 166.176 113.989 165.92 113.769 165.591C113.549 165.262 113.432 164.876 113.432 164.48C113.432 163.95 113.643 163.441 114.018 163.066C114.393 162.691 114.901 162.48 115.432 162.48ZM115.432 159.28C114.403 159.28 113.398 159.585 112.543 160.156C111.688 160.728 111.021 161.54 110.628 162.49C110.234 163.44 110.131 164.486 110.332 165.494C110.532 166.503 111.028 167.43 111.755 168.157C112.482 168.884 113.409 169.379 114.417 169.58C115.426 169.781 116.472 169.678 117.422 169.284C118.372 168.891 119.184 168.224 119.756 167.369C120.327 166.514 120.632 165.508 120.632 164.48C120.632 163.101 120.084 161.778 119.109 160.803C118.134 159.828 116.811 159.28 115.432 159.28Z" fill="#A2ACB5"/>
<path d="M172.892 90.628C173.287 90.628 173.674 90.7453 174.003 90.965C174.332 91.1848 174.588 91.4972 174.74 91.8626C174.891 92.2281 174.931 92.6302 174.853 93.0182C174.776 93.4061 174.586 93.7625 174.306 94.0422C174.026 94.3219 173.67 94.5124 173.282 94.5895C172.894 94.6667 172.492 94.6271 172.127 94.4757C171.761 94.3244 171.449 94.068 171.229 93.7391C171.009 93.4102 170.892 93.0235 170.892 92.628C170.892 92.0975 171.103 91.5888 171.478 91.2138C171.853 90.8387 172.361 90.628 172.892 90.628ZM172.892 87.428C171.863 87.428 170.858 87.733 170.003 88.3043C169.148 88.8757 168.481 89.6878 168.088 90.638C167.694 91.5882 167.591 92.6337 167.792 93.6424C167.992 94.6511 168.488 95.5777 169.215 96.3049C169.942 97.0322 170.869 97.5274 171.877 97.7281C172.886 97.9287 173.932 97.8257 174.882 97.4321C175.832 97.0386 176.644 96.3721 177.216 95.5169C177.787 94.6618 178.092 93.6564 178.092 92.628C178.092 91.2489 177.544 89.9262 176.569 88.951C175.594 87.9758 174.271 87.428 172.892 87.428Z" fill="#A2ACB5"/>
<path d="M18.6839 48.244C19.0794 48.244 19.4661 48.3613 19.795 48.5811C20.1239 48.8008 20.3803 49.1132 20.5316 49.4786C20.683 49.8441 20.7226 50.2462 20.6455 50.6342C20.5683 51.0222 20.3778 51.3785 20.0981 51.6582C19.8184 51.9379 19.462 52.1284 19.0741 52.2056C18.6861 52.2828 18.284 52.2431 17.9185 52.0918C17.5531 51.9404 17.2407 51.684 17.0209 51.3551C16.8012 51.0263 16.6839 50.6396 16.6839 50.244C16.6839 49.7136 16.8946 49.2049 17.2697 48.8298C17.6447 48.4547 18.1535 48.244 18.6839 48.244ZM18.6839 45.044C17.6554 45.044 16.6501 45.349 15.7949 45.9204C14.9398 46.4917 14.2733 47.3039 13.8797 48.2541C13.4861 49.2042 13.3832 50.2498 13.5838 51.2585C13.7844 52.2672 14.2797 53.1937 15.0069 53.921C15.7342 54.6482 16.6607 55.1435 17.6694 55.3441C18.6781 55.5447 19.7237 55.4418 20.6738 55.0482C21.624 54.6546 22.4361 53.9881 23.0075 53.133C23.5789 52.2778 23.8839 51.2725 23.8839 50.244C23.8839 48.8649 23.336 47.5422 22.3608 46.5671C21.3857 45.5919 20.063 45.044 18.6839 45.044Z" fill="#A2ACB5"/>
<path d="M40.8602 43.856C40.65 43.8562 40.4419 43.8149 40.2476 43.7346C40.0534 43.6543 39.8769 43.5365 39.7282 43.388L37.3282 40.988L34.9282 43.388C34.628 43.6882 34.2208 43.8569 33.7962 43.8569C33.3716 43.8569 32.9644 43.6882 32.6642 43.388C32.364 43.0878 32.1953 42.6806 32.1953 42.256C32.1953 41.8314 32.364 41.4242 32.6642 41.124L36.2122 37.576C36.5121 37.2768 36.9185 37.1087 37.3422 37.1087C37.7659 37.1087 38.1723 37.2768 38.4722 37.576L42.0202 41.124C42.2442 41.3478 42.3968 41.633 42.4586 41.9435C42.5205 42.254 42.4888 42.5759 42.3676 42.8685C42.2464 43.161 42.0411 43.411 41.7778 43.5867C41.5144 43.7625 41.2048 43.8562 40.8882 43.856H40.8602Z" fill="#A2ACB5"/>
<path d="M131.2 62.648C132.051 61.384 133.424 60.7507 135.32 60.748C137.216 60.7453 138.589 61.3787 139.44 62.648C140.288 63.9147 140.713 65.648 140.716 67.848C140.719 70.048 140.293 71.796 139.44 73.092C138.589 74.356 137.216 74.9893 135.32 74.992C133.424 74.9947 132.051 74.3627 131.2 73.096C130.352 71.8267 129.927 70.0787 129.924 67.852C129.921 65.6253 130.347 63.8907 131.2 62.648ZM137.068 64.868C136.784 64.168 136.204 63.82 135.32 63.82C134.436 63.82 133.856 64.168 133.572 64.868C133.251 65.8288 133.109 66.8401 133.152 67.852C133.139 68.5751 133.19 69.2978 133.304 70.012C133.38 70.522 133.596 71.0009 133.928 71.396C134.313 71.7404 134.811 71.9307 135.328 71.9307C135.844 71.9307 136.343 71.7404 136.728 71.396C137.059 71.0009 137.275 70.522 137.352 70.012C137.465 69.2978 137.516 68.5751 137.504 67.852C137.535 66.8378 137.381 65.8265 137.048 64.868H137.068Z" fill="white"/>
</svg>
