<svg width="200" height="200" viewBox="0 0 200 200" fill="none" xmlns="http://www.w3.org/2000/svg">
<path d="M58.44 28.976C59.74 28.576 61.032 28.144 62.328 27.716C72.984 24.204 122.5 10.22 150.668 43.24C182.36 80.4 183.92 108.44 184.96 125.328C186 142.216 167.296 165.072 144.436 172.344C121.576 179.616 92.22 184.032 77.416 161.432C62.612 138.832 54.556 137.276 43.384 137.536C32.212 137.796 2.86 107.66 20.528 56.488C20.528 56.488 26.532 38.72 58.44 28.976Z" fill="#F8FBFF"/>
<path d="M170.4 112.192C170.19 112.192 169.982 112.151 169.787 112.071C169.593 111.99 169.417 111.873 169.268 111.724L166.868 109.324L164.468 111.724C164.164 112 163.765 112.148 163.354 112.138C162.944 112.128 162.553 111.96 162.262 111.67C161.972 111.379 161.804 110.988 161.794 110.578C161.784 110.167 161.932 109.768 162.208 109.464L165.752 105.916C165.901 105.767 166.077 105.649 166.271 105.569C166.466 105.488 166.674 105.447 166.884 105.447C167.094 105.447 167.302 105.488 167.497 105.569C167.691 105.649 167.867 105.767 168.016 105.916L171.564 109.464C171.787 109.688 171.938 109.973 171.999 110.283C172.06 110.593 172.028 110.914 171.907 111.205C171.786 111.497 171.581 111.746 171.319 111.922C171.056 112.098 170.748 112.192 170.432 112.192H170.4Z" fill="#A2ACB5"/>
<path d="M53.42 48.2439C53.8156 48.2439 54.2022 48.3612 54.5311 48.581C54.86 48.8008 55.1164 49.1131 55.2678 49.4786C55.4191 49.844 55.4587 50.2462 55.3816 50.6341C55.3044 51.0221 55.1139 51.3785 54.8342 51.6582C54.5545 51.9379 54.1981 52.1283 53.8102 52.2055C53.4222 52.2827 53.0201 52.2431 52.6546 52.0917C52.2892 51.9403 51.9768 51.684 51.7571 51.3551C51.5373 51.0262 51.42 50.6395 51.42 50.2439C51.42 49.7135 51.6307 49.2048 52.0058 48.8297C52.3809 48.4547 52.8896 48.2439 53.42 48.2439ZM53.42 45.0439C52.3915 45.0439 51.3862 45.3489 50.531 45.9203C49.6759 46.4917 49.0094 47.3038 48.6158 48.254C48.2223 49.2042 48.1193 50.2497 48.3199 51.2584C48.5206 52.2671 49.0158 53.1937 49.743 53.9209C50.4703 54.6481 51.3968 55.1434 52.4055 55.344C53.4142 55.5447 54.4598 55.4417 55.41 55.0481C56.3601 54.6545 57.1723 53.988 57.7436 53.1329C58.315 52.2778 58.62 51.2724 58.62 50.2439C58.62 48.8648 58.0721 47.5422 57.097 46.567C56.1218 45.5918 54.7991 45.0439 53.42 45.0439Z" fill="#A2ACB5"/>
<path d="M137.38 157.28C137.776 157.28 138.162 157.397 138.491 157.617C138.82 157.837 139.076 158.149 139.228 158.515C139.379 158.88 139.419 159.282 139.342 159.67C139.264 160.058 139.074 160.415 138.794 160.694C138.515 160.974 138.158 161.164 137.77 161.242C137.382 161.319 136.98 161.279 136.615 161.128C136.249 160.976 135.937 160.72 135.717 160.391C135.497 160.062 135.38 159.676 135.38 159.28C135.38 158.75 135.591 158.241 135.966 157.866C136.341 157.491 136.85 157.28 137.38 157.28ZM137.38 154.08C136.352 154.08 135.346 154.385 134.491 154.956C133.636 155.528 132.969 156.34 132.576 157.29C132.182 158.24 132.079 159.286 132.28 160.295C132.481 161.303 132.976 162.23 133.703 162.957C134.43 163.684 135.357 164.18 136.366 164.38C137.374 164.581 138.42 164.478 139.37 164.084C140.32 163.691 141.132 163.024 141.704 162.169C142.275 161.314 142.58 160.309 142.58 159.28C142.58 157.901 142.032 156.578 141.057 155.603C140.082 154.628 138.759 154.08 137.38 154.08Z" fill="#A2ACB5"/>
<path d="M40.676 61.872C41.0716 61.872 41.4582 61.9893 41.7871 62.2091C42.116 62.4288 42.3724 62.7412 42.5238 63.1066C42.6751 63.4721 42.7147 63.8742 42.6376 64.2622C42.5604 64.6501 42.3699 65.0065 42.0902 65.2862C41.8105 65.5659 41.4541 65.7564 41.0662 65.8336C40.6782 65.9107 40.2761 65.8711 39.9106 65.7198C39.5452 65.5684 39.2328 65.312 39.0131 64.9831C38.7933 64.6542 38.676 64.2676 38.676 63.872C38.676 63.3416 38.8867 62.8329 39.2618 62.4578C39.6369 62.0827 40.1456 61.872 40.676 61.872ZM40.676 58.672C39.6475 58.672 38.6422 58.977 37.787 59.5484C36.9319 60.1197 36.2654 60.9319 35.8718 61.882C35.4783 62.8322 35.3753 63.8778 35.5759 64.8865C35.7766 65.8952 36.2718 66.8217 36.999 67.549C37.7263 68.2762 38.6528 68.7714 39.6615 68.9721C40.6702 69.1727 41.7158 69.0697 42.666 68.6762C43.6161 68.2826 44.4283 67.6161 44.9996 66.761C45.571 65.9058 45.876 64.9005 45.876 63.872C45.876 62.4929 45.3281 61.1702 44.353 60.195C43.3778 59.2199 42.0551 58.672 40.676 58.672Z" fill="#A2ACB5"/>
<path d="M183.4 99.016C183.19 99.0162 182.982 98.9749 182.787 98.8946C182.593 98.8143 182.417 98.6966 182.268 98.548L179.868 96.148L177.468 98.548C177.321 98.7027 177.144 98.8264 176.948 98.9117C176.753 98.997 176.542 99.0423 176.328 99.0448C176.115 99.0474 175.903 99.0071 175.705 98.9265C175.507 98.8459 175.328 98.7265 175.177 98.5753C175.026 98.4242 174.907 98.2443 174.826 98.0465C174.746 97.8486 174.706 97.6366 174.709 97.4231C174.712 97.2095 174.758 96.9987 174.843 96.8031C174.929 96.6075 175.053 96.431 175.208 96.284L178.752 92.74C178.901 92.5913 179.077 92.4732 179.271 92.3927C179.466 92.3122 179.674 92.2708 179.884 92.2708C180.094 92.2708 180.302 92.3122 180.497 92.3927C180.691 92.4732 180.867 92.5913 181.016 92.74L184.564 96.284C184.788 96.5078 184.941 96.793 185.002 97.1035C185.064 97.4141 185.033 97.736 184.911 98.0285C184.79 98.321 184.585 98.571 184.322 98.7468C184.058 98.9226 183.749 99.0163 183.432 99.016H183.4Z" fill="#A2ACB5"/>
<path d="M118.264 72.2761C114.904 68.907 110.678 66.534 106.052 65.4201C102.128 64.4862 98.0414 64.4739 94.112 65.3841C88.4276 66.692 83.3572 69.8944 79.7336 74.4652C76.11 79.036 74.1487 84.7033 74.172 90.5361V105.108C74.172 105.436 74.228 111.06 70.908 117.868C104.384 124.22 120.564 106.312 125.828 98.6361V90.5361C125.838 87.1434 125.174 83.7825 123.876 80.6481C122.577 77.5137 120.67 74.6681 118.264 72.2761Z" fill="#F4F6F8"/>
<path d="M140.376 126.088C129.804 116.788 129.828 105.268 129.828 105.144V90.536C129.827 83.8394 127.574 77.3378 123.43 72.077C119.287 66.8162 113.494 63.102 106.984 61.532C102.599 60.4794 98.032 60.4345 93.627 61.4009C89.222 62.3672 85.0933 64.3195 81.5514 67.1111C78.0095 69.9026 75.1464 73.4608 73.1776 77.5181C71.2087 81.5754 70.1852 86.0262 70.184 90.536V105.148C70.184 105.224 70.232 110.64 66.828 117.052C64.9971 120.474 62.5572 123.534 59.628 126.08C58.6355 126.94 57.9315 128.084 57.6117 129.358C57.2918 130.632 57.3715 131.973 57.84 133.2C58.2934 134.417 59.1098 135.465 60.1787 136.203C61.2476 136.941 62.5173 137.332 63.816 137.324H85.552C86.0355 140.816 87.7662 144.015 90.4244 146.33C93.0826 148.646 96.4888 149.921 100.014 149.921C103.539 149.921 106.945 148.646 109.604 146.33C112.262 144.015 113.992 140.816 114.476 137.324H136.184C137.489 137.324 138.762 136.925 139.834 136.181C140.905 135.437 141.724 134.383 142.18 133.161C142.636 131.939 142.708 130.606 142.385 129.342C142.063 128.078 141.362 126.943 140.376 126.088ZM100 145.92C97.5382 145.915 95.1548 145.054 93.2576 143.485C91.3605 141.916 90.0675 139.737 89.6 137.32H110.4C109.931 139.736 108.638 141.915 106.741 143.483C104.844 145.052 102.461 145.913 100 145.92ZM138.4 131.788C138.236 132.246 137.933 132.641 137.532 132.916C137.131 133.192 136.654 133.335 136.168 133.324H63.816C63.3302 133.333 62.8538 133.19 62.4535 132.914C62.0533 132.639 61.7492 132.245 61.584 131.788C61.4035 131.322 61.3727 130.812 61.4961 130.328C61.6194 129.844 61.8906 129.411 62.272 129.088C65.8658 125.965 68.8016 122.158 70.908 117.888C74.228 111.088 74.18 105.456 74.172 105.128V90.536C74.1487 84.7032 76.11 79.0359 79.7336 74.4651C83.3572 69.8943 88.4277 66.6919 94.112 65.384C98.0414 64.4738 102.128 64.4861 106.052 65.42C111.687 66.7826 116.701 69.9999 120.287 74.5549C123.874 79.11 125.825 84.7384 125.828 90.536V105.096C125.828 105.896 125.848 118.636 137.732 129.096C138.111 129.418 138.38 129.851 138.5 130.334C138.619 130.817 138.585 131.326 138.4 131.788Z" fill="#A2ACB5"/>
<path d="M138.4 131.788C138.236 132.246 137.933 132.641 137.532 132.916C137.131 133.192 136.654 133.335 136.168 133.324H63.816C63.3302 133.333 62.8538 133.19 62.4535 132.914C62.0533 132.639 61.7492 132.245 61.584 131.788C61.4035 131.322 61.3727 130.812 61.4961 130.328C61.6194 129.844 61.8906 129.411 62.272 129.088C65.8659 125.965 68.8016 122.158 70.908 117.888C104.384 124.24 120.564 106.332 125.828 98.656V105.116C125.828 105.916 125.848 118.656 137.732 129.116C138.107 129.437 138.373 129.867 138.493 130.345C138.612 130.824 138.58 131.328 138.4 131.788Z" fill="#E1E4E6"/>
<path d="M106.516 56.508V63.476C102.29 62.4651 97.8877 62.4515 93.656 63.436V56.508C93.6346 55.6501 93.7851 54.7966 94.0986 53.9978C94.4121 53.199 94.8823 52.4709 95.4815 51.8566C96.0807 51.2423 96.7968 50.7541 97.5876 50.4207C98.3783 50.0874 99.2278 49.9156 100.086 49.9156C100.944 49.9156 101.794 50.0874 102.584 50.4207C103.375 50.7541 104.091 51.2423 104.69 51.8566C105.29 52.4709 105.76 53.199 106.073 53.9978C106.387 54.7966 106.537 55.6501 106.516 56.508Z" fill="#F4F6F8"/>
<path d="M106.516 65.476C106.358 65.4751 106.201 65.4563 106.048 65.42C102.126 64.4862 98.04 64.4738 94.112 65.384C93.8185 65.4527 93.5132 65.4542 93.219 65.3883C92.9248 65.3225 92.6493 65.1909 92.4132 65.0036C92.177 64.8163 91.9862 64.578 91.8551 64.3065C91.7239 64.035 91.6559 63.7374 91.656 63.436V56.508C91.6315 55.3855 91.8315 54.2694 92.2442 53.2252C92.6568 52.1811 93.2739 51.2298 94.0591 50.4273C94.8443 49.6248 95.7819 48.9872 96.8168 48.5519C97.8518 48.1166 98.9632 47.8923 100.086 47.8923C101.209 47.8923 102.32 48.1166 103.355 48.5519C104.39 48.9872 105.328 49.6248 106.113 50.4273C106.898 51.2298 107.515 52.1811 107.928 53.2252C108.34 54.2694 108.54 55.3855 108.516 56.508V63.476C108.516 64.0064 108.305 64.5151 107.93 64.8902C107.555 65.2653 107.046 65.476 106.516 65.476ZM100 60.708C101.512 60.7087 103.021 60.8224 104.516 61.048V56.508C104.515 55.3339 104.048 54.2083 103.218 53.3781C102.388 52.5479 101.262 52.081 100.088 52.08C98.9136 52.081 97.7875 52.5478 96.9567 53.3778C96.1259 54.2079 95.6581 55.3336 95.656 56.508V61.024C97.0943 60.8125 98.5462 60.7068 100 60.708Z" fill="#A2ACB5"/>
<path d="M110.428 137.324C109.953 139.733 108.657 141.903 106.76 143.462C104.863 145.022 102.484 145.875 100.028 145.875C97.5724 145.875 95.1929 145.022 93.2961 143.462C91.3993 141.903 90.1028 139.733 89.628 137.324H110.428Z" fill="#F4F6F8"/>
<path d="M124 88.0801C132.284 88.0801 139 81.3644 139 73.0801C139 64.7958 132.284 58.0801 124 58.0801C115.716 58.0801 109 64.7958 109 73.0801C109 81.3644 115.716 88.0801 124 88.0801Z" fill="#EF5B5B"/>
<path d="M122.248 81.264C122.028 81.0665 121.853 80.8238 121.735 80.5526C121.617 80.2813 121.558 79.9878 121.564 79.692C121.559 79.3921 121.617 79.0945 121.735 78.8188C121.853 78.543 122.027 78.2953 122.248 78.092C122.727 77.6511 123.361 77.4181 124.012 77.444C124.655 77.421 125.281 77.654 125.752 78.092C125.973 78.2953 126.147 78.543 126.265 78.8188C126.383 79.0945 126.441 79.3921 126.436 79.692C126.442 79.9878 126.383 80.2813 126.265 80.5526C126.147 80.8238 125.972 81.0665 125.752 81.264C125.277 81.695 124.653 81.9233 124.012 81.9C123.364 81.9262 122.731 81.698 122.248 81.264ZM126.172 64.26L125.692 75.756H122.212L121.732 64.26H126.172Z" fill="white"/>
</svg>
