<svg width="200" height="200" viewBox="0 0 200 200" fill="none" xmlns="http://www.w3.org/2000/svg">
<path d="M122.052 126.596C122.052 127.127 121.841 127.635 121.466 128.01C121.091 128.385 120.582 128.596 120.052 128.596H101.32C100.79 128.596 100.281 128.385 99.9058 128.01C99.5307 127.635 99.32 127.127 99.32 126.596C99.32 126.066 99.5307 125.557 99.9058 125.182C100.281 124.807 100.79 124.596 101.32 124.596H120.052C120.582 124.596 121.091 124.807 121.466 125.182C121.841 125.557 122.052 126.066 122.052 126.596Z" fill="#F4F6F8"/>
<path d="M122.052 115.352C122.052 115.882 121.841 116.391 121.466 116.766C121.091 117.141 120.582 117.352 120.052 117.352H91.952C91.4216 117.352 90.9129 117.141 90.5378 116.766C90.1627 116.391 89.952 115.882 89.952 115.352C89.952 114.821 90.1627 114.313 90.5378 113.938C90.9129 113.563 91.4216 113.352 91.952 113.352H120.052C120.582 113.352 121.091 113.563 121.466 113.938C121.841 114.313 122.052 114.821 122.052 115.352Z" fill="#F4F6F8"/>
<path d="M20.648 97.956C15.3792 108.319 13.733 120.148 15.972 131.556C18.8 146 27.688 163.932 54.58 161.6C98.876 157.752 87.956 138.904 134.864 136.436C181.772 133.968 186.12 91.26 184.8 77.372C182 47.46 142.736 24.292 121.656 47.936C100.576 71.58 103.72 88.956 68.112 80.98C41.364 74.988 28.116 83.304 20.648 97.956Z" fill="#F8FBFF"/>
<path d="M73.304 38.9241C73.6996 38.9241 74.0863 39.0414 74.4152 39.2612C74.7441 39.4809 75.0004 39.7933 75.1518 40.1588C75.3032 40.5242 75.3428 40.9263 75.2656 41.3143C75.1884 41.7023 74.998 42.0586 74.7182 42.3383C74.4385 42.618 74.0822 42.8085 73.6942 42.8857C73.3063 42.9629 72.9041 42.9233 72.5387 42.7719C72.1732 42.6205 71.8609 42.3642 71.6411 42.0353C71.4213 41.7064 71.304 41.3197 71.304 40.9241C71.304 40.3937 71.5148 39.885 71.8898 39.5099C72.2649 39.1348 72.7736 38.9241 73.304 38.9241ZM73.304 35.7241C72.2756 35.7241 71.2702 36.0291 70.4151 36.6005C69.5599 37.1719 68.8934 37.984 68.4999 38.9342C68.1063 39.8843 68.0033 40.9299 68.204 41.9386C68.4046 42.9473 68.8998 43.8738 69.6271 44.6011C70.3543 45.3283 71.2809 45.8236 72.2896 46.0242C73.2983 46.2248 74.3438 46.1219 75.294 45.7283C76.2442 45.3347 77.0563 44.6682 77.6277 43.8131C78.1991 42.9579 78.504 41.9526 78.504 40.9241C78.504 39.545 77.9562 38.2224 76.981 37.2472C76.0058 36.272 74.6832 35.7241 73.304 35.7241Z" fill="#A2ACB5"/>
<path d="M140.776 163.004C141.172 163.004 141.558 163.121 141.887 163.341C142.216 163.561 142.472 163.873 142.624 164.238C142.775 164.604 142.815 165.006 142.738 165.394C142.66 165.782 142.47 166.138 142.19 166.418C141.91 166.698 141.554 166.888 141.166 166.965C140.778 167.043 140.376 167.003 140.011 166.852C139.645 166.7 139.333 166.444 139.113 166.115C138.893 165.786 138.776 165.399 138.776 165.004C138.776 164.473 138.987 163.965 139.362 163.59C139.737 163.215 140.246 163.004 140.776 163.004ZM140.776 159.804C139.747 159.804 138.742 160.109 137.887 160.68C137.032 161.252 136.365 162.064 135.972 163.014C135.578 163.964 135.475 165.01 135.676 166.018C135.877 167.027 136.372 167.954 137.099 168.681C137.826 169.408 138.753 169.903 139.761 170.104C140.77 170.305 141.816 170.202 142.766 169.808C143.716 169.414 144.528 168.748 145.1 167.893C145.671 167.038 145.976 166.032 145.976 165.004C145.976 163.625 145.428 162.302 144.453 161.327C143.478 160.352 142.155 159.804 140.776 159.804Z" fill="#A2ACB5"/>
<path d="M159.72 155.528C159.51 155.528 159.302 155.487 159.107 155.407C158.913 155.326 158.737 155.208 158.588 155.06L156.188 152.66L153.788 155.06C153.488 155.36 153.081 155.529 152.656 155.529C152.231 155.529 151.824 155.36 151.524 155.06C151.224 154.76 151.055 154.353 151.055 153.928C151.055 153.503 151.224 153.096 151.524 152.796L155.072 149.248C155.221 149.099 155.397 148.981 155.591 148.901C155.786 148.82 155.994 148.779 156.204 148.779C156.414 148.779 156.622 148.82 156.817 148.901C157.011 148.981 157.187 149.099 157.336 149.248L160.88 152.796C161.104 153.019 161.256 153.304 161.318 153.614C161.38 153.925 161.349 154.246 161.228 154.539C161.107 154.831 160.903 155.081 160.64 155.257C160.377 155.433 160.068 155.527 159.752 155.528H159.72Z" fill="#A2ACB5"/>
<path d="M29.776 104.528C29.5658 104.528 29.3576 104.487 29.1634 104.407C28.9692 104.326 28.7927 104.209 28.644 104.06L26.244 101.66L23.844 104.06C23.6967 104.215 23.52 104.338 23.3243 104.424C23.1285 104.509 22.9176 104.554 22.7041 104.557C22.4905 104.559 22.2786 104.519 22.0809 104.439C21.8831 104.358 21.7035 104.239 21.5526 104.087C21.4018 103.936 21.2827 103.756 21.2024 103.559C21.1221 103.361 21.0822 103.149 21.0852 102.935C21.0881 102.722 21.1337 102.511 21.2194 102.315C21.3051 102.12 21.429 101.943 21.584 101.796L25.128 98.2521C25.2766 98.1033 25.453 97.9853 25.6473 97.9048C25.8415 97.8243 26.0497 97.7828 26.26 97.7828C26.4702 97.7828 26.6784 97.8243 26.8727 97.9048C27.0669 97.9853 27.2434 98.1033 27.392 98.2521L30.94 101.796C31.164 102.02 31.3166 102.305 31.3784 102.616C31.4403 102.926 31.4086 103.248 31.2874 103.541C31.1662 103.833 30.9609 104.083 30.6975 104.259C30.4342 104.435 30.1246 104.528 29.808 104.528H29.776Z" fill="#A2ACB5"/>
<path d="M36.976 120.724C36.7658 120.724 36.5577 120.683 36.3634 120.603C36.1692 120.522 35.9927 120.405 35.844 120.256L33.444 117.856L31.044 120.256C30.7448 120.56 30.3372 120.733 29.9107 120.736C29.4843 120.74 29.0739 120.573 28.77 120.274C28.4661 119.975 28.2934 119.567 28.29 119.141C28.2867 118.714 28.4528 118.304 28.752 118L32.296 114.452C32.4446 114.303 32.6211 114.185 32.8153 114.105C33.0095 114.024 33.2177 113.983 33.428 113.983C33.6383 113.983 33.8465 114.024 34.0407 114.105C34.2349 114.185 34.4114 114.303 34.56 114.452L38.108 118C38.3306 118.224 38.482 118.509 38.5431 118.819C38.6041 119.129 38.5721 119.45 38.4511 119.741C38.33 120.033 38.1254 120.282 37.8629 120.458C37.6004 120.634 37.2918 120.728 36.976 120.728V120.724Z" fill="#A2ACB5"/>
<path d="M125.048 131.34C125.048 131.871 124.837 132.379 124.462 132.754C124.087 133.129 123.578 133.34 123.048 133.34H104.316C103.786 133.34 103.277 133.129 102.902 132.754C102.527 132.379 102.316 131.871 102.316 131.34C102.316 130.81 102.527 130.301 102.902 129.926C103.277 129.551 103.786 129.34 104.316 129.34H123.048C123.578 129.34 124.087 129.551 124.462 129.926C124.837 130.301 125.048 130.81 125.048 131.34Z" fill="#A2ACB5"/>
<path d="M125.048 120.096C125.048 120.627 124.837 121.135 124.462 121.51C124.087 121.885 123.578 122.096 123.048 122.096H94.948C94.4176 122.096 93.9089 121.885 93.5338 121.51C93.1587 121.135 92.948 120.627 92.948 120.096C92.948 119.566 93.1587 119.057 93.5338 118.682C93.9089 118.307 94.4176 118.096 94.948 118.096H123.048C123.578 118.096 124.087 118.307 124.462 118.682C124.837 119.057 125.048 119.566 125.048 120.096Z" fill="#A2ACB5"/>
<path d="M132.4 74.0762H111.6V85.0162C111.597 86.3343 111.073 87.5977 110.142 88.5313C109.212 89.4648 107.95 89.9928 106.632 90.0002H94.504C93.1786 89.9991 91.9079 89.4718 90.971 88.5343C90.0342 87.5967 89.508 86.3255 89.508 85.0002V74.0762H68.708C67.7514 74.0761 66.8336 74.4548 66.1553 75.1294C65.477 75.8039 65.0933 76.7195 65.088 77.6762V135.716C82.152 139.656 94.564 138 103.6 133.2C103.165 133.031 102.803 132.715 102.576 132.307C102.35 131.899 102.273 131.425 102.359 130.966C102.446 130.507 102.69 130.093 103.049 129.796C103.409 129.498 103.861 129.335 104.328 129.336H109.44C112.012 127.227 114.298 124.792 116.24 122.092H94.96C94.4296 122.092 93.9209 121.881 93.5458 121.506C93.1707 121.131 92.96 120.623 92.96 120.092C92.96 119.562 93.1707 119.053 93.5458 118.678C93.9209 118.303 94.4296 118.092 94.96 118.092H118.8C122.94 110.864 125.104 102.672 126.2 95.3282C126.46 95.3282 126.72 95.3282 127 95.3282C130.089 95.3356 133.154 94.7855 136.048 93.7042V77.6922C136.047 77.2147 135.953 76.7421 135.769 76.3016C135.585 75.861 135.315 75.4612 134.976 75.1251C134.637 74.789 134.235 74.5233 133.793 74.3433C133.351 74.1632 132.877 74.0725 132.4 74.0762Z" fill="#F4F6F8"/>
<path d="M136.716 74.076C136.189 73.4483 135.531 72.9439 134.788 72.5983C134.045 72.2527 133.235 72.0744 132.416 72.076H68.72C67.9829 72.0733 67.2526 72.2162 66.5709 72.4965C65.8891 72.7767 65.2694 73.1888 64.7473 73.7091C64.2252 74.2293 63.8109 74.8476 63.5282 75.5283C63.2455 76.209 63.1 76.9389 63.1 77.676V140.704C63.1 142.195 63.692 143.625 64.7458 144.679C65.7997 145.734 67.2291 146.327 68.72 146.328H132.4C133.887 146.322 135.312 145.726 136.361 144.672C137.411 143.618 138 142.191 138 140.704V77.692C138.011 76.373 137.557 75.0925 136.716 74.076ZM136.036 140.704C136.036 141.661 135.658 142.579 134.983 143.258C134.309 143.937 133.393 144.322 132.436 144.328H68.72C67.7596 144.327 66.8388 143.945 66.16 143.265C65.4813 142.586 65.1 141.664 65.1 140.704V77.692C65.1053 76.7353 65.489 75.8197 66.1673 75.1452C66.8456 74.4706 67.7634 74.0919 68.72 74.092H89.52V85.028C89.5274 86.3464 90.0552 87.6086 90.9887 88.5398C91.9221 89.471 93.1856 89.9958 94.504 90H106.632C107.957 90 109.228 89.4736 110.165 88.5367C111.102 87.5997 111.628 86.329 111.628 85.004V74.076H132.428C133.381 74.0812 134.294 74.4622 134.968 75.1362C135.642 75.8102 136.023 76.7228 136.028 77.676L136.036 140.704Z" fill="#F4F6F8"/>
<path d="M154.898 88.6942L169.02 102.817C170.22 104.017 170.895 105.645 170.895 107.342C170.895 109.039 170.22 110.667 169.02 111.868C167.82 113.068 166.192 113.742 164.495 113.742C162.797 113.742 161.17 113.068 159.969 111.868L145.847 97.7452L154.898 88.6942Z" fill="#F4F6F8"/>
<path d="M164.488 115.756C163.383 115.757 162.29 115.54 161.269 115.118C160.248 114.696 159.321 114.077 158.54 113.296L144.42 99.1719C144.045 98.7969 143.834 98.2882 143.834 97.7579C143.834 97.2276 144.045 96.719 144.42 96.3439L153.484 87.2799C153.859 86.905 154.368 86.6943 154.898 86.6943C155.428 86.6943 155.937 86.905 156.312 87.2799L170.436 101.4C171.617 102.574 172.422 104.073 172.749 105.706C173.076 107.339 172.91 109.033 172.273 110.571C171.635 112.11 170.555 113.424 169.169 114.347C167.783 115.271 166.153 115.761 164.488 115.756ZM148.66 97.7559L161.368 110.464C161.778 110.874 162.264 111.199 162.799 111.42C163.335 111.642 163.909 111.756 164.488 111.756C165.067 111.756 165.641 111.642 166.176 111.42C166.712 111.199 167.198 110.874 167.608 110.464C168.018 110.054 168.343 109.568 168.564 109.032C168.786 108.497 168.9 107.923 168.9 107.344C168.9 106.764 168.786 106.191 168.564 105.655C168.343 105.12 168.018 104.634 167.608 104.224L154.9 91.5199L148.66 97.7559Z" fill="#A2ACB5"/>
<path d="M153.2 90.4599L147.704 95.8919L140.788 89.0559C142.85 87.4939 144.699 85.6691 146.288 83.6279L153.2 90.4599Z" fill="#F4F6F8"/>
<path d="M147.692 97.892C147.431 97.8927 147.173 97.8419 146.932 97.7423C146.691 97.6428 146.472 97.4965 146.288 97.312L139.372 90.48C139.168 90.2786 139.01 90.0357 138.908 89.7678C138.806 89.4999 138.763 89.2133 138.782 88.9273C138.8 88.6412 138.88 88.3626 139.016 88.1101C139.151 87.8577 139.34 87.6373 139.568 87.464C141.49 86.0055 143.213 84.3032 144.696 82.4C144.871 82.1783 145.09 81.9954 145.339 81.8632C145.588 81.7309 145.863 81.6522 146.144 81.632C146.426 81.614 146.709 81.656 146.974 81.7553C147.239 81.8546 147.479 82.0089 147.68 82.208L154.596 89.036C154.784 89.222 154.933 89.4434 155.035 89.6875C155.137 89.9316 155.19 90.1935 155.19 90.458C155.19 90.7225 155.137 90.9844 155.035 91.2285C154.933 91.4726 154.784 91.694 154.596 91.88L149.1 97.312C148.726 97.6834 148.219 97.8919 147.692 97.892ZM143.764 89.2L147.692 93.084L150.344 90.464L146.4 86.576C145.575 87.5028 144.695 88.3791 143.764 89.2Z" fill="#A2ACB5"/>
<path d="M139.124 74.076C138.47 72.867 137.501 71.8571 136.32 71.153C135.14 70.4489 133.791 70.0768 132.416 70.076H68.72C66.7028 70.0771 64.7683 70.8775 63.3401 72.302C61.9118 73.7265 61.1063 75.6589 61.1 77.676V140.704C61.1021 142.725 61.9055 144.662 63.3339 146.091C64.7624 147.52 66.6993 148.325 68.72 148.328H132.4C134.418 148.321 136.35 147.514 137.774 146.085C139.199 144.657 139.999 142.722 140 140.704V77.692C140.012 76.4328 139.711 75.1902 139.124 74.076ZM136.036 140.704C136.036 141.661 135.658 142.579 134.983 143.258C134.309 143.937 133.393 144.322 132.436 144.328H68.72C67.7595 144.327 66.8388 143.945 66.16 143.265C65.4813 142.586 65.1 141.664 65.1 140.704V77.692C65.1053 76.7354 65.489 75.8198 66.1673 75.1452C66.8456 74.4707 67.7634 74.092 68.72 74.092H132.4C133.353 74.0973 134.266 74.4783 134.94 75.1523C135.614 75.8263 135.995 76.7389 136 77.692L136.036 140.704Z" fill="#A2ACB5"/>
<path d="M89.508 70.076V85.012C89.5112 86.3354 90.0388 87.6034 90.9753 88.5384C91.9118 89.4734 93.1807 89.999 94.504 90H106.632C107.957 89.999 109.228 89.4717 110.165 88.5342C111.102 87.5966 111.628 86.3254 111.628 85V70.076H89.508ZM107.628 85.012C107.629 85.1432 107.603 85.2731 107.553 85.3944C107.504 85.5157 107.43 85.626 107.338 85.7189C107.245 85.8118 107.135 85.8855 107.014 85.9359C106.893 85.9862 106.763 86.012 106.632 86.012H94.504C94.3729 86.012 94.243 85.9862 94.1219 85.9359C94.0008 85.8855 93.8909 85.8118 93.7983 85.7189C93.7058 85.626 93.6325 85.5157 93.5827 85.3944C93.5329 85.2731 93.5075 85.1432 93.508 85.012V74.076H107.628V85.012Z" fill="#A2ACB5"/>
<path d="M150.86 59.628C149.73 56.9079 148.143 54.4011 146.168 52.216C145.574 51.5544 144.946 50.9255 144.284 50.332C140.576 46.9834 135.976 44.7823 131.042 43.9955C126.109 43.2088 121.052 43.8702 116.487 45.8995C111.921 47.9289 108.043 51.239 105.321 55.4287C102.599 59.6184 101.151 64.5077 101.152 69.504C101.152 69.696 101.152 69.904 101.152 70.076C101.152 70.748 101.204 71.416 101.272 72.076C101.34 72.736 101.432 73.42 101.548 74.076C102.331 78.4302 104.222 82.5093 107.04 85.92C107.897 86.9615 108.833 87.9351 109.84 88.832C114.356 92.852 120.144 95.1533 126.188 95.332C126.448 95.332 126.708 95.332 126.988 95.332C130.077 95.3394 133.142 94.7893 136.036 93.708C136.716 93.46 137.384 93.176 138.036 92.864C138.688 92.552 139.384 92.188 140.036 91.804C140.18 91.724 140.324 91.64 140.464 91.552C141.044 91.192 141.604 90.812 142.156 90.408C142.356 90.264 142.556 90.12 142.744 89.968C144.509 88.6106 146.091 87.0293 147.448 85.264L147.66 84.988C148.06 84.448 148.46 83.888 148.816 83.32C150.612 80.5026 151.836 77.3586 152.416 74.068C153.281 69.2009 152.737 64.1881 150.848 59.62L150.86 59.628ZM144.284 82.828C143.137 84.3217 141.799 85.6584 140.304 86.804L140.036 87.008C139.394 87.4885 138.726 87.9345 138.036 88.344C137.387 88.7245 136.72 89.0716 136.036 89.384C133.196 90.6785 130.109 91.3444 126.988 91.336H126.708C121.05 91.2687 115.641 89.0004 111.628 85.012C110.024 83.4243 108.675 81.5989 107.628 79.6C106.711 77.859 106.038 76.0002 105.628 74.076C105.483 73.4155 105.372 72.7479 105.296 72.076C105.216 71.416 105.168 70.748 105.152 70.076C105.152 69.884 105.152 69.696 105.152 69.504C105.149 65.6362 106.174 61.8372 108.122 58.4958C110.07 55.1545 112.871 52.3908 116.238 50.4879C119.606 48.5849 123.418 47.611 127.285 47.6658C131.153 47.7207 134.936 48.8023 138.248 50.8C139.383 51.4904 140.454 52.2815 141.448 53.164C142.116 53.7503 142.746 54.3796 143.332 55.048C145.597 57.607 147.231 60.6613 148.102 63.9658C148.973 67.2703 149.057 70.733 148.348 74.076C147.672 77.2652 146.282 80.2601 144.284 82.836V82.828Z" fill="#A2ACB5"/>
<path d="M148.828 69.5042C148.827 75.2963 146.526 80.8507 142.43 84.9463C138.335 89.0419 132.78 91.3432 126.988 91.3442C122.67 91.3435 118.448 90.0622 114.858 87.6626C111.268 85.2629 108.47 81.8525 106.817 77.8627C105.165 73.8728 104.733 69.4827 105.576 65.2473C106.418 61.0119 108.498 57.1214 111.552 54.0679C114.605 51.0143 118.496 48.9347 122.731 48.092C126.966 47.2493 131.357 47.6814 135.346 49.3337C139.336 50.9859 142.747 53.784 145.146 57.3743C147.546 60.9646 148.827 65.1858 148.828 69.5042Z" fill="#F4F6F8"/>
<path d="M142.828 63.672C148.351 63.672 152.828 59.1948 152.828 53.672C152.828 48.1491 148.351 43.672 142.828 43.672C137.305 43.672 132.828 48.1491 132.828 53.672C132.828 59.1948 137.305 63.672 142.828 63.672Z" fill="#EF5B5B"/>
<path d="M139.496 58.3362C139.232 58.337 138.974 58.2594 138.754 58.1131C138.534 57.9668 138.363 57.7584 138.261 57.5145C138.16 57.2706 138.134 57.0021 138.186 56.7431C138.237 56.4842 138.365 56.2465 138.552 56.0602L145.22 49.3962C145.344 49.2725 145.491 49.1743 145.652 49.1074C145.814 49.0404 145.987 49.006 146.162 49.006C146.337 49.006 146.51 49.0404 146.672 49.1074C146.833 49.1743 146.98 49.2725 147.104 49.3962C147.228 49.5199 147.326 49.6667 147.393 49.8284C147.46 49.99 147.494 50.1632 147.494 50.3382C147.494 50.5131 147.46 50.6863 147.393 50.848C147.326 51.0096 147.228 51.1565 147.104 51.2802L140.436 57.9482C140.313 58.0716 140.166 58.1694 140.005 58.236C139.843 58.3026 139.671 58.3366 139.496 58.3362Z" fill="white"/>
<path d="M146.16 58.3362C145.985 58.3351 145.811 58.2991 145.65 58.2305C145.489 58.1618 145.342 58.0618 145.22 57.9362L138.552 51.2802C138.302 51.0303 138.162 50.6915 138.162 50.3382C138.162 49.9849 138.302 49.646 138.552 49.3962C138.802 49.1463 139.141 49.006 139.494 49.006C139.847 49.006 140.186 49.1463 140.436 49.3962L147.104 56.0602C147.291 56.2465 147.419 56.4842 147.47 56.7431C147.522 57.0021 147.496 57.2706 147.395 57.5145C147.293 57.7584 147.122 57.9668 146.902 58.1131C146.682 58.2594 146.424 58.337 146.16 58.3362Z" fill="white"/>
<path d="M136.036 93.72V140.704C136.036 141.661 135.658 142.579 134.983 143.258C134.309 143.937 133.393 144.322 132.436 144.328H68.72C67.7595 144.327 66.8388 143.945 66.16 143.265C65.4813 142.586 65.1 141.664 65.1 140.704V135.716C82.152 139.656 94.564 138 103.6 133.2C103.832 133.29 104.079 133.336 104.328 133.336H123.06C123.59 133.336 124.099 133.125 124.474 132.75C124.849 132.375 125.06 131.866 125.06 131.336C125.06 130.806 124.849 130.297 124.474 129.922C124.099 129.547 123.59 129.336 123.06 129.336H109.428C112 127.227 114.286 124.792 116.228 122.092H123.048C123.578 122.092 124.087 121.881 124.462 121.506C124.837 121.131 125.048 120.622 125.048 120.092C125.048 119.562 124.837 119.053 124.462 118.678C124.087 118.303 123.578 118.092 123.048 118.092H118.8C122.94 110.864 125.104 102.672 126.2 95.328C126.46 95.328 126.72 95.328 127 95.328C130.084 95.3391 133.145 94.7944 136.036 93.72Z" fill="#E1E4E6"/>
<path d="M104.316 133.34C104.071 133.338 103.828 133.29 103.6 133.2C105.669 132.108 107.626 130.814 109.44 129.336H123.06C123.59 129.336 124.099 129.547 124.474 129.922C124.849 130.297 125.06 130.806 125.06 131.336C125.06 131.866 124.849 132.375 124.474 132.75C124.099 133.125 123.59 133.336 123.06 133.336L104.316 133.34Z" fill="#A2ACB5"/>
<path d="M123.048 122.096H116.228C117.158 120.81 118.018 119.475 118.804 118.096H123.048C123.578 118.096 124.087 118.307 124.462 118.682C124.837 119.057 125.048 119.566 125.048 120.096C125.048 120.627 124.837 121.135 124.462 121.51C124.087 121.885 123.578 122.096 123.048 122.096Z" fill="#A2ACB5"/>
</svg>
