<svg width="200" height="200" viewBox="0 0 200 200" fill="none" xmlns="http://www.w3.org/2000/svg">
<path d="M125.52 19.724C126.652 19.592 127.784 19.476 128.92 19.324C136.32 18.4 163.276 16.68 178.084 37.832C195.156 62.208 174.976 72.696 177.092 92.464C178.62 106.78 180.692 120.312 181.74 126.684C182.044 128.552 182.416 130.404 182.824 132.248C184.056 137.848 186.424 155.828 170.256 169.656C150.864 186.252 140.98 183.656 119.536 169.656C98.092 155.656 93.06 184.572 65.092 170.588C39.92 158 2.16005 116.772 19.328 77.84C22.644 70.324 27.84 63.8 34.128 58.528C39.756 53.824 47.856 48.22 54.824 47.9C66.944 47.34 71.42 50.572 76.764 47.836C81.952 45.2 109.86 21.512 125.52 19.724Z" fill="#F8FBFF"/>
<path d="M102.104 133.46C120.882 133.46 136.104 118.238 136.104 99.4601C136.104 80.6824 120.882 65.4601 102.104 65.4601C83.3263 65.4601 68.104 80.6824 68.104 99.4601C68.104 118.238 83.3263 133.46 102.104 133.46Z" fill="#F4F6F8"/>
<path d="M137.832 86.52C135.464 79.9813 131.347 74.2179 125.929 69.8575C120.512 65.4971 114.001 62.7069 107.108 61.791C100.214 60.8751 93.201 61.8686 86.8329 64.6632C80.4648 67.4577 74.9856 71.9463 70.9923 77.6398C66.999 83.3333 64.6447 90.0135 64.1859 96.9527C63.727 103.892 65.1812 110.824 68.39 116.994C71.5988 123.164 76.4392 128.334 82.3839 131.943C88.3286 135.552 95.1496 137.46 102.104 137.46C109.889 137.487 117.491 135.097 123.86 130.62C124.34 130.284 124.813 129.936 125.28 129.576C125.348 129.524 125.416 129.472 125.484 129.412C126.012 129.012 126.532 128.576 127.036 128.136C127.116 128.068 127.196 128 127.272 127.928C127.524 127.708 127.776 127.484 128.02 127.252L128.128 127.148C128.344 126.948 128.556 126.748 128.768 126.532C128.836 126.468 128.904 126.404 128.968 126.336L129.14 126.164C129.32 125.98 129.5 125.796 129.676 125.608C129.748 125.536 129.816 125.46 129.884 125.388L129.972 125.292C130.168 125.084 130.372 124.872 130.552 124.656L130.768 124.408C131.208 123.904 131.632 123.384 132.044 122.856L132.2 122.656C132.56 122.189 132.909 121.716 133.248 121.236C136.74 116.241 138.979 110.48 139.777 104.438C140.575 98.3955 139.908 92.2501 137.832 86.52ZM129.032 120.216C127.244 122.537 125.163 124.615 122.84 126.4C118.57 129.687 113.58 131.911 108.281 132.89C102.982 133.87 97.5267 133.575 92.364 132.032C86.3242 130.225 80.9057 126.775 76.7137 122.066C72.5218 117.358 69.7214 111.577 68.6256 105.368C67.5297 99.1602 68.1815 92.7696 70.5081 86.9104C72.8347 81.0512 76.7444 75.9543 81.8006 72.1889C86.8568 68.4236 92.8603 66.1382 99.1405 65.588C105.421 65.0377 111.73 66.2444 117.364 69.0731C122.998 71.9018 127.734 76.2413 131.044 81.6066C134.354 86.9719 136.108 93.1518 136.108 99.456C136.134 106.972 133.643 114.281 129.032 120.216Z" fill="#A2ACB5"/>
<path d="M136.104 99.4601C136.103 104.666 134.907 109.803 132.607 114.474C130.308 119.145 126.966 123.225 122.84 126.4C118.57 129.687 113.58 131.911 108.281 132.89C102.982 133.87 97.5267 133.575 92.364 132.032C99.632 129.38 117.76 120.212 135.08 91.1561C135.764 93.871 136.108 96.6603 136.104 99.4601Z" fill="#E1E4E6"/>
<path d="M154.64 35.108C155.036 35.108 155.422 35.2253 155.751 35.4451C156.08 35.6648 156.336 35.9772 156.488 36.3426C156.639 36.7081 156.679 37.1102 156.602 37.4982C156.524 37.8861 156.334 38.2425 156.054 38.5222C155.774 38.8019 155.418 38.9924 155.03 39.0696C154.642 39.1467 154.24 39.1071 153.875 38.9558C153.509 38.8044 153.197 38.548 152.977 38.2191C152.757 37.8902 152.64 37.5036 152.64 37.108C152.64 36.5776 152.851 36.0689 153.226 35.6938C153.601 35.3187 154.11 35.108 154.64 35.108ZM154.64 31.908C153.611 31.908 152.606 32.213 151.751 32.7843C150.896 33.3557 150.229 34.1679 149.836 35.118C149.442 36.0682 149.339 37.1138 149.54 38.1225C149.741 39.1312 150.236 40.0577 150.963 40.7849C151.69 41.5122 152.617 42.0074 153.625 42.2081C154.634 42.4087 155.68 42.3057 156.63 41.9122C157.58 41.5186 158.392 40.8521 158.964 39.997C159.535 39.1418 159.84 38.1365 159.84 37.108C159.84 35.7289 159.292 34.4062 158.317 33.431C157.342 32.4558 156.019 31.908 154.64 31.908Z" fill="#A2ACB5"/>
<path d="M31.428 102.488C31.8236 102.488 32.2103 102.605 32.5392 102.825C32.8681 103.045 33.1244 103.357 33.2758 103.723C33.4272 104.088 33.4668 104.49 33.3896 104.878C33.3124 105.266 33.1219 105.623 32.8422 105.902C32.5625 106.182 32.2062 106.372 31.8182 106.45C31.4302 106.527 31.0281 106.487 30.6627 106.336C30.2972 106.184 29.9849 105.928 29.7651 105.599C29.5453 105.27 29.428 104.884 29.428 104.488C29.428 103.958 29.6387 103.449 30.0138 103.074C30.3889 102.699 30.8976 102.488 31.428 102.488ZM31.428 99.288C30.3996 99.288 29.3942 99.593 28.5391 100.164C27.6839 100.736 27.0174 101.548 26.6239 102.498C26.2303 103.448 26.1273 104.494 26.3279 105.502C26.5286 106.511 27.0238 107.438 27.7511 108.165C28.4783 108.892 29.4049 109.387 30.4136 109.588C31.4223 109.789 32.4678 109.686 33.418 109.292C34.3682 108.899 35.1803 108.232 35.7517 107.377C36.3231 106.522 36.628 105.516 36.628 104.488C36.628 103.109 36.0802 101.786 35.105 100.811C34.1298 99.8359 32.8072 99.288 31.428 99.288Z" fill="#A2ACB5"/>
<path d="M142.4 51.5999C142.19 51.6001 141.982 51.5589 141.787 51.4786C141.593 51.3983 141.417 51.2805 141.268 51.1319L138.868 48.7319L136.468 51.1319C136.165 51.4191 135.762 51.5766 135.345 51.5709C134.928 51.5652 134.529 51.3967 134.235 51.1014C133.94 50.8061 133.772 50.4073 133.767 49.9901C133.762 49.5728 133.92 49.1702 134.208 48.8679L137.752 45.3239C137.901 45.1752 138.077 45.0572 138.271 44.9766C138.466 44.8961 138.674 44.8547 138.884 44.8547C139.094 44.8547 139.302 44.8961 139.497 44.9766C139.691 45.0572 139.867 45.1752 140.016 45.3239L143.564 48.8679C143.79 49.0936 143.943 49.3818 144.004 49.6954C144.065 50.0089 144.031 50.3336 143.906 50.6274C143.78 50.9213 143.57 51.171 143.302 51.3443C143.033 51.5176 142.719 51.6066 142.4 51.5999Z" fill="#A2ACB5"/>
<path d="M49.704 121.432C49.4938 121.432 49.2856 121.391 49.0914 121.311C48.8972 121.23 48.7207 121.113 48.572 120.964L46.172 118.564L43.772 120.964C43.6233 121.113 43.4468 121.231 43.2526 121.311C43.0584 121.391 42.8502 121.433 42.64 121.433C42.4297 121.433 42.2215 121.391 42.0273 121.311C41.8331 121.231 41.6566 121.113 41.508 120.964C41.3593 120.815 41.2414 120.639 41.1609 120.445C41.0805 120.25 41.0391 120.042 41.0391 119.832C41.0391 119.622 41.0805 119.414 41.1609 119.219C41.2414 119.025 41.3593 118.849 41.508 118.7L45.056 115.156C45.3559 114.857 45.7623 114.689 46.186 114.689C46.6096 114.689 47.016 114.857 47.316 115.156L50.864 118.7C51.088 118.924 51.2406 119.209 51.3024 119.519C51.3642 119.83 51.3326 120.152 51.2114 120.444C51.0901 120.737 50.8849 120.987 50.6215 121.163C50.3582 121.339 50.0486 121.432 49.732 121.432H49.704Z" fill="#A2ACB5"/>
<path d="M120.868 171.628C120.658 171.628 120.45 171.587 120.255 171.507C120.061 171.426 119.885 171.309 119.736 171.16L117.336 168.76L114.936 171.16C114.789 171.315 114.612 171.438 114.416 171.524C114.22 171.609 114.01 171.654 113.796 171.657C113.583 171.659 113.371 171.619 113.173 171.539C112.975 171.458 112.796 171.338 112.645 171.187C112.494 171.036 112.375 170.856 112.294 170.658C112.214 170.461 112.174 170.249 112.177 170.035C112.18 169.822 112.226 169.611 112.311 169.415C112.397 169.219 112.521 169.043 112.676 168.896L116.22 165.348C116.369 165.199 116.545 165.081 116.739 165.001C116.934 164.92 117.142 164.879 117.352 164.879C117.562 164.879 117.77 164.92 117.965 165.001C118.159 165.081 118.335 165.199 118.484 165.348L122.032 168.896C122.256 169.12 122.409 169.405 122.47 169.716C122.532 170.026 122.501 170.348 122.379 170.64C122.258 170.933 122.053 171.183 121.79 171.359C121.526 171.535 121.217 171.628 120.9 171.628H120.868Z" fill="#A2ACB5"/>
<path d="M140.329 128.226L154.644 142.541C155.919 143.816 156.636 145.546 156.636 147.349C156.636 149.152 155.919 150.882 154.644 152.157C153.369 153.433 151.639 154.149 149.836 154.149C148.032 154.149 146.303 153.433 145.027 152.157L130.713 137.843L140.329 128.226Z" fill="#F4F6F8"/>
<path d="M149.82 156.18C148.664 156.182 147.52 155.955 146.452 155.512C145.384 155.069 144.415 154.419 143.6 153.6L129.288 139.288C128.913 138.913 128.702 138.404 128.702 137.874C128.702 137.344 128.913 136.835 129.288 136.46L138.912 126.8C139.287 126.425 139.796 126.214 140.326 126.214C140.856 126.214 141.365 126.425 141.74 126.8L156.056 141.112C157.289 142.345 158.129 143.917 158.469 145.628C158.809 147.338 158.635 149.112 157.967 150.723C157.3 152.335 156.17 153.712 154.719 154.681C153.269 155.65 151.564 156.168 149.82 156.168V156.18ZM133.512 137.868L146.4 150.768C146.846 151.214 147.377 151.569 147.96 151.81C148.543 152.052 149.169 152.176 149.8 152.176C150.431 152.176 151.057 152.052 151.64 151.81C152.223 151.569 152.753 151.214 153.2 150.768C153.646 150.321 154.001 149.791 154.242 149.208C154.484 148.625 154.608 147.999 154.608 147.368C154.608 146.737 154.484 146.111 154.242 145.528C154.001 144.945 153.646 144.414 153.2 143.968L140.3 131.064L133.512 137.868Z" fill="#A2ACB5"/>
<path d="M138.868 129.68L132.312 136.24L124.06 128C126.521 126.108 128.727 123.904 130.62 121.444L138.868 129.68Z" fill="#F4F6F8"/>
<path d="M140.28 128.268L138.868 126.856L133.248 121.236L132.048 120.036C131.976 119.961 131.897 119.892 131.812 119.832C131.39 119.525 130.865 119.395 130.349 119.47C129.832 119.544 129.366 119.818 129.048 120.232C127.254 122.548 125.168 124.621 122.84 126.4C122.427 126.717 122.154 127.183 122.08 127.699C122.005 128.214 122.134 128.738 122.44 129.16C122.5 129.245 122.567 129.326 122.64 129.4L130.892 137.652C131.262 138.023 131.762 138.234 132.286 138.24C132.809 138.246 133.314 138.046 133.692 137.684L133.728 137.652L140.28 131.092C140.654 130.717 140.864 130.209 140.864 129.68C140.864 129.151 140.654 128.643 140.28 128.268ZM127.272 127.928C127.524 127.708 127.776 127.484 128.02 127.252L128.128 127.148C128.344 126.948 128.556 126.748 128.768 126.532C128.836 126.468 128.904 126.404 128.968 126.336L129.14 126.164C129.32 125.98 129.5 125.796 129.676 125.608C129.748 125.536 129.816 125.46 129.884 125.388L129.972 125.292C130.168 125.084 130.372 124.872 130.552 124.656L130.768 124.408L136.04 129.68L132.312 133.412L127.036 128.136C127.116 128.068 127.2 128 127.272 127.928Z" fill="#A2ACB5"/>
<path d="M125.104 91.4601C133.388 91.4601 140.104 84.7443 140.104 76.4601C140.104 68.1758 133.388 61.4601 125.104 61.4601C116.82 61.4601 110.104 68.1758 110.104 76.4601C110.104 84.7443 116.82 91.4601 125.104 91.4601Z" fill="#EF5B5B"/>
<path d="M120.104 83.4599C119.709 83.4598 119.322 83.3427 118.994 83.1231C118.665 82.9036 118.409 82.5916 118.257 82.2266C118.106 81.8615 118.066 81.4597 118.142 81.0719C118.219 80.6842 118.409 80.3279 118.688 80.0479L128.688 70.0479C129.065 69.6836 129.57 69.482 130.095 69.4866C130.619 69.4912 131.121 69.7015 131.492 70.0723C131.862 70.4431 132.073 70.9447 132.077 71.4691C132.082 71.9935 131.88 72.4987 131.516 72.8759L121.516 82.8759C121.141 83.2498 120.633 83.4598 120.104 83.4599Z" fill="white"/>
<path d="M130.104 83.46C129.841 83.4605 129.581 83.4092 129.338 83.309C129.095 83.2088 128.874 83.0616 128.688 82.876L118.688 72.876C118.497 72.6915 118.345 72.4709 118.24 72.2268C118.135 71.9828 118.08 71.7204 118.077 71.4548C118.075 71.1893 118.126 70.9259 118.226 70.6801C118.327 70.4343 118.475 70.211 118.663 70.0232C118.851 69.8355 119.074 69.687 119.32 69.5864C119.566 69.4858 119.829 69.4352 120.095 69.4375C120.36 69.4398 120.623 69.495 120.867 69.5998C121.111 69.7047 121.331 69.857 121.516 70.048L131.516 80.048C131.795 80.3277 131.985 80.6837 132.061 81.0711C132.138 81.4585 132.099 81.8599 131.948 82.2248C131.797 82.5897 131.541 82.9017 131.213 83.1216C130.885 83.3414 130.499 83.4592 130.104 83.46Z" fill="white"/>
</svg>
