<svg width="12" height="24" viewBox="0 0 12 24" fill="none" xmlns="http://www.w3.org/2000/svg">
<path d="M10.4591 12.6348C9.7541 11.4683 8.96714 10.3877 8.66983 9.1813C8.4536 8.30399 8.42681 7.7905 8.49196 7.05082H9.79016V2.82033H8.37999V0H3.44442V2.82033H2.03426V7.05082H3.4134C3.47648 7.77936 3.45645 8.28518 3.23557 9.18125C2.93789 10.3891 2.14773 11.4746 1.44631 12.6347C0.672695 13.9144 0.0818369 15.3486 0.00258567 16.8542L0 16.9025V20.7999C0 22.5495 1.42333 23.9728 3.17287 23.9728H8.73254C10.4821 23.9728 11.9054 22.5495 11.9054 20.7999V16.922C11.8371 15.3889 11.2529 13.9478 10.4591 12.6348ZM4.85458 1.41016H6.96983V2.82033H4.85458V1.41016ZM3.44442 4.23049H8.37999V5.64066H3.44442V4.23049ZM4.60475 9.5187C4.83531 8.58311 4.8951 7.9302 4.82826 7.05082H7.0771C7.01021 7.93001 7.07005 8.58301 7.30061 9.51875C7.73752 11.2913 8.938 12.6775 9.66292 14.1016H2.2424C2.96492 12.6825 4.16755 11.2926 4.60475 9.5187ZM10.4952 20.7999C10.4952 21.7719 9.70451 22.5626 8.73254 22.5626H3.17282C2.20084 22.5626 1.41012 21.7719 1.41012 20.7999C1.41289 16.7583 1.40551 16.9919 1.41411 16.8693C1.44542 16.4244 1.5304 15.9732 1.66865 15.5118H10.2367C10.3724 15.9647 10.4707 16.4608 10.4952 16.9405V20.7999H10.4952Z" fill="white"/>
</svg>
