<svg width="22" height="22" viewBox="0 0 22 22" fill="none" xmlns="http://www.w3.org/2000/svg">
<path d="M20.392 18.962C20.0077 18.187 11.4528 0.936731 10.9882 0L1.60791 18.9146L1.99302 19.2426C4.30193 21.2093 7.52208 22 10.597 22C10.7027 21.9854 15.7602 22.1851 19.9334 19.2812L20.392 18.962ZM10.5971 20.7039C7.65907 20.7037 5.06516 19.9491 3.22578 18.5695C3.28246 18.4552 3.88195 17.2464 3.97272 17.0633C8.0797 19.149 13.7793 18.882 17.9406 16.9361L18.7282 18.5241C16.5053 19.9143 13.5772 20.7039 10.5971 20.7039ZM17.3645 15.7744C13.4314 17.6044 8.19324 17.7472 4.54905 15.9012L10.9882 2.91716L17.3645 15.7744Z" fill="white"/>
<path d="M10.3403 9.03906H11.6364V10.3352H10.3403V9.03906Z" fill="white"/>
<path d="M12.2842 11.6309H13.5803V12.927H12.2842V11.6309Z" fill="white"/>
<path d="M8.396 11.6309H9.69209V12.927H8.396V11.6309Z" fill="white"/>
<path d="M10.3403 14.2236H11.6364V15.5197H10.3403V14.2236Z" fill="white"/>
</svg>
