<svg width="17" height="22" viewBox="0 0 17 22" fill="none" xmlns="http://www.w3.org/2000/svg">
<path d="M14.5028 5.17647H14.2353V3.88235H15.5294V0H1.29412V3.88235H2.58824V5.17647H2.32074C1.04107 5.17647 0 6.21755 0 7.49721V19.6793C0 20.9589 1.04107 22 2.32074 22H14.5028C15.7825 22 16.8235 20.9589 16.8235 19.6793C16.8235 19.1083 16.8235 8.06498 16.8235 7.49721C16.8235 6.21755 15.7825 5.17647 14.5028 5.17647ZM2.58824 1.29412H14.2353V2.58824H2.58824V1.29412ZM3.88235 3.88235H12.9412V5.17647H3.88235V3.88235ZM15.5294 16.8235H5.17647V10.3529H15.5294V16.8235ZM3.88235 9.05882V18.1176H15.5294V19.6793C15.5294 20.2453 15.0689 20.7059 14.5028 20.7059H2.32074C1.75465 20.7059 1.29412 20.2453 1.29412 19.6793V7.49721C1.29412 6.93112 1.75465 6.47059 2.32074 6.47059H14.5028C15.0689 6.47059 15.5294 6.93112 15.5294 7.49721V9.05882H3.88235Z" fill="white"/>
<path d="M6.4704 11.6472H14.2351V12.9413H6.4704V11.6472Z" fill="white"/>
<path d="M8.4118 14.2361H12.2942V15.5302H8.4118V14.2361Z" fill="white"/>
</svg>
