<svg width="20" height="20" viewBox="0 0 20 20" fill="none" xmlns="http://www.w3.org/2000/svg">
<path d="M19.6641 9.0892L17.9745 7.5497V2.4449C17.9745 2.1201 17.7112 1.85674 17.3864 1.85674H13.3194C12.9946 1.85674 12.7312 2.12006 12.7312 2.4449V2.77201L10.6907 0.912754C10.2969 0.553809 9.70292 0.553848 9.30921 0.912715L0.335853 9.08923C0.0203847 9.37673 -0.0838731 9.8197 0.0702675 10.2177C0.224447 10.6157 0.599838 10.8729 1.02667 10.8729H2.45984V19.0651C2.45984 19.3899 2.72316 19.6533 3.048 19.6533H7.96648C8.29128 19.6533 8.55464 19.3899 8.55464 19.0651V14.091H11.4453V19.0651C11.4453 19.3899 11.7086 19.6533 12.0335 19.6533H16.9517C17.2765 19.6533 17.5399 19.39 17.5399 19.0651V10.8729H18.9733C19.4001 10.8729 19.7756 10.6157 19.9298 10.2177C20.0839 9.8197 19.9796 9.37673 19.6641 9.0892ZM16.9517 9.69658C16.6269 9.69658 16.3636 9.9599 16.3636 10.2847V18.477H12.6217V13.5029C12.6217 13.1781 12.3583 12.9147 12.0335 12.9147H7.96648C7.64167 12.9147 7.37831 13.178 7.37831 13.5029V18.477H3.63613V10.2847C3.63613 9.95994 3.37281 9.69658 3.04796 9.69658H1.41581L10 1.87471L12.9233 4.53842C13.0955 4.69529 13.3441 4.73572 13.5571 4.6417C13.7701 4.54756 13.9076 4.33654 13.9076 4.10365V3.03307H16.7983V7.80947C16.7983 7.97498 16.868 8.13275 16.9903 8.24424L18.5842 9.69658H16.9517Z" fill="white"/>
</svg>
