<svg width="22" height="20" viewBox="0 0 22 20" fill="none" xmlns="http://www.w3.org/2000/svg">
<path d="M12.4266 3.04423C12.5429 2.82138 12.6047 2.57412 12.607 2.32277C12.607 1.4288 11.8823 0.704102 10.9883 0.704102C10.0944 0.704102 9.36965 1.4288 9.36965 2.32277C9.37191 2.57412 9.43376 2.82138 9.55002 3.04423C5.68372 3.23847 2.1504 4.22817 2.1504 5.95321C2.14912 6.20861 2.35516 6.41673 2.61056 6.418C2.6268 6.41806 2.64299 6.4173 2.65912 6.41569H19.3638C19.6192 6.41569 19.8262 6.20861 19.8262 5.95321C19.8262 4.22817 16.3068 3.23847 12.4266 3.04423ZM11.0114 1.63368C11.3895 1.63368 11.6959 1.94013 11.6959 2.31814C11.6959 2.69616 11.3895 3.00261 11.0114 3.00261C10.6334 3.00261 10.327 2.69616 10.327 2.31814C10.327 1.94013 10.6334 1.63368 11.0114 1.63368ZM3.40371 5.50923C4.25929 4.74152 7.0434 3.92756 11.0114 3.92756V3.94606C14.9795 3.94606 17.7636 4.76002 18.6192 5.50923H3.40371Z" fill="white"/>
<path d="M4.27791 8.64551C4.0225 8.64551 3.81543 8.85258 3.81543 9.10798V14.0796C3.81543 14.335 4.0225 14.5421 4.27791 14.5421C4.53331 14.5421 4.74038 14.335 4.74038 14.0796V9.10798C4.74038 8.85258 4.53331 8.64551 4.27791 8.64551Z" fill="white"/>
<path d="M21.5375 8.76953H19.8264V7.44685C19.8264 7.19145 19.6193 6.98438 19.3639 6.98438H2.65924C2.40384 6.98438 2.19676 7.19145 2.19676 7.44685V8.76953H0.462476C0.207074 8.76953 0 8.97661 0 9.23201C0 9.48741 0.207074 9.69449 0.462476 9.69449H2.20139V16.5206C2.20139 18.5694 3.66744 19.2955 5.04562 19.2955H17.0238C19.0725 19.2955 19.7986 17.8618 19.7986 16.5206V9.69449H21.5375C21.7929 9.69449 22 9.48741 22 9.23201C22 8.97661 21.7929 8.76953 21.5375 8.76953ZM18.9014 16.5206C18.9014 17.367 18.5777 18.3705 17.0515 18.3705H5.02712C4.31028 18.3705 3.10784 18.1301 3.10784 16.5206V7.90933H18.9014V16.5206Z" fill="white"/>
</svg>
