<svg width="23" height="19" viewBox="0 0 23 19" fill="none" xmlns="http://www.w3.org/2000/svg">
<path d="M23 9.23192C23 8.51031 22.6211 7.87587 22.0521 7.51594C22.4619 6.2375 21.9135 4.82422 20.7017 4.17219C20.5883 4.11117 20.5031 4.01187 20.4677 3.89962C20.114 2.77807 19.0154 2.10291 17.8709 2.26265C17.3025 1.55777 16.4583 1.15378 15.5532 1.15378L15.5363 1.15414C15.5363 1.15414 15.5349 1.15324 15.5329 1.15003C14.7623 -0.109148 13.0795 -0.367064 11.9664 0.538911C10.9737 0.0834654 9.73793 0.237791 8.88021 1.06705C8.08612 0.748797 7.16878 0.88382 6.49615 1.43411C5.04692 1.15112 3.62182 1.97817 3.12746 3.33837C3.07429 3.48458 2.96646 3.6072 2.83166 3.6748C1.4007 4.39195 0.589792 5.98274 0.868408 7.56893C0.343918 7.93612 0 8.54444 0 9.23192C0 10.1217 0.575947 10.8791 1.37441 11.1522C1.6652 14.9913 4.88191 18.026 8.79412 18.026H14.2059C18.1181 18.026 21.3348 14.9913 21.6256 11.1522C22.4241 10.8791 23 10.1217 23 9.23192ZM3.43778 4.88433C3.88502 4.66019 4.22636 4.27537 4.39895 3.80058C4.67225 3.04875 5.46733 2.59538 6.26809 2.76842C6.64903 2.85086 7.04233 2.74714 7.33475 2.49639C7.6332 2.24055 8.05478 2.17881 8.41295 2.33819C8.86876 2.54086 9.41724 2.45603 9.78393 2.07644C10.2354 1.60909 10.9123 1.52399 11.4446 1.78885C11.8862 2.00861 12.4179 1.93727 12.7949 1.60981C13.2748 1.19288 14.0322 1.28979 14.3789 1.85631C14.6282 2.26364 15.0607 2.50681 15.5359 2.50676L15.5531 2.50672C16.0489 2.50672 16.5112 2.7291 16.8215 3.11676C17.1248 3.49554 17.5967 3.66831 18.0585 3.6026C18.5536 3.53211 19.0259 3.8266 19.1773 4.30645C19.3197 4.75833 19.6334 5.13377 20.0606 5.36359C20.7313 5.72446 21.0013 6.52378 20.7276 7.20242H2.18166C2.0718 6.25022 2.57717 5.31569 3.43778 4.88433ZM14.2059 16.6731H8.79412C5.66571 16.6731 3.08083 14.3012 2.74322 11.2613L20.2568 11.2614C19.9191 14.3012 17.3343 16.6731 14.2059 16.6731ZM20.9706 9.90839H2.02941C1.65641 9.90839 1.35294 9.60493 1.35294 9.23192C1.35294 8.85891 1.65641 8.55545 2.02941 8.55545H20.9706C21.3436 8.55545 21.6471 8.85891 21.6471 9.23192C21.6471 9.60493 21.3436 9.90839 20.9706 9.90839Z" fill="white"/>
<path d="M5.4118 4.51807H6.76475V5.87101H5.4118V4.51807Z" fill="white"/>
<path d="M8.11755 3.84277H9.4705V5.19572H8.11755V3.84277Z" fill="white"/>
<path d="M10.8233 4.51807H12.1762V5.87101H10.8233V4.51807Z" fill="white"/>
<path d="M13.5296 3.84277H14.8825V5.19572H13.5296V3.84277Z" fill="white"/>
<path d="M16.2354 4.51807H17.5883V5.87101H16.2354V4.51807Z" fill="white"/>
</svg>
