<svg width="22" height="22" viewBox="0 0 22 22" fill="none" xmlns="http://www.w3.org/2000/svg">
<path d="M19.9698 2.02991C17.4698 -0.470222 13.7761 -0.580052 11.2445 1.25635C10.0525 2.12115 9.21642 3.34162 8.82661 4.78585C8.709 5.22159 8.60889 5.61346 8.51206 5.99248C7.94451 8.21428 7.65959 9.32949 5.86412 11.1251L5.11607 11.8731L6.19679 12.9539L4.30846 14.8423C3.88988 14.5414 3.37896 14.3766 2.83422 14.3766C1.0918 14.3766 -0.314548 16.027 0.0612457 17.7559C0.248561 18.6177 0.855145 19.2973 1.68389 19.5739C2.03808 19.6921 2.30894 19.963 2.42711 20.3171C2.549 20.6826 2.74822 21.0053 3.01916 21.2762C4.05977 22.3169 5.80137 22.22 6.85957 21.0843C7.7732 20.1039 7.85644 18.6754 7.16856 17.7062L9.05861 15.816L10.1272 16.8846L10.7917 16.22C12.9264 14.0851 14.1401 14.0183 17.2411 13.1665C19.4814 12.5514 21.1757 10.8359 21.7732 8.5775C22.3948 6.2287 21.7206 3.78094 19.9698 2.02991ZM8.14369 14.9009L5.28652 17.7583L5.87318 18.2073C6.20964 18.4648 6.30457 18.8089 6.32497 19.0523C6.39838 19.9283 5.64804 20.706 4.7963 20.706C4.24708 20.706 3.81142 20.3779 3.65456 19.9075C3.40634 19.1636 2.83741 18.5945 2.0935 18.3462C1.69623 18.2137 1.4164 17.8983 1.3257 17.481C1.21791 16.9851 1.39488 16.4643 1.79901 16.0877C2.38058 15.5457 3.32431 15.5014 3.80077 16.1362L4.24838 16.7326L7.11188 13.8689C7.47262 14.2298 7.77842 14.5356 8.14369 14.9009ZM16.8987 11.9185C13.9 12.7422 12.3875 12.8938 10.1298 15.0571C9.70509 14.6324 7.20617 12.1333 6.94493 11.872C9.15479 9.59764 9.26749 8.11765 10.0758 5.12315C10.6939 2.83293 12.732 1.29414 15.1474 1.29414C16.6026 1.29414 17.9903 1.88048 19.0548 2.94509C22.0399 5.9304 20.7672 10.8564 16.8987 11.9185Z" fill="white"/>
</svg>
