<svg width="22" height="14" viewBox="0 0 22 14" fill="none" xmlns="http://www.w3.org/2000/svg">
<path d="M21.627 9.56937L19.647 6.11695L19.9694 5.74317C20.6686 4.93284 20.4743 3.68622 19.5577 3.12872L16.0139 0.973256C15.6542 0.754441 15.2233 0.669835 14.7951 0.750825C14.4322 0.260967 13.8753 0 13.3066 0H8.70936C8.13361 0 7.58003 0.266522 7.22145 0.749877C6.7929 0.670308 6.36483 0.756121 6.00789 0.973256L2.46415 3.12876C1.54966 3.68502 1.35152 4.93091 2.05244 5.74326L2.3618 6.10175L0.373007 9.56937C-0.220488 10.6041 -0.0968722 11.9072 0.680518 12.8119C1.46402 13.7238 2.73123 14.0337 3.83985 13.604L7.5839 12.1534L7.76452 12.3627C8.13421 12.7911 8.69546 13.0185 9.27608 12.9517C9.5717 13.149 9.92636 13.2627 10.3057 13.2627H11.7101C12.0898 13.2627 12.4448 13.1488 12.7406 12.9511C13.3236 13.0202 13.8872 12.7914 14.2572 12.3628L14.4324 12.1598L18.16 13.6041C19.2745 14.0359 20.5398 13.7193 21.3195 12.812C22.0969 11.9072 22.2205 10.6041 21.627 9.56937ZM3.3732 12.3996C3.19607 12.4682 3.01037 12.503 2.82122 12.503C2.82122 12.503 2.82113 12.503 2.82109 12.503C2.37437 12.503 1.95125 12.3087 1.66028 11.9701C1.23879 11.4795 1.17175 10.773 1.49356 10.212L3.25484 7.14101L6.67433 11.1205L3.3732 12.3996ZM18.8864 4.23235C19.1202 4.37453 19.1703 4.69211 18.9915 4.89935L18.9657 4.92918L18.9565 4.91317L13.6396 11.1009C15.1192 2.21377 15.137 2.17837 15.1517 2.01372C15.2189 2.01941 15.283 2.04055 15.3427 2.07689L18.8864 4.23235ZM8.70936 1.29179H13.3066C13.631 1.29179 13.8844 1.56468 13.866 1.8833C13.8605 1.96042 13.9427 1.43396 12.2629 11.5029C12.2187 11.7683 11.9885 11.971 11.7102 11.971H10.3058C10.175 11.971 10.0542 11.926 9.95818 11.8501C9.937 11.8226 9.79504 11.7188 9.75896 11.5029L8.16254 1.94444C8.13727 1.79323 8.18007 1.6942 8.18868 1.64404C8.2704 1.44301 8.46532 1.29179 8.70936 1.29179ZM2.9283 4.5415C2.94023 4.46585 2.98298 4.3251 3.13544 4.23235L6.67919 2.07689C6.7374 2.0415 6.79979 2.02074 6.86511 2.01445C6.87885 2.1695 6.78589 1.56145 8.37511 11.0931C8.34437 11.0575 8.84336 11.6359 3.04352 4.91317L3.043 4.91407C3.03986 4.90667 2.89192 4.77297 2.9283 4.5415ZM20.3398 11.9701C19.919 12.4598 19.2338 12.6348 18.6268 12.3996L15.3284 11.1216L18.7524 7.15358L20.5065 10.212C20.8283 10.7731 20.7613 11.4795 20.3398 11.9701Z" fill="white"/>
</svg>
