<svg width="22" height="22" viewBox="0 0 22 22" fill="none" xmlns="http://www.w3.org/2000/svg">
<path d="M6.85788 22C4.97968 22 3.45177 20.4721 3.45177 18.5941C3.45177 18.5786 3.45193 18.5632 3.4521 18.5479C3.43666 18.5481 3.42139 18.5481 3.40594 18.5481C1.52791 18.5482 0 17.0203 0 15.1421C0 13.2641 1.52791 11.7362 3.40594 11.7362C4.0968 11.7362 4.75627 11.9406 5.31554 12.3211L12.3211 5.3152C11.9408 4.7561 11.7363 4.09663 11.7363 3.40594C11.7362 1.52791 13.2641 0 15.1421 0C17.0203 0 18.5482 1.52791 18.5482 3.40594C18.5482 3.42139 18.5481 3.43683 18.5479 3.4521C18.5632 3.45193 18.5786 3.45193 18.5941 3.45193C20.4721 3.45193 22 4.97984 22 6.85788C22 8.73592 20.4721 10.2638 18.5941 10.2638C17.9032 10.2638 17.2437 10.0592 16.6843 9.67871L9.67888 16.6845C10.0592 17.2437 10.2638 17.9032 10.2638 18.5941C10.2638 20.4721 8.73592 22 6.85788 22ZM4.83382 17.972C4.77222 18.1719 4.741 18.3812 4.741 18.5941C4.741 19.7613 5.69051 20.7109 6.85788 20.7109C8.02509 20.7109 8.97476 19.7613 8.97476 18.5941C8.97476 18.0289 8.75455 17.4973 8.3544 17.0974C8.1028 16.8458 8.1028 16.4376 8.3544 16.186L16.186 8.35406C16.4376 8.10229 16.8459 8.10263 17.0974 8.35406C17.4977 8.75421 18.0291 8.97476 18.5941 8.97476C19.7613 8.97476 20.7109 8.02509 20.7109 6.85771C20.7109 5.69051 19.7613 4.74083 18.5941 4.74083C18.3816 4.74083 18.1721 4.77205 17.9718 4.83382C17.4779 4.98555 17.0141 4.52213 17.1662 4.02815C17.2278 3.82774 17.2592 3.61844 17.2592 3.40594C17.2592 2.23874 16.3095 1.28906 15.1421 1.28906C13.9749 1.28906 13.0252 2.23874 13.0252 3.40594C13.0252 3.97092 13.2456 4.50232 13.6456 4.9023C13.8974 5.1539 13.897 5.56227 13.6456 5.81371L5.81404 13.6456C5.56244 13.8974 5.15407 13.897 4.90263 13.6456C4.50249 13.2456 3.97108 13.0252 3.40594 13.0252C2.23874 13.0252 1.28906 13.9749 1.28906 15.1421C1.28906 16.3095 2.23874 17.2592 3.40594 17.2592C3.6176 17.2592 3.82724 17.2278 4.02899 17.1658C4.56274 17.0024 4.97397 17.5172 4.83382 17.972Z" fill="white"/>
</svg>
