<svg width="22" height="22" viewBox="0 0 22 22" fill="none" xmlns="http://www.w3.org/2000/svg">
<path d="M21.7714 0.702694L21.6787 0.321347L21.2973 0.228589C21.2318 0.212642 19.6676 -0.158862 17.493 0.0796948C15.486 0.299941 12.5519 1.1042 9.97096 3.68513C7.39004 6.26602 6.58579 9.20019 6.36558 11.2072C6.27605 12.023 6.27244 12.7529 6.30365 13.35C4.72922 12.4931 2.71344 12.7289 1.38311 14.0592L0 15.4423L0.79983 16.242C1.60899 17.0512 2.67192 17.4558 3.7348 17.4558C4.04054 17.4558 4.34607 17.4212 4.64579 17.3542C4.34607 18.6958 4.71606 20.1583 5.75797 21.2002L6.55767 22L7.94079 20.6169C9.2712 19.2865 9.50692 17.2707 8.64996 15.6962C8.86234 15.7073 9.09114 15.7141 9.33503 15.7141C9.77685 15.7141 10.2671 15.6921 10.7928 15.6344C12.7998 15.4142 15.734 14.61 18.3148 12.029C20.8958 9.44811 21.7 6.51395 21.9203 4.50697C22.1589 2.33236 21.7874 0.768244 21.7714 0.702694ZM1.82674 15.4392L2.29491 14.971C3.37288 13.8929 5.10416 13.8567 6.22619 14.862L5.75802 15.3302C4.67996 16.4082 2.94877 16.4445 1.82674 15.4392ZM7.02903 19.7052L6.56081 20.1733C5.55544 19.0513 5.5918 17.3201 6.66977 16.242L7.13799 15.7739C8.14336 16.8959 8.107 18.6271 7.02903 19.7052ZM17.4031 11.1173C15.5561 12.9643 13.3013 14.051 10.7015 14.3472C9.35338 14.5007 8.25452 14.3905 7.69453 14.3055C7.60947 13.7455 7.49931 12.6466 7.65288 11.2985C7.94908 8.6987 9.03574 6.44397 10.8828 4.59694C11.3469 4.1328 11.8369 3.71672 12.3515 3.34909C12.7735 4.84499 13.5685 6.20275 14.6829 7.31717C15.7966 8.43087 17.1533 9.22555 18.648 9.64768C18.2796 10.165 17.8643 10.6561 17.4031 11.1173ZM20.6385 4.36637C20.5125 5.51416 20.2238 6.61663 19.7801 7.64312C19.654 7.93506 19.5144 8.22081 19.363 8.50063C17.9362 8.17026 16.6408 7.45158 15.5946 6.40537C14.5473 5.35808 13.8283 4.06111 13.4984 2.63247C14.7414 1.95922 16.1071 1.53537 17.5843 1.36704C18.9335 1.21329 20.0331 1.3238 20.5923 1.40882C20.6766 1.95871 20.7849 3.032 20.6385 4.36637Z" fill="white"/>
<path d="M16.3752 4.44727L17.2868 3.49588L18.1984 4.44727L17.2868 5.39865L16.3752 4.44727Z" fill="white"/>
</svg>
