<svg width="26" height="26" viewBox="0 0 26 26" fill="none" xmlns="http://www.w3.org/2000/svg">
<g clip-path="url(#clip0)">
<path d="M25.9418 12.9265C25.8399 12.3617 25.6074 11.8287 25.2627 11.3698C25.7416 10.7319 26.0003 9.95574 26 9.15809C25.9997 8.9405 25.9804 8.72337 25.9422 8.50918C25.5897 6.49763 23.6733 5.15265 21.6617 5.50506C21.6593 5.50547 21.6569 5.50592 21.6545 5.50633L20.579 5.69582C20.5743 5.69648 20.5697 5.69577 20.565 5.69658L19.1367 5.94995L14.8914 6.69785L14.1736 6.82378L14.1701 6.82494L6.96958 8.0935C6.95 8.09684 6.93066 8.10165 6.91178 8.10782L3.06036 8.78456C1.0484 9.13809 -0.296073 11.0557 0.0574566 13.0677C0.15767 13.6379 0.390286 14.1766 0.736679 14.6406C0.632214 14.7778 0.538125 14.9227 0.455272 15.0741C0.448693 15.086 0.444289 15.099 0.437862 15.1111L0.435179 15.1167C0.0440948 15.8426 -0.0887635 16.6799 0.0584182 17.4912C0.410986 19.5025 2.32728 20.8472 4.33863 20.4946C4.34132 20.4941 4.34395 20.4937 4.34663 20.4932L22.9388 17.2151C24.7093 16.9097 26.0021 15.3729 26 13.5763C26.0006 13.3891 25.9855 13.2022 25.9549 13.0176C25.9522 12.9871 25.9478 12.9566 25.9418 12.9265ZM19.1447 6.93664C19.1548 6.89782 19.1655 6.85905 19.1767 6.82023L19.3455 6.79027L20.0999 6.65736C20.0635 6.82221 20.0225 6.98994 19.9768 7.15934C19.7862 8.06596 19.4052 8.92172 18.8589 9.66993C18.7607 8.74888 18.8581 7.81746 19.1447 6.93664ZM14.5931 7.62756L15.0924 7.53959L15.5223 7.46408C15.4961 7.57563 15.4666 7.69376 15.4335 7.82004C15.2417 8.7256 14.8602 9.58025 14.3141 10.3277C14.2149 9.41803 14.31 8.49769 14.5931 7.62756ZM10.0226 8.43412L10.9558 8.26983C10.9404 8.33057 10.9242 8.39226 10.9071 8.45497C10.7165 9.3616 10.3355 10.2174 9.78917 10.9656C9.69391 10.1147 9.77332 9.25329 10.0226 8.43412ZM5.53158 9.42299C5.54969 9.3536 5.56893 9.28593 5.58872 9.21781L6.50668 9.05625C6.46406 9.25703 6.41644 9.45589 6.3637 9.65115C6.17233 10.5563 5.79086 11.4105 5.24455 12.1571C5.14444 11.2357 5.24227 10.3035 5.53158 9.42299ZM22.7894 16.3643L4.19621 19.6426C2.64574 19.9097 1.1723 18.8694 0.905169 17.3189C0.87799 17.1613 0.864173 17.0015 0.863818 16.8415C0.863818 16.7788 0.871511 16.7165 0.875763 16.654C1.53687 17.7814 2.74489 18.475 4.05176 18.4778C4.27061 18.4777 4.489 18.4584 4.70446 18.42L5.81288 18.2259C6.24638 18.3363 6.69202 18.3921 7.13934 18.392C8.17012 18.42 9.18035 18.1007 10.0078 17.4854L12.4183 17.0598C12.812 17.1488 13.2142 17.1944 13.6177 17.1956C14.6095 17.222 15.5834 16.9289 16.3959 16.3597L19.1404 15.873C20.0983 15.9707 21.0647 15.8018 21.9326 15.3849L23.2972 15.1421C23.9319 15.0306 24.5263 14.7543 25.0206 14.3408C24.7299 15.3894 23.8615 16.1771 22.7894 16.3643ZM4.39633 17.5894C2.94253 17.7586 1.59811 16.7954 1.29053 15.3645C1.30805 15.3359 1.32525 15.3071 1.34383 15.2791C1.42061 15.3426 1.49835 15.4052 1.5808 15.463C2.14204 15.8545 2.80168 16.0809 3.485 16.1167C3.56299 16.7157 3.89496 17.2523 4.39633 17.5894ZM4.34709 16.0747L9.51282 15.1639C9.76533 15.3566 9.92329 15.6482 9.94667 15.9649C9.92997 16.2767 9.7799 16.5663 9.53484 16.7597C8.85298 17.2923 8.0038 17.5647 7.13939 17.5282C6.73165 17.5309 6.32549 17.478 5.93207 17.3709C5.03598 17.1248 4.4225 16.6133 4.34709 16.0747ZM10.9416 16.4433L10.7191 16.4826C10.7396 16.4247 10.7569 16.3656 10.7712 16.3058C10.8278 16.3518 10.8797 16.4002 10.9416 16.4433ZM10.8327 14.9313L16.0488 14.0117C16.0732 14.0353 16.0955 14.0617 16.1182 14.0874C16.1858 14.2624 16.2789 14.4265 16.3945 14.5743C16.4118 14.6392 16.4221 14.7057 16.4251 14.7728C16.3975 15.1119 16.2222 15.4217 15.9457 15.6199C15.1916 16.2473 13.7403 16.5 12.5199 16.202C11.5878 15.9729 10.9409 15.4749 10.8327 14.9313ZM17.1672 14.163C17.1259 14.0512 17.0738 13.9436 17.0116 13.8419L22.2662 12.9155C22.3946 13.075 22.4667 13.2724 22.4714 13.4771C22.4026 13.9761 22.0717 14.4 21.6042 14.588C20.8472 14.9567 20.0009 15.1024 19.1641 15.0083C18.4201 14.9686 17.7135 14.6696 17.1672 14.163ZM17.2766 15.3261L17.1862 15.3421C17.193 15.323 17.1985 15.3036 17.2046 15.2843C17.2284 15.2984 17.2523 15.3123 17.2766 15.3261ZM23.1475 14.2915L23.1219 14.2961C23.2597 14.0449 23.333 13.7635 23.3353 13.4771C23.3337 13.2241 23.276 12.9747 23.1663 12.7467C23.7142 12.6168 24.2251 12.363 24.6597 12.0049C24.8565 12.3014 24.996 12.6321 25.0709 12.9801C24.6486 13.6739 23.9476 14.1519 23.1475 14.2915ZM22.8136 11.9418C22.8055 11.9433 22.7975 11.9447 22.7894 11.946L4.19601 15.224C2.65343 15.5001 1.17908 14.4734 0.903043 12.9308C0.627001 11.3882 1.65368 9.91389 3.19625 9.63784C3.20096 9.63698 3.20562 9.63617 3.21032 9.63536L4.65193 9.38205C4.35615 10.5506 4.16402 12.0576 4.54756 12.7189C4.6411 12.8959 4.8029 13.027 4.99549 13.0817C5.05318 13.0975 5.11281 13.1054 5.17263 13.1053C5.31146 13.1035 5.44736 13.0649 5.56635 12.9933C6.26141 12.5943 6.87975 11.0637 7.19775 9.87537C7.28419 9.55514 7.35424 9.22484 7.41508 8.89217L9.10028 8.59527C8.85683 9.717 8.75201 10.9436 9.09238 11.5289C9.18622 11.7051 9.34782 11.8355 9.5399 11.8899C9.59755 11.9054 9.65697 11.9132 9.71664 11.9131C9.85653 11.9112 9.99344 11.8722 10.1133 11.8001C10.8061 11.4008 11.4088 9.92553 11.7411 8.6798C11.7954 8.48074 11.8397 8.29063 11.8793 8.10564L13.6644 7.79114C13.4446 8.75921 13.0577 10.9817 14.0689 11.2558C14.1254 11.2708 14.1835 11.2785 14.2419 11.2786C15.3682 11.2786 16.1757 8.38837 16.2685 8.04122C16.3412 7.76386 16.3971 7.5237 16.4414 7.30186L18.2434 6.98447C17.9505 8.18359 17.7894 9.59214 18.1622 10.2333C18.256 10.4095 18.4176 10.5399 18.6097 10.5943C18.6673 10.6098 18.7268 10.6176 18.7864 10.6175C18.9263 10.6156 19.0632 10.5766 19.1831 10.5044C19.8759 10.1055 20.4786 8.62984 20.8114 7.3829C20.8925 7.08074 20.9558 6.78597 21.01 6.49707L21.8043 6.35713C23.345 6.08331 24.816 7.11035 25.0899 8.6511C25.0903 8.65348 25.0908 8.65591 25.0912 8.65829C25.3689 10.1939 24.3492 11.664 22.8136 11.9418Z" fill="white"/>
</g>
<defs>
<clipPath id="clip0">
<rect width="26" height="26" fill="white"/>
</clipPath>
</defs>
</svg>
