<svg width="22" height="22" viewBox="0 0 22 22" fill="none" xmlns="http://www.w3.org/2000/svg">
<path d="M21.6806 19.6692L20.4438 18.4324C20.4429 18.3932 20.4402 18.3533 20.4359 18.3123L19.2467 8.50896C19.7809 8.37351 20.1598 7.99132 20.1598 7.5242V7.43659C20.1598 6.2244 18.9523 5.1428 17.4477 4.8949C16.9608 4.04895 14.6886 0.470976 10.8352 0.00604246L10.7825 0L10.7297 0.00621029C6.89169 0.469298 4.62224 4.02042 4.12256 4.88482C2.58191 5.10772 1.33145 6.20342 1.33145 7.43676V7.5242C1.33145 8.06433 1.83549 8.491 2.50352 8.5531L1.55049 18.3384C1.54646 18.3736 1.54428 18.4087 1.54344 18.4434L0.318501 19.6692C-0.0148413 20.0031 -0.0940647 20.4905 0.116582 20.9123C0.327732 21.3332 0.764468 21.5583 1.23192 21.4964L3.51916 21.1691C3.54148 21.1766 3.56448 21.1827 3.58764 21.1881C6.02393 21.729 8.47817 21.9999 10.9346 21.9999C13.2658 21.9999 15.5985 21.7559 17.9157 21.2681L18.37 21.1723C18.3858 21.1687 18.4012 21.1647 18.417 21.1609L20.7665 21.4969C21.2355 21.5667 21.6714 21.3341 21.8815 20.9123C22.0932 20.4905 22.0141 20.0032 21.6806 19.6692ZM10.7825 0.886227C13.6379 1.2575 15.5819 3.66509 16.3731 4.84118H5.19057C5.97911 3.66509 7.91874 1.25801 10.7825 0.886227ZM2.21113 7.5242V7.43676C2.21113 6.64318 3.29525 5.72087 4.69307 5.72087H16.7981C18.1958 5.72087 19.2801 6.64368 19.2801 7.43676L19.2809 7.51715C19.2707 7.5467 19.1946 7.60427 19.0746 7.64438L15.3928 8.18535C14.272 8.34984 12.442 8.4299 10.6154 8.42638C8.78869 8.42285 6.96521 8.33624 5.85675 8.16739L2.59013 7.66906L2.58929 7.67778C2.36421 7.65663 2.22523 7.55945 2.21113 7.5242ZM21.0957 20.5182C21.0715 20.5657 21.0148 20.6404 20.8917 20.6251L18.3534 20.2627L18.2673 20.2855C18.2413 20.2926 18.2166 20.301 18.1899 20.3116L17.7351 20.4074C13.0996 21.3838 8.40449 21.3569 3.76119 20.3228C3.73518 20.3136 3.70966 20.3043 3.68298 20.2965L3.59234 20.2701L1.10805 20.6254C0.985857 20.6412 0.927782 20.566 0.903612 20.519C0.879778 20.4715 0.853426 20.3792 0.940539 20.2911L2.42363 18.808L2.42279 18.5586C2.42228 18.5181 2.42061 18.4777 2.42598 18.4302L3.37548 8.67882L5.72516 9.03683C5.87286 9.05916 6.03265 9.08031 6.20184 9.10061C6.20587 9.10095 6.21023 9.10145 6.21409 9.10179C6.37993 9.12126 6.55499 9.13872 6.73845 9.1555C6.74197 9.156 6.74533 9.156 6.74852 9.15634C7.87225 9.25755 9.29776 9.30807 10.7194 9.30807H10.7281C10.7449 9.30807 10.7615 9.30807 10.7783 9.30774C10.9868 9.30774 11.1944 9.30639 11.4015 9.30421C11.4266 9.30421 11.4516 9.30337 11.4767 9.30287C11.6782 9.30018 11.8782 9.29716 12.0761 9.29229C12.1057 9.29146 12.1347 9.29045 12.1642 9.28961C12.3564 9.28474 12.5469 9.27954 12.7337 9.27249C12.7737 9.27115 12.812 9.26896 12.8516 9.26762C13.0258 9.26108 13.1992 9.25403 13.367 9.2453C13.4216 9.24261 13.4726 9.23909 13.5258 9.2359C13.6762 9.22767 13.8268 9.21928 13.9709 9.20955C14.0401 9.20518 14.1034 9.19948 14.1707 9.19461C14.2939 9.18538 14.4187 9.17648 14.5361 9.16641C14.6286 9.15852 14.7133 9.14879 14.8013 9.14006C14.8862 9.13167 14.975 9.12378 15.0556 9.11488C15.2205 9.09642 15.3761 9.07628 15.5213 9.05513L18.3764 8.63602L19.5626 18.4139C19.5679 18.4574 19.5657 18.4997 19.5652 18.5423L19.5644 18.7961L21.0589 20.2906C21.1458 20.3784 21.1195 20.471 21.0957 20.5182Z" fill="white"/>
</svg>
