<svg width="16" height="22" viewBox="0 0 16 22" fill="none" xmlns="http://www.w3.org/2000/svg">
<path d="M15.541 7.54104C15.541 5.87022 14.3525 4.47185 12.7764 4.14711C12.4464 1.80644 10.4302 0 7.99995 0C5.56965 0 3.5535 1.80644 3.22358 4.14704C1.6475 4.47185 0.458984 5.87022 0.458984 7.54096C0.458984 9.19489 1.62395 10.5819 3.17639 10.9248V11.7404C3.17639 12.5442 3.65728 13.2373 4.34639 13.5484L7.29898 21.5121C7.40765 21.8054 7.68735 22 8.00009 22C8.31291 22 8.59254 21.8054 8.7012 21.5121L12.6116 10.9644C14.2688 10.7062 15.541 9.26948 15.541 7.54104ZM8.00002 19.101L5.97521 13.6397C6.79209 13.3945 7.38921 12.636 7.38921 11.7404V10.963C7.59024 10.9916 7.79476 11.0061 8.00002 11.0061C8.78898 11.0061 9.53906 10.7958 10.1424 10.4159C10.4253 10.6073 10.7334 10.7546 11.0575 10.8541L8.00002 19.101ZM12.0759 9.51052C11.5512 9.51052 11.0571 9.30511 10.6843 8.93207C10.3948 8.64259 9.92617 8.63956 9.63313 8.92548C9.25787 9.29178 8.64728 9.51044 8.00002 9.51044C7.62417 9.51044 7.25735 9.43741 6.93928 9.29926C6.70824 9.19896 6.44195 9.22178 6.23121 9.35993C6.02054 9.49815 5.89358 9.73319 5.89358 9.98519V11.7403C5.89358 12.0044 5.67039 12.2276 5.40624 12.2276H5.15921C4.89506 12.2276 4.67187 12.0044 4.67187 11.7402L4.6718 10.258C4.6718 9.84504 4.33691 9.5103 3.92395 9.5103C2.83802 9.5103 1.95447 8.62674 1.95447 7.54081C1.95447 6.45481 2.83802 5.57133 3.92395 5.57133C4.33691 5.57133 4.6718 5.23644 4.6718 4.82348C4.6718 2.98837 6.16476 1.49533 7.99995 1.49533C9.83513 1.49533 11.3281 2.9883 11.3281 4.82348C11.3281 5.23644 11.6629 5.57133 12.0759 5.57133C13.1619 5.57133 14.0454 6.45481 14.0454 7.54081C14.0454 8.62696 13.1619 9.51052 12.0759 9.51052Z" fill="white"/>
</svg>
