<svg width="22" height="22" viewBox="0 0 22 22" fill="none" xmlns="http://www.w3.org/2000/svg">
<g clip-path="url(#clip0)">
<path d="M18.9389 3.87019C18.0432 2.14547 16.1468 1.21198 14.2685 1.60013C13.4573 0.594517 12.265 0.00646973 10.9967 0.00646973C9.73176 0.00646973 8.54152 0.594474 7.73075 1.60013C5.85062 1.2116 3.95486 2.14772 3.06033 3.87019C1.2304 4.44667 -0.0395598 6.22565 0.000557871 8.22036C0.0472324 10.5391 1.79386 12.3259 3.91151 12.5548C5.87348 14.7749 7.14564 17.7638 7.50152 21.0027C7.56364 21.5681 8.0388 21.9946 8.60679 21.9946H13.3925C13.9605 21.9946 14.4356 21.5682 14.4977 21.0027C14.8311 17.969 16.225 14.8966 18.3359 12.5253C20.3752 12.2 21.9548 10.3966 21.9987 8.22036C22.0389 6.22565 20.7689 4.44667 18.9389 3.87019ZM13.23 20.7004H8.7695C8.40055 17.5965 7.24602 14.7049 5.47847 12.4199C5.71189 12.3533 5.94056 12.2664 6.16194 12.1594C6.83272 12.7688 7.72342 12.9625 8.53923 12.7467L10.9997 19.308L13.4601 12.7467C14.2801 12.9639 15.1744 12.7663 15.843 12.1574C16.1191 12.2886 16.4091 12.3904 16.7049 12.4612C14.8267 14.8584 13.5827 17.7889 13.23 20.7004ZM10.4498 14.1561C10.8155 14.2426 11.1914 14.2413 11.5496 14.1558L10.9997 15.6223L10.4498 14.1561ZM17.6763 11.2838C17.1252 11.2838 16.558 11.1164 16.0794 10.8126C16.0505 10.7942 16.0206 10.7753 15.9794 10.756L15.4921 10.5283L15.1792 10.9659C14.7137 11.6169 13.8769 11.7153 13.3032 11.247L12.3613 10.4782L12.2497 11.6889C12.1823 12.4196 11.5845 12.9263 10.9996 12.9263C10.3732 12.9263 9.81243 12.3712 9.74949 11.6889L9.63789 10.4782L8.69599 11.247C8.12572 11.7127 7.29136 11.6207 6.8212 10.9633L6.45195 10.4469L5.88444 10.8366C5.40738 11.134 4.89124 11.2847 4.35013 11.2847C2.91047 11.2847 1.33281 10.1032 1.29442 8.19435C1.26426 6.69641 2.26073 5.37231 3.66373 5.04589L3.98148 4.97196L4.11102 4.67254C4.73474 3.23042 6.30701 2.46698 7.7927 2.95382L8.26721 3.10933L8.5379 2.68974C9.10748 1.80693 10.0037 1.30063 10.9967 1.30063C11.9934 1.30063 12.8917 1.80693 13.4613 2.68974L13.732 3.10933L14.2065 2.95387C15.6938 2.46646 17.2649 3.23158 17.8882 4.67258L18.0178 4.972L18.3355 5.04594C19.7386 5.37236 20.735 6.69646 20.7048 8.1944C20.6702 9.91881 19.3169 11.2838 17.6763 11.2838Z" fill="white"/>
</g>
<defs>
<clipPath id="clip0">
<rect width="22" height="22" fill="white"/>
</clipPath>
</defs>
</svg>
