<svg xmlns="http://www.w3.org/2000/svg" width="24" height="24" fill="none" viewBox="0 0 24 24">
    <path fill="#fff" d="M12.75 8c0-.414-.336-.75-.75-.75s-.75.336-.75.75h1.5zm-1.5 8c0 .414.336.75.75.75s.75-.336.75-.75h-1.5zM8 11.25c-.414 0-.75.336-.75.75s.336.75.75.75v-1.5zm8 1.5c.414 0 .75-.336.75-.75s-.336-.75-.75-.75v1.5zM11.25 8v8h1.5V8h-1.5zM8 12.75h8v-1.5H8v1.5zM20.25 12c0 4.556-3.694 8.25-8.25 8.25v1.5c5.385 0 9.75-4.365 9.75-9.75h-1.5zM12 20.25c-4.556 0-8.25-3.694-8.25-8.25h-1.5c0 5.385 4.365 9.75 9.75 9.75v-1.5zM3.75 12c0-4.556 3.694-8.25 8.25-8.25v-1.5c-5.385 0-9.75 4.365-9.75 9.75h1.5zM12 3.75c4.556 0 8.25 3.694 8.25 8.25h1.5c0-5.385-4.365-9.75-9.75-9.75v1.5z"/>
</svg>
