<svg xmlns="http://www.w3.org/2000/svg" width="24" height="24" fill="none" viewBox="0 0 24 24">
    <path stroke="#04565A" stroke-linecap="round" stroke-linejoin="round" stroke-width="2" d="M21 16.477v2.71c.004 1.035-.928 1.9-1.974 1.806C10 21 3 13.935 3.007 4.969 2.913 3.93 3.774 3.001 4.808 3h2.715c.44-.004.865.151 1.198.437.947.812 1.556 3.57 1.322 4.667-.183.856-1.046 1.455-1.633 2.04 1.289 2.262 3.165 4.134 5.43 5.42.587-.585 1.187-1.446 2.045-1.629 1.1-.234 3.877.376 4.686 1.329.287.338.44.77.428 1.213z"/>
</svg>
