<svg width="31" height="31" viewBox="0 0 31 31" fill="none" xmlns="http://www.w3.org/2000/svg">
<circle cx="15.5" cy="15.5" r="9.5" stroke="#04565A" stroke-width="2"/>
<path fill-rule="evenodd" clip-rule="evenodd" d="M16 10C16.2652 10 16.5196 10.067 16.7071 10.1864C16.8946 10.3057 17 10.4676 17 10.6364V16.3636C17 16.5324 16.8946 16.6943 16.7071 16.8136C16.5196 16.933 16.2652 17 16 17C15.7348 17 15.4804 16.933 15.2929 16.8136C15.1054 16.6943 15 16.5324 15 16.3636V10.6364C15 10.4676 15.1054 10.3057 15.2929 10.1864C15.4804 10.067 15.7348 10 16 10V10Z" fill="#04565A"/>
<path fill-rule="evenodd" clip-rule="evenodd" d="M16 20C16.2652 20 16.5196 19.8946 16.7071 19.7071C16.8946 19.5196 17 19.2652 17 19C17 18.7348 16.8946 18.4804 16.7071 18.2929C16.5196 18.1054 16.2652 18 16 18C15.7348 18 15.4804 18.1054 15.2929 18.2929C15.1054 18.4804 15 18.7348 15 19C15 19.2652 15.1054 19.5196 15.2929 19.7071C15.4804 19.8946 15.7348 20 16 20V20Z" fill="#04565A"/>
</svg>
