<svg xmlns="http://www.w3.org/2000/svg" width="17" height="21" fill="none" viewBox="0 0 17 21">
    <path fill="#04565A" stroke="#04565A" stroke-width=".5" d="M15.523 1H1.478C1.214 1 1 1.212 1 1.473v18.054c0 .188.112.358.286.433.174.075.376.042.515-.085l1.662-1.517c.18-.166.458-.168.641-.006l1.09.963c.545.483 1.37.48 1.913-.005l1.073-.959c.182-.163.458-.163.64 0l1.073.959c.543.486 1.368.488 1.914.005l1.089-.963c.183-.162.461-.16.641.006l1.662 1.517c.14.127.341.16.515.085s.286-.245.286-.433V1.473c0-.261-.214-.473-.477-.473zm-.478 17.448l-.86-.785c-.541-.498-1.376-.505-1.925-.016l-1.09.962c-.181.161-.456.16-.637-.001l-1.073-.96c-.545-.488-1.375-.488-1.92 0l-1.073.96c-.18.162-.456.162-.638.001l-1.089-.962c-.549-.489-1.384-.482-1.925.016l-.86.785V1.946h13.09v16.502z"/>
    <path fill="#04565A" stroke="#04565A" stroke-width=".5" d="M4.75 13H8.036999999999999V14.2H4.75z"/>
    <rect width="1.644" height="1.2" x="3.928" y="13" fill="#04565A" stroke="#04565A" stroke-width=".5" rx=".6"/>
    <rect width="1.644" height="1.2" x="7.215" y="13" fill="#04565A" stroke="#04565A" stroke-width=".5" rx=".6"/>
    <path fill="#04565A" stroke="#04565A" stroke-width=".5" d="M5.428 9H11.428V10.2H5.428z"/>
    <rect width="3" height="1.2" x="3.928" y="9" fill="#04565A" stroke="#04565A" stroke-width=".5" rx=".6"/>
    <rect width="3" height="1.2" x="9.928" y="9" fill="#04565A" stroke="#04565A" stroke-width=".5" rx=".6"/>
    <path fill="#04565A" stroke="#04565A" stroke-width=".5" d="M5.428 5H11.428V6.2H5.428z"/>
    <rect width="3" height="1.2" x="3.928" y="5" fill="#04565A" stroke="#04565A" stroke-width=".5" rx=".6"/>
    <rect width="3" height="1.2" x="9.928" y="5" fill="#04565A" stroke="#04565A" stroke-width=".5" rx=".6"/>
</svg>
