<svg xmlns="http://www.w3.org/2000/svg" width="25" height="26" fill="none" viewBox="0 0 25 26">
    <path fill="#04565A" stroke="#04565A" stroke-width=".5" d="M20.632 6.035c-1.78-1.72-4.042-2.806-6.491-3.142l.717-.693c.284-.274.284-.72 0-.994-.284-.275-.745-.275-1.03 0l-1.843 1.78c-.284.275-.284.72 0 .995l1.844 1.78c.142.138.328.206.514.206s.373-.068.515-.205c.284-.275.284-.72 0-.995l-.41-.397c4.609.879 8.096 4.813 8.096 9.52 0 5.35-4.506 9.704-10.044 9.704S2.456 19.24 2.456 13.89c0-2.041.648-3.994 1.875-5.647 1.202-1.62 2.859-2.827 4.791-3.494.379-.13.576-.533.44-.899-.134-.365-.55-.556-.93-.425-2.212.763-4.109 2.145-5.484 3.998C1.743 9.317 1 11.553 1 13.89c0 2.968 1.196 5.758 3.368 7.856C6.54 23.844 9.428 25 12.5 25s5.96-1.156 8.132-3.254C22.804 19.648 24 16.858 24 13.89c0-2.967-1.196-5.757-3.368-7.855h0z"/>
    <path fill="#04565A" stroke="#04565A" stroke-width=".5" d="M13.419 12.815c-.596-.194-1.253-.426-1.617-.688-.09-.065-.13-.231-.094-.403.018-.09.105-.392.436-.483.582-.162.979.05 1.122.149.333.228.805.166 1.054-.14.248-.306.18-.738-.152-.967-.138-.095-.475-.297-.957-.407v-.185c0-.382-.336-.691-.752-.691s-.753.31-.753.69v.229c-.758.21-1.324.804-1.477 1.549-.141.689.106 1.358.645 1.746.533.384 1.297.661 2.043.903.589.191.606.605.564.834-.07.384-.422.798-1.027.802-.632.004-.812-.023-1.29-.31-.347-.208-.814-.119-1.041.2-.228.32-.13.748.218.957.519.312.908.448 1.365.502v.207c0 .382.337.691.753.691s.752-.31.752-.69v-.279c.355-.099.68-.268.958-.503.42-.353.702-.832.796-1.348.193-1.052-.428-2.003-1.546-2.365h0z"/>
</svg>
