<svg width="24" height="24" viewBox="0 0 24 24" fill="none" xmlns="http://www.w3.org/2000/svg">
<path d="M19.0706 5.37794C17.5224 3.88265 15.5565 2.93794 13.4271 2.64618L14.0506 2.04382C14.2976 1.805 14.2976 1.41794 14.0506 1.17912C13.8035 0.940294 13.4024 0.940294 13.1553 1.17912L11.5529 2.72735C11.3059 2.96618 11.3059 3.35324 11.5529 3.59206L13.1553 5.14029C13.2788 5.26029 13.4412 5.31912 13.6024 5.31912C13.7647 5.31912 13.9271 5.26029 14.0494 5.14029C14.2965 4.90147 14.2965 4.51441 14.0494 4.27559L13.6929 3.93088C17.7012 4.69559 20.7341 8.11559 20.7341 12.2085C20.7341 16.8615 16.8165 20.6462 12 20.6462C7.18353 20.6462 3.26588 16.8615 3.26588 12.2097C3.26588 10.4344 3.83059 8.73676 4.89647 7.29912C5.94118 5.89088 7.38235 4.84029 9.06235 4.26147C9.39176 4.14735 9.56353 3.79794 9.44588 3.48029C9.32824 3.16265 8.96588 2.99559 8.63647 3.10971C6.71294 3.77324 5.06353 4.97559 3.86824 6.58618C2.64588 8.23323 2 10.1768 2 12.2097C2 14.7909 3.04 17.2168 4.92941 19.0415C6.81765 20.8638 9.32941 21.8685 12 21.8685C14.6706 21.8685 17.1824 20.8638 19.0706 19.0391C20.96 17.2156 22 14.7897 22 12.2085C22 9.62853 20.96 7.20265 19.0706 5.37794Z" fill="#04565A" stroke="#04565A" stroke-width="0.5"/>
<path d="M12.8589 11.3596C12.3032 11.1802 11.688 10.9629 11.3495 10.7179C11.2636 10.6573 11.2282 10.5032 11.2611 10.3415C11.2775 10.2568 11.3583 9.97516 11.6678 9.89053C12.2109 9.73895 12.5811 9.93726 12.7162 10.0295C13.0269 10.2429 13.4665 10.1848 13.6989 9.89937C13.9314 9.61389 13.8682 9.20968 13.5575 8.99621C13.4286 8.90779 13.1141 8.71832 12.6644 8.61726V8.44295C12.6644 8.08674 12.3499 7.79874 11.9621 7.79874C11.5743 7.79874 11.2598 8.08674 11.2598 8.44295V8.65642C10.5512 8.85347 10.0219 9.40674 9.88042 10.1027C9.74779 10.7469 9.97895 11.3709 10.4817 11.7322C10.9794 12.0909 11.6931 12.3512 12.3891 12.576C12.9385 12.7541 12.9549 13.1406 12.9158 13.3554C12.8501 13.7128 12.5229 14.1006 11.9571 14.1032C11.3672 14.1069 11.1992 14.0829 10.7533 13.8152C10.4286 13.6194 9.99284 13.7027 9.78063 14.0008C9.56842 14.2989 9.65937 14.6994 9.984 14.8939C10.4691 15.1844 10.8316 15.312 11.2598 15.3625V15.5558C11.2598 15.912 11.5743 16.2013 11.9621 16.2013C12.3499 16.2013 12.6644 15.912 12.6644 15.5571V15.2968C12.9954 15.2046 13.2985 15.0467 13.5587 14.8269C13.9503 14.4973 14.2131 14.0501 14.3015 13.5688C14.4821 12.5861 13.9011 11.6994 12.8577 11.3596H12.8589Z" fill="#04565A" stroke="#04565A" stroke-width="0.5"/>
</svg>
