<svg xmlns="http://www.w3.org/2000/svg" width="20" height="20" fill="none" viewBox="0 0 20 20">
    <path stroke="#04565A" stroke-width="1.5" d="M8 2c0-.552.448-1 1-1h2c.552 0 1 .448 1 1v.569c0 .428.287.8.682.963.396.164.856.102 1.158-.2l.403-.403c.39-.39 1.023-.39 1.414 0l1.414 1.414c.39.39.39 1.024 0 1.414l-.402.403c-.303.302-.365.762-.201 1.158.164.395.535.682.963.682H18c.552 0 1 .448 1 1v2c0 .552-.448 1-1 1h-.569c-.428 0-.8.287-.963.682-.164.396-.102.856.2 1.158l.403.403c.39.39.39 1.023 0 1.414l-1.414 1.414c-.39.39-1.024.39-1.414 0l-.403-.402c-.302-.303-.762-.365-1.158-.201-.395.164-.682.535-.682.963V18c0 .552-.448 1-1 1H9c-.552 0-1-.448-1-1v-.569c0-.428-.287-.8-.682-.963-.396-.164-.856-.102-1.158.2l-.403.403c-.39.39-1.023.39-1.414 0L2.93 15.657c-.39-.39-.39-1.024 0-1.414l.402-.403c.303-.302.365-.762.201-1.158-.164-.395-.535-.682-.963-.682H2c-.552 0-1-.448-1-1V9c0-.552.448-1 1-1h.569c.428 0 .8-.287.963-.682.164-.395.102-.856-.2-1.158l-.403-.403c-.39-.39-.39-1.023 0-1.414L4.343 2.93c.39-.39 1.024-.39 1.414 0l.403.402c.302.303.763.365 1.158.201.395-.164.682-.535.682-.963V2z"/>
    <path stroke="#04565A" stroke-width="1.5" d="M12 10c0 1.105-.895 2-2 2s-2-.895-2-2 .895-2 2-2 2 .895 2 2z"/>
</svg>
