<svg xmlns="http://www.w3.org/2000/svg" width="20" height="18" fill="none" viewBox="0 0 20 18">
    <path fill="#04565A" stroke="#04565A" stroke-width=".5" d="M1 9.472c.01-2.146 1.537-3.844 3.441-4.219 1.49-.293 2.793.1 3.902 1.13.145.135.141.29-.005.42-.168.15-.339.296-.503.449-.125.116-.282.098-.395-.008-.482-.456-1.055-.735-1.713-.816-.973-.118-1.823.16-2.535.832-.474.446-.77.995-.89 1.632-.235 1.24.304 2.465 1.35 3.144.43.277.9.445 1.41.48 1.093.074 1.99-.31 2.666-1.169 1.178-1.495 2.344-2.999 3.515-4.5.688-.88 1.582-1.432 2.685-1.623 2.344-.405 4.41 1.113 4.94 3.185.108.43.15.865.124 1.306-.118 1.951-1.504 3.505-3.27 3.924-1.47.349-2.788.019-3.934-.971-.023-.02-.046-.041-.067-.064-.1-.107-.1-.25.002-.355.07-.073.146-.141.22-.21l.295-.28c.133-.124.256-.127.392-.007.417.37.897.62 1.446.718 1.06.191 1.984-.092 2.76-.835.471-.451.768-1.007.87-1.65.163-1.011-.11-1.9-.818-2.644-.491-.518-1.1-.832-1.81-.912-1.147-.13-2.106.247-2.824 1.153-1.059 1.334-2.1 2.683-3.147 4.026-.117.15-.224.309-.341.459-.687.88-1.578 1.436-2.68 1.633-2.27.406-4.444-1.023-4.974-3.262-.076-.321-.108-.648-.112-.966h0zM13.652 4.465h-.322c-.17.001-.267-.086-.287-.257-.061-.536-.248-1.025-.571-1.457-.516-.69-1.203-1.1-2.058-1.217-1.584-.215-3.04.792-3.4 2.346-.027.12-.043.241-.061.363-.023.146-.115.23-.264.227-.242-.004-.484-.012-.727-.02-.16-.007-.265-.13-.25-.29.036-.353.108-.697.226-1.032C6.449 1.68 7.666.618 9.186.343c1.432-.26 2.705.102 3.777 1.095.708.656 1.129 1.476 1.286 2.428.015.094.03.189.035.283.012.18-.083.285-.264.293-.122.006-.245.001-.368.001v.022z"/>
    <path fill="#04565A" stroke="#04565A" stroke-width=".5" d="M7.602 17.277c-.193 0-.386.002-.58-.001-.038 0-.08-.008-.113-.027-.062-.036-.07-.128-.022-.185.022-.026.05-.046.074-.069.604-.525 1.128-1.119 1.536-1.81.343-.58.594-1.197.713-1.863.04-.216.056-.437.08-.657.018-.169.106-.253.276-.254h.7c.172.002.28.122.265.291-.076.868-.306 1.694-.681 2.48-.358.748-.836 1.413-1.431 1.993-.073.071-.153.105-.255.103-.187-.003-.374 0-.562 0zM12.172 17.284c-.177 0-.356-.003-.533.001-.104.002-.182-.036-.248-.115-.213-.259-.4-.536-.573-.823-.139-.231-.27-.467-.407-.7-.053-.087-.062-.174-.027-.271.125-.35.245-.7.367-1.051.009-.023.016-.047.029-.068.046-.079.151-.089.21-.018.023.028.04.061.058.094.49.862 1.028 1.694 1.64 2.476l.147.188c.045.055.095.109.054.188-.04.079-.111.075-.183.076l-.267.004h-.266v.019h0z"/>
    <path fill="#04565A" d="M7.786 10.355c-.005.484-.198.88-.521 1.22-.055.056-.115.061-.184.031-.346-.147-.628-.37-.828-.69-.428-.686-.327-1.533.247-2.103.054-.054.11-.071.182-.039.526.24.91.608 1.053 1.188.02.077.032.156.043.235.007.054.006.11.008.158zM5.048 8.154c.276 0 .534.07.782.187.065.031.105.074.099.149-.062.71-.422 1.298-1.135 1.555-.392.142-.784.113-1.17-.032-.049-.019-.096-.041-.145-.06-.083-.031-.117-.088-.11-.178.028-.341.132-.656.339-.93.283-.378.66-.607 1.13-.677.069-.01.14-.01.21-.014z"/>
</svg>
