<svg width="32" height="23" viewBox="0 0 32 23" fill="none" xmlns="http://www.w3.org/2000/svg">
<path d="M26.7716 22.6168H2.9C2.26348 22.6168 1.65303 22.3639 1.20294 21.9139C0.752856 21.4638 0.5 20.8533 0.5 20.2168V3.4C0.5 2.76348 0.752856 2.15303 1.20294 1.70294C1.65303 1.25286 2.26348 1 2.9 1H26.7716C27.4081 1 28.0186 1.25286 28.4687 1.70294C28.9187 2.15303 29.1716 2.76348 29.1716 3.4V9.64H23.06C22.7417 9.64 22.4365 9.76643 22.2115 9.99147C21.9864 10.2165 21.86 10.5217 21.86 10.84V12.88C21.86 13.1983 21.9864 13.5035 22.2115 13.7285C22.4365 13.9536 22.7417 14.08 23.06 14.08H29.1716V20.2132C29.1721 20.5287 29.1103 20.8412 28.9899 21.1328C28.8695 21.4243 28.6928 21.6894 28.4699 21.9126C28.247 22.1358 27.9823 22.3129 27.6909 22.4338C27.3995 22.5546 27.0871 22.6168 26.7716 22.6168ZM2.9 2.2C2.58174 2.2 2.27652 2.32643 2.05147 2.55147C1.82643 2.77652 1.7 3.08174 1.7 3.4V20.2168C1.7 20.5351 1.82643 20.8403 2.05147 21.0653C2.27652 21.2904 2.58174 21.4168 2.9 21.4168H26.7716C27.0899 21.4168 27.3951 21.2904 27.6201 21.0653C27.8452 20.8403 27.9716 20.5351 27.9716 20.2168V15.2884H23.06C22.7448 15.2884 22.4327 15.2263 22.1416 15.1057C21.8504 14.9851 21.5858 14.8083 21.3629 14.5855C21.1401 14.3626 20.9633 14.098 20.8427 13.8068C20.7221 13.5157 20.66 13.2036 20.66 12.8884V10.8484C20.66 10.2119 20.9129 9.60143 21.3629 9.15135C21.813 8.70126 22.4235 8.4484 23.06 8.4484H27.9716V3.4084C27.9716 3.09014 27.8452 2.78492 27.6201 2.55987C27.3951 2.33483 27.0899 2.2084 26.7716 2.2084L2.9 2.2Z" fill="#04565A" stroke="#04565A" stroke-width="0.5"/>
<path d="M29.1802 15.2882H23.0602C22.745 15.2882 22.4329 15.2262 22.1417 15.1055C21.8505 14.9849 21.586 14.8082 21.3631 14.5853C21.1402 14.3624 20.9635 14.0979 20.8428 13.8067C20.7222 13.5155 20.6602 13.2034 20.6602 12.8882V10.8482C20.6602 10.2117 20.913 9.60127 21.3631 9.15118C21.8132 8.7011 22.4236 8.44824 23.0602 8.44824H29.1802C29.8167 8.44824 30.4271 8.7011 30.8772 9.15118C31.3273 9.60127 31.5802 10.2117 31.5802 10.8482V12.8882C31.5802 13.2034 31.5181 13.5155 31.3975 13.8067C31.2769 14.0979 31.1001 14.3624 30.8772 14.5853C30.6544 14.8082 30.3898 14.9849 30.0986 15.1055C29.8074 15.2262 29.4953 15.2882 29.1802 15.2882ZM23.0602 9.64824C22.7419 9.64824 22.4367 9.77467 22.2116 9.99971C21.9866 10.2248 21.8602 10.53 21.8602 10.8482V12.8882C21.8602 13.0458 21.8912 13.2019 21.9515 13.3475C22.0118 13.493 22.1002 13.6253 22.2116 13.7368C22.3231 13.8482 22.4553 13.9366 22.6009 13.9969C22.7465 14.0572 22.9026 14.0882 23.0602 14.0882H29.1802C29.3377 14.0882 29.4938 14.0572 29.6394 13.9969C29.785 13.9366 29.9173 13.8482 30.0287 13.7368C30.1401 13.6253 30.2285 13.493 30.2888 13.3475C30.3491 13.2019 30.3802 13.0458 30.3802 12.8882V10.8482C30.3802 10.53 30.2537 10.2248 30.0287 9.99971C29.8036 9.77467 29.4984 9.64824 29.1802 9.64824H23.0602Z" fill="#04565A" stroke="#04565A" stroke-width="0.5"/>
<path d="M9.02642 9.02302L8.54505 9.00862C8.52397 9.00796 8.50324 9.00314 8.48402 8.99446C8.46481 8.98578 8.44749 8.97339 8.43307 8.95801C8.41864 8.94263 8.40739 8.92456 8.39996 8.90483C8.39252 8.8851 8.38905 8.86409 8.38973 8.84302V8.83376C8.45423 8.1394 8.77543 7.49407 9.29053 7.02399C9.80563 6.55391 10.4776 6.29289 11.1749 6.29199C11.8723 6.29109 12.5449 6.55037 13.0612 7.01912C13.5775 7.48787 13.9004 8.13237 13.9666 8.82656C13.9704 8.8691 13.9571 8.91137 13.9297 8.94414C13.9023 8.97691 13.8631 8.9975 13.8206 9.00142H13.8113L13.331 9.01788C13.2904 9.01909 13.2508 9.00476 13.2204 8.9778C13.1901 8.95085 13.1711 8.91331 13.1674 8.87285C13.115 8.38184 12.8828 7.92758 12.5156 7.59747C12.1483 7.26737 11.672 7.08474 11.1782 7.08474C10.6844 7.08474 10.208 7.26737 9.8408 7.59747C9.47356 7.92758 9.24138 8.38184 9.18893 8.87285C9.1868 8.91414 9.16861 8.95296 9.13824 8.98102C9.10788 9.00907 9.06775 9.02415 9.02642 9.02302Z" fill="#04565A" stroke="#04565A" stroke-width="0.5"/>
<path d="M6.93013 12.2698C6.91605 12.2629 6.90434 12.252 6.89646 12.2385C6.88859 12.2249 6.88491 12.2093 6.8859 12.1937C6.89713 11.9936 6.95831 11.7994 7.06384 11.629C7.21083 11.3947 7.44157 11.2253 7.7091 11.1552C7.97663 11.085 8.26083 11.1195 8.50385 11.2515C8.51792 11.2587 8.52959 11.2698 8.53745 11.2835C8.5453 11.2972 8.549 11.3129 8.54807 11.3287C8.53352 11.5005 8.4875 11.6682 8.4123 11.8234C8.22819 12.1927 7.65733 12.6195 6.93013 12.2698Z" fill="#04565A"/>
<path d="M9.39396 13.3436C9.38288 13.3547 9.36883 13.3624 9.3535 13.3657C9.33817 13.369 9.32222 13.3677 9.30756 13.3622C9.12074 13.2881 8.95556 13.1681 8.82722 13.0135C8.65228 12.7994 8.56552 12.5268 8.58463 12.251C8.60374 11.9752 8.72728 11.7171 8.93008 11.5292C8.94136 11.5181 8.95565 11.5105 8.97118 11.5074C8.98671 11.5043 9.00282 11.5058 9.01751 11.5118C9.17616 11.5795 9.32063 11.6765 9.44334 11.7977C9.73339 12.0888 9.95762 12.7666 9.39396 13.3436Z" fill="#04565A"/>
<path d="M17.0088 12.4333C16.9721 11.8628 16.7618 11.3171 16.406 10.8697C16.0503 10.4222 15.5661 10.0943 15.0185 9.93007C14.471 9.7658 13.8863 9.77302 13.3429 9.95075C12.7996 10.1285 12.3237 10.4682 11.979 10.9243L9.71618 13.829C9.46828 14.1477 9.12948 14.3835 8.74461 14.5054C8.35974 14.6272 7.94693 14.6293 7.56083 14.5115C7.17472 14.3936 6.8335 14.1612 6.58233 13.8452C6.33116 13.5291 6.18187 13.1443 6.15422 12.7415C6.12656 12.3388 6.22185 11.9371 6.42747 11.5897C6.63309 11.2423 6.93935 10.9655 7.30572 10.7959C7.6721 10.6264 8.08132 10.5721 8.47923 10.6402C8.87715 10.7083 9.24501 10.8956 9.53413 11.1774C9.56356 11.2045 9.60211 11.2195 9.64213 11.2195C9.68214 11.2195 9.72069 11.2045 9.75013 11.1774L10.1101 10.8575C10.126 10.8435 10.1389 10.8265 10.1482 10.8074C10.1575 10.7884 10.1629 10.7677 10.1641 10.7466C10.1654 10.7255 10.1624 10.7043 10.1554 10.6843C10.1485 10.6643 10.1376 10.6459 10.1235 10.6302L10.1173 10.623C9.71054 10.2185 9.18939 9.94875 8.62432 9.85009C8.05924 9.75143 7.4775 9.82865 6.95774 10.0713C6.43798 10.314 6.00526 10.7104 5.71808 11.207C5.4309 11.7035 5.30311 12.2763 5.35198 12.8478C5.40086 13.4193 5.62405 13.9621 5.99137 14.4027C6.35869 14.8433 6.85244 15.1604 7.40586 15.3113C7.95928 15.4622 8.54568 15.4395 9.0858 15.2464C9.62592 15.0532 10.0937 14.6988 10.4259 14.2312C10.4712 14.1674 10.5154 14.1037 10.5637 14.0419L12.6003 11.4253V11.4201C12.8043 11.1462 13.075 10.9291 13.3867 10.7895C13.6984 10.6498 14.0406 10.5924 14.3808 10.6226C14.721 10.6528 15.0478 10.7696 15.3301 10.9619C15.6123 11.1543 15.8405 11.4157 15.9931 11.7212C16.1456 12.0268 16.2174 12.3664 16.2014 12.7075C16.1855 13.0487 16.0825 13.3801 15.9021 13.6701C15.7218 13.9601 15.4702 14.1992 15.1713 14.3644C14.8724 14.5296 14.5361 14.6154 14.1946 14.6138C13.6994 14.6139 13.2222 14.4282 12.8574 14.0934C12.8281 14.066 12.7895 14.0508 12.7494 14.0508C12.7094 14.0508 12.6708 14.066 12.6414 14.0934L12.303 14.4297C12.273 14.4603 12.2561 14.5015 12.2561 14.5444C12.2561 14.5873 12.273 14.6285 12.303 14.6591H12.3082C12.8239 15.1445 13.5059 15.4139 14.2141 15.412C14.5968 15.4116 14.9753 15.3329 15.3264 15.1807C15.6775 15.0285 15.9937 14.806 16.2555 14.5269C16.5173 14.2478 16.7192 13.9181 16.8488 13.558C16.9783 13.1979 17.0328 12.8152 17.0088 12.4333Z" fill="#04565A" stroke="#04565A" stroke-width="0.5"/>
<path d="M9.6692 18.4681H8.87C8.85355 18.4683 8.83745 18.4633 8.82394 18.4539C8.81044 18.4445 8.80021 18.4311 8.79467 18.4156C8.78912 18.4001 8.78855 18.3833 8.79302 18.3674C8.79748 18.3516 8.80678 18.3375 8.81961 18.3272C10.1999 17.1516 10.3625 15.8916 10.3769 15.4616C10.3782 15.4205 10.3955 15.3815 10.425 15.3529C10.4546 15.3243 10.4941 15.3083 10.5353 15.3083H11.0187C11.0608 15.3083 11.1012 15.325 11.1311 15.3547C11.1609 15.3844 11.1778 15.4246 11.1781 15.4668C11.1781 15.4668 11.1781 15.474 11.1781 15.4781C11.0845 16.5967 10.5882 17.6434 9.78132 18.4239C9.75117 18.4527 9.71092 18.4686 9.6692 18.4681Z" fill="#04565A" stroke="#04565A" stroke-width="0.5"/>
<path d="M12.3509 18.4178C12.099 18.0951 11.8759 17.751 11.6843 17.3892C11.6731 17.3688 11.6663 17.3462 11.6645 17.323C11.6628 17.2997 11.666 17.2764 11.6741 17.2545L11.9302 16.5221C11.9337 16.5122 11.9392 16.5031 11.9463 16.4952C11.9534 16.4874 11.962 16.4811 11.9716 16.4766C11.9811 16.4721 11.9915 16.4696 12.002 16.4691C12.0126 16.4686 12.0231 16.4702 12.033 16.4738C12.0508 16.48 12.0658 16.4924 12.0752 16.5088C12.4309 17.1476 12.8389 17.7558 13.2951 18.3273C13.3017 18.3354 13.3067 18.3448 13.3096 18.3549C13.3126 18.3649 13.3135 18.3755 13.3124 18.3859C13.3112 18.3964 13.308 18.4065 13.3029 18.4156C13.2978 18.4248 13.291 18.4329 13.2828 18.4394C13.2695 18.4505 13.2528 18.4567 13.2354 18.4569L12.4774 18.4754C12.4533 18.4758 12.4295 18.4709 12.4076 18.4609C12.3857 18.4509 12.3663 18.4362 12.3509 18.4178Z" fill="#04565A" stroke="#04565A" stroke-width="0.5"/>
</svg>
