<svg width="14" height="11" viewBox="0 0 14 11" fill="none" xmlns="http://www.w3.org/2000/svg">
<path d="M7.91218 1.9756C8.5082 2.34535 8.92614 2.97105 9.00223 3.69735C9.24531 3.80972 9.51509 3.87434 9.80111 3.87434C10.8453 3.87434 11.6917 3.03695 11.6917 2.00393C11.6917 0.970757 10.8453 0.133362 9.80111 0.133362C8.76688 0.13368 7.92794 0.956114 7.91218 1.9756ZM6.67364 5.80556C7.71784 5.80556 8.56418 4.968 8.56418 3.93499C8.56418 2.90197 7.71768 2.06458 6.67364 2.06458C5.62959 2.06458 4.78277 2.90213 4.78277 3.93515C4.78277 4.96816 5.62959 5.80556 6.67364 5.80556ZM7.47557 5.93305H5.87138C4.53664 5.93305 3.45076 7.00761 3.45076 8.32825V10.2693L3.45575 10.2997L3.59088 10.3416C4.86465 10.7354 5.97128 10.8667 6.88212 10.8667C8.66119 10.8667 9.69237 10.3648 9.75591 10.3328L9.88219 10.2696H9.89571V8.32825C9.89619 7.00761 8.81031 5.93305 7.47557 5.93305ZM10.6034 4.002H9.01156C8.99435 4.63215 8.72248 5.19959 8.29247 5.60771C9.47889 5.95677 10.3469 7.04533 10.3469 8.33111V8.92927C11.9186 8.87229 12.8243 8.43155 12.884 8.40194L13.0103 8.33859H13.0238V6.39687C13.0238 5.0764 11.938 4.002 10.6034 4.002ZM3.35633 3.87466C3.72617 3.87466 4.07028 3.76786 4.36177 3.58593C4.45443 2.98792 4.77843 2.46537 5.24125 2.10946C5.24318 2.07444 5.24656 2.03975 5.24656 2.00441C5.24656 0.971235 4.40006 0.133839 3.35633 0.133839C2.31196 0.133839 1.46579 0.971235 1.46579 2.00441C1.46579 3.03711 2.31196 3.87466 3.35633 3.87466ZM5.05416 5.60771C4.62624 5.20166 4.35534 4.63725 4.33555 4.01091C4.27651 4.00661 4.21812 4.002 4.15795 4.002H2.55391C1.21917 4.002 0.133301 5.0764 0.133301 6.39687V8.33827L0.138288 8.3682L0.273419 8.41038C1.29527 8.72601 2.20724 8.8715 2.99936 8.91734V8.33111C2.99968 7.04533 3.86742 5.95709 5.05416 5.60771Z" fill="white"/>
</svg>
