<svg xmlns="http://www.w3.org/2000/svg" width="12" height="12" fill="none" viewBox="0 0 12 12">
    <path fill="#04565A" d="M.661 12c-.091 0-.182-.02-.265-.056-.084-.037-.159-.091-.22-.159-.063-.067-.11-.146-.14-.233-.03-.086-.042-.179-.033-.27l.16-1.774 7.453-7.452 2.33 2.329-7.451 7.451-1.774.161-.06.003zm9.75-8.08L8.081 1.59 9.479.193c.06-.061.133-.11.213-.143.08-.033.166-.05.252-.05.087 0 .173.017.253.05.08.033.152.082.213.143l1.397 1.397c.061.061.11.134.143.214.033.08.05.166.05.252 0 .087-.017.172-.05.252-.033.08-.082.153-.143.214L10.41 3.918v.001z"/>
</svg>
