<svg xmlns="http://www.w3.org/2000/svg" width="20" height="20" fill="none" viewBox="0 0 20 20">
    <path fill="#CB3C3C" d="M10 0C8.022 0 6.089.586 4.444 1.685 2.8 2.785 1.518 4.345.761 6.173.004 8-.194 10.011.192 11.951c.386 1.94 1.338 3.721 2.737 5.12 1.398 1.399 3.18 2.351 5.12 2.737 1.94.386 3.95.188 5.778-.57 1.827-.756 3.389-2.038 4.488-3.682C19.413 13.91 20 11.978 20 10c-.003-2.651-1.058-5.193-2.932-7.068C15.193 1.058 12.65.003 10 0zm-.77 5.385c0-.204.082-.4.226-.544.144-.145.34-.226.544-.226.204 0 .4.081.544.226.144.144.225.34.225.544v5.384c0 .204-.08.4-.225.544-.144.144-.34.226-.544.226-.204 0-.4-.082-.544-.226-.144-.144-.225-.34-.225-.544V5.385zm.77 10c-.228 0-.451-.068-.641-.195s-.338-.307-.425-.518c-.087-.21-.11-.443-.066-.666.045-.224.155-.43.316-.591.161-.161.367-.271.59-.316.225-.044.457-.022.668.066.21.087.39.235.517.425s.195.413.195.64c0 .307-.122.6-.338.817-.216.216-.51.338-.816.338z"/>
</svg>
