<svg xmlns="http://www.w3.org/2000/svg" width="16" height="16" fill="none" viewBox="0 0 16 16">
    <path fill="#04565A" d="M8 4.667c.133 0 .26.052.354.146.094.094.146.221.146.354V7.5h2.334c.132 0 .26.053.353.146.094.094.147.221.147.354 0 .133-.053.26-.147.354-.094.093-.22.146-.353.146H8.5v2.333c0 .133-.052.26-.146.354-.094.094-.221.146-.354.146-.132 0-.26-.052-.353-.146-.094-.094-.147-.221-.147-.354V8.5H5.167c-.133 0-.26-.053-.354-.146-.093-.094-.146-.221-.146-.354 0-.133.053-.26.146-.354.094-.093.221-.146.354-.146H7.5V5.167c0-.133.053-.26.147-.354.094-.094.22-.146.353-.146z"/>
    <path fill="#04565A" d="M2 4.167c0-.575.228-1.126.635-1.532C3.04 2.228 3.592 2 4.167 2h7.666c.575 0 1.126.228 1.532.635.407.406.635.957.635 1.532v7.666c0 .575-.228 1.126-.635 1.532-.406.407-.957.635-1.532.635H4.167c-.575 0-1.126-.228-1.532-.635C2.228 12.96 2 12.408 2 11.833V4.167zM4.167 3c-.31 0-.606.123-.825.342-.22.219-.342.515-.342.825v7.666C3 12.477 3.523 13 4.167 13h7.666c.31 0 .607-.123.825-.342.22-.218.342-.515.342-.825V4.167c0-.31-.123-.606-.342-.825-.218-.22-.515-.342-.825-.342H4.167z"/>
</svg>
