<svg width="33" height="20" viewBox="0 0 33 20" fill="none" xmlns="http://www.w3.org/2000/svg">
<path d="M30.566 20H1.50943C0.660377 20 0 19.3396 0 18.4906V1.50943C0 0.660377 0.660377 0 1.50943 0H30.566C31.4151 0 32.0755 0.660377 32.0755 1.50943V18.4906C32.0755 19.3396 31.4151 20 30.566 20Z" fill="#00B14F"/>
<path d="M10.6604 9.8113V10.0943C10.6604 11.7924 11.3208 13.3019 12.4529 14.4339C13.5849 15.566 15.0944 16.2264 16.6981 16.2264C18.0189 16.2264 19.151 15.9434 20.1887 15.3773C21.0378 14.9056 21.3208 14.4339 21.4151 14.3396V9.24526H16.5095V10.1887H20.4717V14.0566C20 14.5283 18.9623 15.283 16.7925 15.283C15.3774 15.283 14.151 14.717 13.1132 13.7736C12.1698 12.8302 11.6038 11.5094 11.6038 10.0943V9.8113C11.6038 8.49054 12.1698 7.16979 13.2076 6.22639C14.2453 5.18865 15.6604 4.71696 17.0755 4.71696C18.3962 4.71696 19.3396 4.90563 20.0944 5.37733V4.24526C19.434 3.96224 18.4906 3.77356 17.1698 3.77356C13.6793 3.77356 10.6604 6.50941 10.6604 9.8113Z" fill="white"/>
<path d="M20.1887 7.16989V6.03782C19.3397 5.56612 18.3963 5.37744 17.1698 5.37744C15.9434 5.37744 14.717 5.84914 13.7736 6.6982C12.8302 7.54725 12.3585 8.67933 12.3585 9.8114V10.0944C12.3585 12.5473 14.3397 14.5284 16.7925 14.5284C18.7736 14.5284 19.5283 13.868 19.8113 13.6793V10.8491H16.6038V11.7925H18.868V13.2076C18.5849 13.302 17.9246 13.585 16.7925 13.585C15.8491 13.585 15 13.2076 14.3397 12.5473C13.6793 11.8869 13.3019 11.0378 13.3019 10.0944V9.8114C13.3019 7.92461 15.0944 6.32084 17.1698 6.32084C18.5849 6.32084 19.5283 6.50952 20.1887 7.16989Z" fill="white"/>
</svg>
