<svg width="20" height="20" viewBox="0 0 20 20" fill="none" xmlns="http://www.w3.org/2000/svg">
<path d="M17.4999 10.0007C17.4999 5.86008 14.1405 2.5007 9.99987 2.5007C5.85925 2.5007 2.49988 5.86008 2.49988 10.0007C2.49988 14.1413 5.85925 17.5007 9.99987 17.5007C14.1405 17.5007 17.4999 14.1413 17.4999 10.0007Z" stroke="#CB3C3C" stroke-width="1.5" stroke-miterlimit="10"/>
<path d="M9.77574 6.48738L9.99996 11.251L10.2238 6.48738C10.2252 6.45692 10.2203 6.42651 10.2096 6.39799C10.1988 6.36947 10.1823 6.34345 10.1611 6.32151C10.14 6.29958 10.1146 6.28219 10.0864 6.27041C10.0583 6.25863 10.0281 6.2527 9.99762 6.253V6.253C9.9675 6.25329 9.93774 6.25964 9.91013 6.27167C9.88252 6.28371 9.85761 6.30119 9.8369 6.32306C9.81619 6.34494 9.80011 6.37076 9.7896 6.399C9.77909 6.42723 9.77438 6.45728 9.77574 6.48738V6.48738Z" stroke="#CB3C3C" stroke-width="1.5" stroke-linecap="round" stroke-linejoin="round"/>
<path d="M9.99988 14.3697C9.84536 14.3697 9.69432 14.3239 9.56584 14.2381C9.43736 14.1522 9.33723 14.0302 9.2781 13.8874C9.21897 13.7447 9.20349 13.5876 9.23364 13.4361C9.26378 13.2845 9.33819 13.1453 9.44745 13.036C9.55671 12.9268 9.69592 12.8524 9.84746 12.8222C9.99901 12.7921 10.1561 12.8076 10.2988 12.8667C10.4416 12.9258 10.5636 13.026 10.6495 13.1544C10.7353 13.2829 10.7811 13.434 10.7811 13.5885C10.7811 13.7957 10.6988 13.9944 10.5523 14.1409C10.4058 14.2874 10.2071 14.3697 9.99988 14.3697Z" fill="#CB3C3C"/>
</svg>
