<svg width="46" height="28" viewBox="0 0 46 28" fill="none" xmlns="http://www.w3.org/2000/svg">
<path d="M29.5215 2.99219H17.3505V25.0057H29.5215V2.99219Z" fill="#FF5F00"/>
<path d="M18.1337 14C18.1317 11.8799 18.6091 9.78719 19.5295 7.88025C20.4499 5.9733 21.7894 4.30212 23.4464 2.9932C21.3944 1.36984 18.93 0.360297 16.335 0.0799577C13.7399 -0.200381 11.1188 0.259786 8.77127 1.40788C6.42375 2.55598 4.44452 4.34568 3.05981 6.57241C1.67511 8.79914 0.940796 11.3731 0.940796 14C0.940796 16.6269 1.67511 19.2008 3.05981 21.4275C4.44452 23.6543 6.42375 25.444 8.77127 26.5921C11.1188 27.7402 13.7399 28.2003 16.335 27.92C18.93 27.6397 21.3944 26.6301 23.4464 25.0068C21.7894 23.6978 20.45 22.0266 19.5295 20.1197C18.6091 18.2128 18.1318 16.12 18.1337 14Z" fill="#EB001B"/>
<path d="M45.9408 14C45.9409 16.6269 45.2067 19.2008 43.822 21.4275C42.4374 23.6542 40.4582 25.4439 38.1108 26.592C35.7633 27.7401 33.1422 28.2003 30.5472 27.92C27.9522 27.6397 25.4878 26.6301 23.4359 25.0068C25.0915 23.6965 26.4298 22.0251 27.3501 20.1184C28.2704 18.2118 28.7486 16.1197 28.7486 14C28.7486 11.8802 28.2704 9.78818 27.3501 7.88154C26.4298 5.97489 25.0915 4.30344 23.4359 2.9932C25.4878 1.36983 27.9522 0.36029 30.5472 0.0799541C33.1422 -0.200381 35.7633 0.259806 38.1108 1.40792C40.4582 2.55603 42.4374 4.34573 43.822 6.57246C45.2067 8.79919 45.9409 11.3731 45.9408 14Z" fill="#F79E1B"/>
<path d="M44.6334 22.6762V22.2255H44.814V22.1337H44.3541V22.2255H44.5348V22.6762H44.6334ZM45.5261 22.6762V22.1328H45.3852L45.2231 22.5066L45.0609 22.1328H44.9199V22.6762H45.0194V22.2663L45.1714 22.6197H45.2746L45.4267 22.2654V22.6762H45.5261Z" fill="#F79E1B"/>
</svg>
