<svg xmlns="http://www.w3.org/2000/svg" width="24" height="24" fill="none" viewBox="0 0 24 24">
    <path fill="#04565A" d="M12 2c3.31 0 6 2.66 6 5.95C18 12.41 12 19 12 19S6 12.41 6 7.95C6 4.66 8.69 2 12 2zm0 4c-.53 0-1.04.21-1.414.586C10.21 6.96 10 7.47 10 8c0 .53.21 1.04.586 1.414.375.375.884.586 1.414.586.53 0 1.04-.21 1.414-.586C13.79 9.04 14 8.53 14 8c0-.53-.21-1.04-.586-1.414C13.04 6.21 12.53 6 12 6zm8 13c0 2.21-3.58 4-8 4s-8-1.79-8-4c0-1.29 1.22-2.44 3.11-3.17l.64.91C6.67 17.19 6 17.81 6 18.5c0 1.38 2.69 2.5 6 2.5s6-1.12 6-2.5c0-.69-.67-1.31-1.75-1.76l.64-.91C18.78 16.56 20 17.71 20 19z"/>
</svg>
