<svg xmlns="http://www.w3.org/2000/svg" width="22" height="22" fill="none" viewBox="0 0 22 22">
    <path fill="#fff" d="M19.97 2.03c-2.5-2.5-6.194-2.61-8.725-.774-1.192.865-2.029 2.086-2.418 3.53-.118.436-.218.827-.315 1.206-.567 2.222-.852 3.337-2.648 5.133l-.748.748 1.08 1.08-1.888 1.89c-.418-.302-.929-.466-1.474-.466-1.742 0-3.149 1.65-2.773 3.379.188.862.794 1.541 1.623 1.818.354.118.625.389.743.743.122.366.321.688.592.96 1.04 1.04 2.782.943 3.84-.193.914-.98.997-2.409.31-3.378l1.89-1.89 1.068 1.069.665-.665c2.134-2.135 3.348-2.202 6.45-3.053 2.24-.616 3.934-2.331 4.531-4.59.622-2.348-.052-4.796-1.803-6.547zM8.144 14.9l-2.857 2.858.586.45c.337.257.432.6.452.844.073.876-.677 1.654-1.529 1.654-.549 0-.985-.328-1.141-.799-.249-.743-.818-1.313-1.561-1.56-.398-.133-.678-.449-.768-.866-.108-.496.069-1.017.473-1.393.582-.542 1.525-.587 2.002.048l.447.597 2.864-2.864L8.144 14.9zm8.755-2.982c-2.999.824-4.512.976-6.77 3.14-.424-.426-2.923-2.925-3.184-3.186 2.21-2.274 2.322-3.754 3.13-6.749.619-2.29 2.657-3.829 5.072-3.829 1.456 0 2.843.586 3.908 1.651 2.985 2.985 1.712 7.911-2.156 8.973z"/>
</svg>
