<svg width="200" height="200" viewBox="0 0 200 200" fill="none" xmlns="http://www.w3.org/2000/svg">
<path d="M46.2241 172.584C46.2241 172.584 73.8801 191.784 134.452 161.728C195.024 131.672 187.6 79.328 184.28 70.068C181.228 61.548 169.2 20.696 95.8241 21.384C22.4481 22.072 3.2521 58.756 18.3361 93.384C30.5921 121.52 31.3841 141.884 31.2481 148.532C31.1461 152.139 31.8114 155.726 33.2001 159.056C35.7256 165.016 40.3637 169.834 46.2241 172.584Z" fill="#F8FBFF"/>
<path d="M126.944 55.696H73.0559C71.4646 55.696 69.9385 56.3281 68.8133 57.4533C67.6881 58.5786 67.0559 60.1047 67.0559 61.696V133.956C67.0559 135.547 67.6881 137.073 68.8133 138.199C69.9385 139.324 71.4646 139.956 73.0559 139.956H126.944C128.535 139.956 130.061 139.324 131.187 138.199C132.312 137.073 132.944 135.547 132.944 133.956V61.696C132.944 60.1047 132.312 58.5786 131.187 57.4533C130.061 56.3281 128.535 55.696 126.944 55.696ZM130.944 133.956C130.944 135.017 130.522 136.034 129.772 136.784C129.022 137.535 128.005 137.956 126.944 137.956H73.0559C71.995 137.956 70.9776 137.535 70.2275 136.784C69.4773 136.034 69.0559 135.017 69.0559 133.956V127.304C99.3359 138.468 123.952 116.748 130.944 109.64V133.956Z" fill="#F4F6F8"/>
<path d="M126.944 53.696H73.0559C70.9342 53.696 68.8993 54.5388 67.3991 56.0391C65.8988 57.5394 65.0559 59.5743 65.0559 61.696V133.956C65.0559 136.078 65.8988 138.113 67.3991 139.613C68.8993 141.113 70.9342 141.956 73.0559 141.956H126.944C129.066 141.956 131.1 141.113 132.601 139.613C134.101 138.113 134.944 136.078 134.944 133.956V61.696C134.944 59.5743 134.101 57.5394 132.601 56.0391C131.1 54.5388 129.066 53.696 126.944 53.696ZM130.944 133.956C130.944 135.017 130.522 136.034 129.772 136.784C129.022 137.535 128.005 137.956 126.944 137.956H73.0559C71.995 137.956 70.9776 137.535 70.2275 136.784C69.4773 136.034 69.0559 135.017 69.0559 133.956V61.696C69.0559 60.6351 69.4773 59.6177 70.2275 58.8676C70.9776 58.1174 71.995 57.696 73.0559 57.696H126.944C128.005 57.696 129.022 58.1174 129.772 58.8676C130.522 59.6177 130.944 60.6351 130.944 61.696V133.956Z" fill="#A2ACB5"/>
<path d="M118.944 82.7H98.2561C97.7257 82.7 97.217 82.4893 96.8419 82.1142C96.4668 81.7392 96.2561 81.2304 96.2561 80.7C96.2561 80.1696 96.4668 79.6609 96.8419 79.2858C97.217 78.9107 97.7257 78.7 98.2561 78.7H118.944C119.475 78.7 119.983 78.9107 120.358 79.2858C120.733 79.6609 120.944 80.1696 120.944 80.7C120.944 81.2304 120.733 81.7392 120.358 82.1142C119.983 82.4893 119.475 82.7 118.944 82.7Z" fill="#A2ACB5"/>
<path d="M87.8559 75.7H80.2559C79.5932 75.7 79.0559 76.2373 79.0559 76.9V84.5C79.0559 85.1627 79.5932 85.7 80.2559 85.7H87.8559C88.5186 85.7 89.0559 85.1627 89.0559 84.5V76.9C89.0559 76.2373 88.5186 75.7 87.8559 75.7Z" fill="#F4F6F8"/>
<path d="M87.8559 87.7H80.2559C79.4072 87.7 78.5933 87.3629 77.9932 86.7628C77.393 86.1626 77.0559 85.3487 77.0559 84.5V76.9C77.0559 76.0513 77.393 75.2374 77.9932 74.6373C78.5933 74.0372 79.4072 73.7 80.2559 73.7H87.8559C88.7046 73.7 89.5185 74.0372 90.1187 74.6373C90.7188 75.2374 91.0559 76.0513 91.0559 76.9V84.5C91.0559 85.3487 90.7188 86.1626 90.1187 86.7628C89.5185 87.3629 88.7046 87.7 87.8559 87.7ZM81.0559 83.7H87.0559V77.7H81.0559V83.7Z" fill="#A2ACB5"/>
<path d="M118.944 104.7H98.2561C97.7257 104.7 97.217 104.489 96.8419 104.114C96.4668 103.739 96.2561 103.23 96.2561 102.7C96.2561 102.17 96.4668 101.661 96.8419 101.286C97.217 100.911 97.7257 100.7 98.2561 100.7H118.944C119.475 100.7 119.983 100.911 120.358 101.286C120.733 101.661 120.944 102.17 120.944 102.7C120.944 103.23 120.733 103.739 120.358 104.114C119.983 104.489 119.475 104.7 118.944 104.7Z" fill="#A2ACB5"/>
<path d="M87.8559 97.7H80.2559C79.5932 97.7 79.0559 98.2373 79.0559 98.9V106.5C79.0559 107.163 79.5932 107.7 80.2559 107.7H87.8559C88.5186 107.7 89.0559 107.163 89.0559 106.5V98.9C89.0559 98.2373 88.5186 97.7 87.8559 97.7Z" fill="#F4F6F8"/>
<path d="M87.8559 109.7H80.2559C79.4072 109.7 78.5933 109.363 77.9932 108.763C77.393 108.163 77.0559 107.349 77.0559 106.5V98.9C77.0559 98.0513 77.393 97.2374 77.9932 96.6373C78.5933 96.0372 79.4072 95.7 80.2559 95.7H87.8559C88.7046 95.7 89.5185 96.0372 90.1187 96.6373C90.7188 97.2374 91.0559 98.0513 91.0559 98.9V106.5C91.0559 107.349 90.7188 108.163 90.1187 108.763C89.5185 109.363 88.7046 109.7 87.8559 109.7ZM81.0559 105.7H87.0559V99.7H81.0559V105.7Z" fill="#A2ACB5"/>
<path d="M130.944 109.64V133.956C130.944 135.017 130.522 136.034 129.772 136.784C129.022 137.535 128.005 137.956 126.944 137.956H73.0559C71.995 137.956 70.9776 137.535 70.2275 136.784C69.4773 136.034 69.0559 135.017 69.0559 133.956V127.304C99.3359 138.468 123.952 116.748 130.944 109.64Z" fill="#E1E4E6"/>
<path d="M36.68 83.04C36.4698 83.0402 36.2617 82.9989 36.0674 82.9186C35.8732 82.8383 35.6967 82.7205 35.548 82.572L33.148 80.172L30.748 82.572C30.601 82.7269 30.4245 82.8509 30.2289 82.9366C30.0333 83.0223 29.8225 83.0679 29.6089 83.0708C29.3954 83.0737 29.1834 83.0339 28.9855 82.9536C28.7877 82.8733 28.6078 82.7542 28.4567 82.6033C28.3055 82.4525 28.1861 82.2729 28.1055 82.0751C28.0249 81.8774 27.9846 81.6655 27.9872 81.4519C27.9897 81.2384 28.035 81.0275 28.1203 80.8317C28.2056 80.6359 28.3293 80.4592 28.484 80.312L32 76.764C32.1486 76.6152 32.325 76.4972 32.5193 76.4167C32.7135 76.3362 32.9217 76.2947 33.132 76.2947C33.3422 76.2947 33.5505 76.3362 33.7447 76.4167C33.9389 76.4972 34.1154 76.6152 34.264 76.764L37.808 80.312C38.0304 80.5357 38.1817 80.8202 38.2429 81.1297C38.3041 81.4392 38.2724 81.7599 38.1519 82.0514C38.0313 82.3429 37.8273 82.5923 37.5654 82.7682C37.3035 82.9441 36.9955 83.0387 36.68 83.04Z" fill="#A2ACB5"/>
<path d="M172.184 95.644C171.974 95.6441 171.766 95.6029 171.571 95.5226C171.377 95.4423 171.201 95.3245 171.052 95.176L168.652 92.776L166.252 95.176C165.949 95.4631 165.546 95.6206 165.129 95.6149C164.712 95.6092 164.313 95.4407 164.019 95.1454C163.724 94.8501 163.556 94.4513 163.551 94.0341C163.546 93.6169 163.704 93.2142 163.992 92.912L167.536 89.364C167.685 89.2152 167.861 89.0972 168.055 89.0167C168.25 88.9362 168.458 88.8947 168.668 88.8947C168.878 88.8947 169.087 88.9362 169.281 89.0167C169.475 89.0972 169.651 89.2152 169.8 89.364L173.348 92.912C173.572 93.1357 173.725 93.421 173.787 93.7315C173.848 94.042 173.817 94.3639 173.695 94.6564C173.574 94.949 173.369 95.1989 173.106 95.3747C172.842 95.5505 172.533 95.6442 172.216 95.644H172.184Z" fill="#A2ACB5"/>
<path d="M42.9439 96.636C43.3395 96.636 43.7261 96.7533 44.055 96.973C44.3839 97.1928 44.6403 97.5052 44.7917 97.8706C44.943 98.2361 44.9826 98.6382 44.9055 99.0262C44.8283 99.4141 44.6378 99.7705 44.3581 100.05C44.0784 100.33 43.722 100.52 43.3341 100.598C42.9461 100.675 42.544 100.635 42.1785 100.484C41.8131 100.332 41.5007 100.076 41.281 99.7471C41.0612 99.4182 40.9439 99.0315 40.9439 98.636C40.9439 98.1055 41.1546 97.5968 41.5297 97.2218C41.9048 96.8467 42.4135 96.636 42.9439 96.636ZM42.9439 93.436C41.9154 93.436 40.9101 93.741 40.0549 94.3123C39.1998 94.8837 38.5333 95.6958 38.1397 96.646C37.7461 97.5962 37.6432 98.6418 37.8438 99.6505C38.0445 100.659 38.5397 101.586 39.2669 102.313C39.9942 103.04 40.9207 103.535 41.9294 103.736C42.9381 103.937 43.9837 103.834 44.9339 103.44C45.884 103.047 46.6962 102.38 47.2675 101.525C47.8389 100.67 48.1439 99.6644 48.1439 98.636C48.1439 97.2569 47.596 95.9342 46.6209 94.959C45.6457 93.9838 44.323 93.436 42.9439 93.436Z" fill="#A2ACB5"/>
<path d="M98.2559 169.628C98.6515 169.628 99.0382 169.745 99.3671 169.965C99.696 170.185 99.9523 170.497 100.104 170.863C100.255 171.228 100.295 171.63 100.217 172.018C100.14 172.406 99.9498 172.762 99.6701 173.042C99.3904 173.322 99.0341 173.512 98.6461 173.59C98.2581 173.667 97.856 173.627 97.4905 173.476C97.1251 173.324 96.8127 173.068 96.593 172.739C96.3732 172.41 96.2559 172.024 96.2559 171.628C96.2559 171.098 96.4666 170.589 96.8417 170.214C97.2168 169.839 97.7255 169.628 98.2559 169.628ZM98.2559 166.428C97.2275 166.428 96.2221 166.733 95.3669 167.304C94.5118 167.876 93.8453 168.688 93.4517 169.638C93.0582 170.588 92.9552 171.634 93.1558 172.642C93.3565 173.651 93.8517 174.578 94.579 175.305C95.3062 176.032 96.2327 176.527 97.2414 176.728C98.2501 176.929 99.2957 176.826 100.246 176.432C101.196 176.039 102.008 175.372 102.58 174.517C103.151 173.662 103.456 172.656 103.456 171.628C103.456 170.249 102.908 168.926 101.933 167.951C100.958 166.976 99.635 166.428 98.2559 166.428Z" fill="#A2ACB5"/>
<path d="M76.2559 162.88C76.6515 162.88 77.0382 162.997 77.3671 163.217C77.6959 163.437 77.9523 163.749 78.1037 164.115C78.255 164.48 78.2947 164.882 78.2175 165.27C78.1403 165.658 77.9498 166.014 77.6701 166.294C77.3904 166.574 77.0341 166.764 76.6461 166.842C76.2581 166.919 75.856 166.879 75.4905 166.728C75.1251 166.576 74.8127 166.32 74.593 165.991C74.3732 165.662 74.2559 165.276 74.2559 164.88C74.2559 164.35 74.4666 163.841 74.8417 163.466C75.2168 163.091 75.7255 162.88 76.2559 162.88ZM76.2559 159.68C75.2274 159.68 74.2221 159.985 73.3669 160.556C72.5118 161.128 71.8453 161.94 71.4517 162.89C71.0582 163.84 70.9552 164.886 71.1558 165.894C71.3565 166.903 71.8517 167.83 72.579 168.557C73.3062 169.284 74.2327 169.779 75.2414 169.98C76.2501 170.181 77.2957 170.078 78.2459 169.684C79.196 169.291 80.0082 168.624 80.5796 167.769C81.1509 166.914 81.4559 165.908 81.4559 164.88C81.4559 163.501 80.9081 162.178 79.9329 161.203C78.9577 160.228 77.635 159.68 76.2559 159.68Z" fill="#A2ACB5"/>
<path d="M130.944 72.696C139.228 72.696 145.944 65.9803 145.944 57.696C145.944 49.4117 139.228 42.696 130.944 42.696C122.66 42.696 115.944 49.4117 115.944 57.696C115.944 65.9803 122.66 72.696 130.944 72.696Z" fill="#EF5B5B"/>
<path d="M126.824 52.476C127.675 51.2093 129.048 50.576 130.944 50.576C132.84 50.576 134.213 51.2093 135.064 52.476C135.912 53.7453 136.337 55.4787 136.34 57.676C136.343 59.8733 135.917 61.62 135.064 62.916C134.211 64.1826 132.837 64.816 130.944 64.816C129.051 64.816 127.677 64.1826 126.824 62.916C125.976 61.6467 125.551 59.9 125.548 57.676C125.545 55.452 125.971 53.7187 126.824 52.476ZM132.692 54.692C132.408 53.996 131.828 53.648 130.944 53.648C130.06 53.648 129.48 53.996 129.196 54.692C128.875 55.6541 128.733 56.6667 128.776 57.68C128.764 58.403 128.815 59.1258 128.928 59.84C129.003 60.3492 129.219 60.8273 129.552 61.22C129.937 61.5644 130.435 61.7547 130.952 61.7547C131.468 61.7547 131.967 61.5644 132.352 61.22C132.683 60.826 132.899 60.3486 132.976 59.84C133.089 59.1258 133.14 58.403 133.128 57.68C133.166 56.6657 133.018 55.6531 132.692 54.692Z" fill="white"/>
</svg>
