<svg id="Layer_1" data-name="Layer 1" xmlns="http://www.w3.org/2000/svg" viewBox="0 0 420 320"><defs><style>.cls-1{fill:#e1e4e6;}.cls-2{fill:none;}.cls-3{fill:#a2acb5;}</style></defs><rect class="cls-1" width="420" height="320"/><rect class="cls-2" x="60" y="10" width="300" height="300"/><path class="cls-3" d="M164.53,235.47h-3.36L153.56,224v11.5H150.2V218.69h3.36l7.61,11.52V218.69h3.36Z"/><path class="cls-3" d="M170.89,234.83a6.14,6.14,0,0,1-2.41-2.41,7.27,7.27,0,0,1-.88-3.6,7.07,7.07,0,0,1,.9-3.6,6.2,6.2,0,0,1,2.46-2.41,7.47,7.47,0,0,1,7,0,6.2,6.2,0,0,1,2.46,2.41,7.07,7.07,0,0,1,.9,3.6,6.89,6.89,0,0,1-.92,3.6,6.43,6.43,0,0,1-2.5,2.41,7.21,7.21,0,0,1-3.51.85A7,7,0,0,1,170.89,234.83Zm5.17-2.52a3.25,3.25,0,0,0,1.29-1.33,4.48,4.48,0,0,0,.48-2.16,4,4,0,0,0-1-2.92,3.25,3.25,0,0,0-2.43-1,3.22,3.22,0,0,0-2.42,1,4.91,4.91,0,0,0,0,5.83,3.12,3.12,0,0,0,2.39,1A3.41,3.41,0,0,0,176.06,232.31Z"/><path class="cls-3" d="M190.9,220a1.82,1.82,0,0,1-.59-1.4,1.86,1.86,0,0,1,.59-1.41,2.06,2.06,0,0,1,1.47-.56,2.08,2.08,0,0,1,1.48.56,1.89,1.89,0,0,1,.59,1.41,1.86,1.86,0,0,1-.59,1.4,2,2,0,0,1-1.48.57A2,2,0,0,1,190.9,220Zm3.13,2.15v13.3h-3.36v-13.3Z"/><path class="cls-3" d="M218.4,223.48a5.65,5.65,0,0,1,1.5,4.19v7.8h-3.36v-7.35a3.33,3.33,0,0,0-.79-2.39,3.27,3.27,0,0,0-4.33,0,3.29,3.29,0,0,0-.81,2.39v7.35h-3.36v-7.35a3.33,3.33,0,0,0-.79-2.39,2.86,2.86,0,0,0-2.16-.82,2.93,2.93,0,0,0-2.2.82,3.33,3.33,0,0,0-.8,2.39v7.35h-3.36v-13.3h3.36v1.61a4.46,4.46,0,0,1,1.67-1.32,5.2,5.2,0,0,1,2.24-.48,5.81,5.81,0,0,1,2.79.66,4.69,4.69,0,0,1,1.89,1.88,4.81,4.81,0,0,1,1.89-1.85,5.77,5.77,0,0,1,6.62.81Z"/><path class="cls-3" d="M223.63,225.19a5.93,5.93,0,0,1,2.19-2.4,5.79,5.79,0,0,1,3.08-.84,5.4,5.4,0,0,1,2.6.6,5.25,5.25,0,0,1,1.79,1.52v-1.9h3.39v13.3h-3.39v-1.95a5,5,0,0,1-1.79,1.55,5.42,5.42,0,0,1-2.62.61,5.7,5.7,0,0,1-3.06-.86,6.11,6.11,0,0,1-2.19-2.44,7.9,7.9,0,0,1-.8-3.61A7.8,7.8,0,0,1,223.63,225.19Zm9.18,1.53a3.43,3.43,0,0,0-1.29-1.35,3.51,3.51,0,0,0-1.76-.46,3.4,3.4,0,0,0-1.72.45,3.51,3.51,0,0,0-1.29,1.33,4.18,4.18,0,0,0-.49,2.08,4.29,4.29,0,0,0,.49,2.1,3.54,3.54,0,0,0,1.3,1.38,3.28,3.28,0,0,0,1.71.48,3.52,3.52,0,0,0,1.76-.47,3.4,3.4,0,0,0,1.29-1.34,4.34,4.34,0,0,0,.48-2.1A4.29,4.29,0,0,0,232.81,226.72Z"/><path class="cls-3" d="M248.39,222.54a4.74,4.74,0,0,1,1.77,1.53v-1.9h3.39v13.39a7.1,7.1,0,0,1-.75,3.3,5.51,5.51,0,0,1-2.23,2.31,7.21,7.21,0,0,1-3.6.85,7.66,7.66,0,0,1-4.64-1.32,4.85,4.85,0,0,1-2.05-3.6h3.33a2.51,2.51,0,0,0,1.14,1.45,4,4,0,0,0,2.13.54,3.26,3.26,0,0,0,2.37-.88,3.49,3.49,0,0,0,.91-2.65V233.5a5.23,5.23,0,0,1-1.78,1.56,5.44,5.44,0,0,1-2.61.62,5.76,5.76,0,0,1-3.07-.86,6.06,6.06,0,0,1-2.2-2.44,7.9,7.9,0,0,1-.8-3.61,7.8,7.8,0,0,1,.8-3.58,5.93,5.93,0,0,1,2.19-2.4,5.79,5.79,0,0,1,3.08-.84A5.65,5.65,0,0,1,248.39,222.54Zm1.29,4.18a3.43,3.43,0,0,0-1.29-1.35,3.5,3.5,0,0,0-1.75-.46,3.43,3.43,0,0,0-1.73.45,3.51,3.51,0,0,0-1.29,1.33,4.29,4.29,0,0,0-.49,2.08,4.4,4.4,0,0,0,.49,2.1,3.54,3.54,0,0,0,1.3,1.38,3.31,3.31,0,0,0,1.72.48,3.51,3.51,0,0,0,1.75-.47,3.4,3.4,0,0,0,1.29-1.34,4.34,4.34,0,0,0,.48-2.1A4.29,4.29,0,0,0,249.68,226.72Z"/><path class="cls-3" d="M269.7,229.83H260a3.29,3.29,0,0,0,1,2.25,3.08,3.08,0,0,0,2.18.82,2.76,2.76,0,0,0,2.67-1.61h3.62a6.06,6.06,0,0,1-2.21,3.16,6.47,6.47,0,0,1-4,1.23,6.91,6.91,0,0,1-3.44-.85,6,6,0,0,1-2.38-2.41,8.15,8.15,0,0,1,0-7.23,5.91,5.91,0,0,1,2.35-2.4,7.54,7.54,0,0,1,6.88,0,5.72,5.72,0,0,1,2.33,2.32,7,7,0,0,1,.83,3.44A8.48,8.48,0,0,1,269.7,229.83Zm-3.38-2.26a2.69,2.69,0,0,0-.94-2.08,3.31,3.31,0,0,0-2.23-.78,3.08,3.08,0,0,0-2.1.76,3.31,3.31,0,0,0-1.05,2.1Z"/><path class="cls-3" d="M154,254a5.91,5.91,0,0,1,2.18-2.4,5.83,5.83,0,0,1,3.09-.84,5.4,5.4,0,0,1,2.6.6,5.25,5.25,0,0,1,1.79,1.52V251h3.38v13.3h-3.38v-1.95a5,5,0,0,1-1.79,1.55,5.43,5.43,0,0,1-2.63.61,5.7,5.7,0,0,1-3.06-.86,6.09,6.09,0,0,1-2.18-2.44,7.77,7.77,0,0,1-.8-3.61A7.67,7.67,0,0,1,154,254Zm9.18,1.53a3.38,3.38,0,0,0-1.3-1.35,3.55,3.55,0,0,0-3.48,0,3.56,3.56,0,0,0-1.28,1.33,4.18,4.18,0,0,0-.49,2.08,4.29,4.29,0,0,0,.49,2.1,3.54,3.54,0,0,0,1.3,1.38,3.25,3.25,0,0,0,1.71.48,3.45,3.45,0,0,0,1.75-.47,3.36,3.36,0,0,0,1.3-1.34,4.34,4.34,0,0,0,.48-2.1A4.29,4.29,0,0,0,163.2,255.52Z"/><path class="cls-3" d="M175.9,261.17l3.36-10.2h3.57l-4.92,13.3h-4.08L168.94,251h3.6Z"/><path class="cls-3" d="M184.67,254a5.75,5.75,0,0,1,5.27-3.24,5.31,5.31,0,0,1,4.39,2.12V251h3.38v13.3h-3.38v-1.95a5,5,0,0,1-1.79,1.55,5.46,5.46,0,0,1-2.63.61,5.7,5.7,0,0,1-3.06-.86,6,6,0,0,1-2.18-2.44,7.77,7.77,0,0,1-.81-3.61A7.68,7.68,0,0,1,184.67,254Zm9.18,1.53a3.38,3.38,0,0,0-1.3-1.35,3.42,3.42,0,0,0-4.76,1.32,4.18,4.18,0,0,0-.49,2.08,4.29,4.29,0,0,0,.49,2.1,3.59,3.59,0,0,0,1.29,1.38,3.31,3.31,0,0,0,1.72.48,3.48,3.48,0,0,0,1.75-.47,3.36,3.36,0,0,0,1.3-1.34,4.34,4.34,0,0,0,.48-2.1A4.29,4.29,0,0,0,193.85,255.52Z"/><path class="cls-3" d="M201.23,248.82a1.86,1.86,0,0,1-.59-1.4,1.89,1.89,0,0,1,.59-1.41,2.22,2.22,0,0,1,3,0,1.89,1.89,0,0,1,.59,1.41,1.86,1.86,0,0,1-.59,1.4,2.19,2.19,0,0,1-3,0Zm3.13,2.15v13.3H201V251Z"/><path class="cls-3" d="M211,246.51v17.76h-3.36V246.51Z"/><path class="cls-3" d="M214.28,254a5.93,5.93,0,0,1,2.19-2.4,5.82,5.82,0,0,1,3.08-.84,5.46,5.46,0,0,1,2.61.6,5.21,5.21,0,0,1,1.78,1.52V251h3.39v13.3h-3.39v-1.95a4.92,4.92,0,0,1-1.78,1.55,5.46,5.46,0,0,1-2.63.61,5.7,5.7,0,0,1-3.06-.86,6.11,6.11,0,0,1-2.19-2.44,7.9,7.9,0,0,1-.8-3.61A7.8,7.8,0,0,1,214.28,254Zm9.18,1.53a3.43,3.43,0,0,0-1.29-1.35,3.5,3.5,0,0,0-1.75-.46,3.43,3.43,0,0,0-1.73.45,3.51,3.51,0,0,0-1.29,1.33,4.29,4.29,0,0,0-.49,2.08,4.4,4.4,0,0,0,.49,2.1,3.54,3.54,0,0,0,1.3,1.38,3.31,3.31,0,0,0,1.72.48,3.51,3.51,0,0,0,1.75-.47,3.4,3.4,0,0,0,1.29-1.34,4.34,4.34,0,0,0,.48-2.1A4.29,4.29,0,0,0,223.46,255.52Z"/><path class="cls-3" d="M235.76,251.35a5.52,5.52,0,0,1,2.61-.6,5.82,5.82,0,0,1,3.08.84,6,6,0,0,1,2.19,2.39,7.75,7.75,0,0,1,.8,3.59,7.9,7.9,0,0,1-.8,3.61,6.11,6.11,0,0,1-2.19,2.44,5.74,5.74,0,0,1-3.08.86,5.46,5.46,0,0,1-2.61-.59,5,5,0,0,1-1.78-1.52v1.9h-3.36V246.51H234v6.4A4.76,4.76,0,0,1,235.76,251.35Zm4.76,4.14a3.46,3.46,0,0,0-1.3-1.33,3.53,3.53,0,0,0-1.74-.45,3.39,3.39,0,0,0-1.72.46,3.6,3.6,0,0,0-1.29,1.36,4.7,4.7,0,0,0,0,4.18,3.5,3.5,0,0,0,1.29,1.35,3.4,3.4,0,0,0,1.72.47,3.36,3.36,0,0,0,1.74-.48,3.58,3.58,0,0,0,1.3-1.37,4.36,4.36,0,0,0,.49-2.11A4.29,4.29,0,0,0,240.52,255.49Z"/><path class="cls-3" d="M250.25,246.51v17.76h-3.36V246.51Z"/><path class="cls-3" d="M265.82,258.63H256.1a3.29,3.29,0,0,0,1,2.25,3.09,3.09,0,0,0,2.19.82,2.75,2.75,0,0,0,2.66-1.61h3.62a6.1,6.1,0,0,1-2.2,3.16,6.49,6.49,0,0,1-4,1.23,7,7,0,0,1-3.45-.85,6,6,0,0,1-2.37-2.41,7.37,7.37,0,0,1-.85-3.6,7.54,7.54,0,0,1,.84-3.63,5.84,5.84,0,0,1,2.35-2.4,7.52,7.52,0,0,1,6.87,0,5.72,5.72,0,0,1,2.33,2.32,7,7,0,0,1,.83,3.44A7.39,7.39,0,0,1,265.82,258.63Zm-3.38-2.26a2.69,2.69,0,0,0-.94-2.08,3.3,3.3,0,0,0-2.23-.78,3.08,3.08,0,0,0-2.1.76,3.3,3.3,0,0,0-1,2.1Z"/><path class="cls-3" d="M287,198.65H133.05A11.56,11.56,0,0,1,121.5,187.1v-120a11.56,11.56,0,0,1,11.55-11.55H287A11.56,11.56,0,0,1,298.5,67.07v120A11.56,11.56,0,0,1,287,198.65ZM133.05,61.52a5.56,5.56,0,0,0-5.55,5.55v120a5.56,5.56,0,0,0,5.55,5.55H287a5.56,5.56,0,0,0,5.55-5.55v-120A5.56,5.56,0,0,0,287,61.52Z"/><circle class="cls-3" cx="247.73" cy="96.77" r="14.37"/><path class="cls-3" d="M295.5,180.22v6.88a8.55,8.55,0,0,1-8.55,8.55H133.05a8.55,8.55,0,0,1-8.55-8.55v-5.84l50.62-59.51a5.7,5.7,0,0,1,8.69,0l35.42,41.64a2.84,2.84,0,0,0,4.15.2l23.52-22.78a5.7,5.7,0,0,1,7.93,0Z"/></svg>
