<svg width="200" height="200" viewBox="0 0 200 200" fill="none" xmlns="http://www.w3.org/2000/svg">
<path d="M42.256 144.244C45.9037 149.744 50.6448 154.433 56.1841 158.02C72.6241 168.64 111.456 187.22 153.616 161.132C153.616 161.132 175.904 149.02 174.016 119.188C172.128 89.3562 153.2 100.98 142.8 74.4482C135.432 55.5882 143.144 43.9322 110.4 30.6482C77.656 17.3642 28.132 29.7042 26.076 73.9322C24.4 110.252 33.408 130.924 42.256 144.244Z" fill="#F8FBFF"/>
<path d="M129.692 73.6201H64.6401L65.0881 75.5681L72.8321 109.264L73.9721 114.22C74.2763 115.543 75.0202 116.724 76.0825 117.57C77.1447 118.416 78.4624 118.876 79.8201 118.876H122.62C123.995 118.877 125.329 118.405 126.398 117.54C127.467 116.675 128.206 115.469 128.492 114.124L135.544 80.8641C135.729 79.9915 135.717 79.0886 135.509 78.2211C135.301 77.3537 134.902 76.5435 134.342 75.8496C133.781 75.1558 133.073 74.5956 132.269 74.2099C131.464 73.8242 130.584 73.6227 129.692 73.6201ZM133.6 80.4481L126.548 113.708C126.354 114.603 125.86 115.405 125.148 115.981C124.436 116.558 123.548 116.873 122.632 116.876H79.8321C78.9267 116.877 78.048 116.57 77.3396 116.006C76.6311 115.442 76.1349 114.655 75.9321 113.772L75.0081 109.752C110.872 117.2 122.432 84.2121 124.8 75.6201H129.68C130.276 75.6191 130.865 75.7514 131.403 76.0072C131.942 76.2631 132.416 76.636 132.792 77.0988C133.168 77.5616 133.435 78.1025 133.575 78.682C133.715 79.2615 133.724 79.8649 133.6 80.4481Z" fill="#F4F6F8"/>
<path d="M135.908 74.5841C135.159 73.6569 134.212 72.9093 133.136 72.3963C132.061 71.8834 130.884 71.6181 129.692 71.6201H64.6399C64.3393 71.6203 64.0426 71.6882 63.7719 71.8189C63.5011 71.9496 63.2633 72.1396 63.0761 72.3748C62.889 72.61 62.7572 72.8844 62.6907 73.1776C62.6242 73.4708 62.6246 73.7751 62.6919 74.0681V74.1041L70.6599 108.76L72.0159 114.664C72.4147 116.432 73.4047 118.01 74.8222 119.139C76.2397 120.268 77.9999 120.879 79.8119 120.872H122.612C124.444 120.865 126.218 120.233 127.642 119.08C129.065 117.927 130.053 116.323 130.44 114.532L137.52 81.2801C137.769 80.1145 137.753 78.9079 137.474 77.7491C137.195 76.5903 136.66 75.5087 135.908 74.5841ZM122.636 116.876H79.8359C78.9305 116.876 78.0518 116.57 77.3433 116.006C76.6349 115.442 76.1387 114.655 75.9359 113.772L75.0119 109.752L67.1679 75.6201H129.692C130.287 75.6209 130.874 75.7545 131.411 76.0111C131.948 76.2677 132.421 76.6409 132.796 77.1035C133.17 77.566 133.437 78.1063 133.576 78.6849C133.715 79.2635 133.723 79.8659 133.6 80.4481L126.548 113.708C126.354 114.603 125.86 115.404 125.149 115.98C124.438 116.556 123.551 116.872 122.636 116.876Z" fill="#A2ACB5"/>
<path d="M64.64 75.6201C64.1939 75.62 63.7606 75.4707 63.4091 75.196C63.0576 74.9213 62.808 74.537 62.7 74.1041L59.208 60.1041C58.9927 59.237 58.4932 58.4669 57.7893 57.9167C57.0854 57.3664 56.2175 57.0677 55.324 57.0681H48C47.4696 57.0681 46.9609 56.8574 46.5858 56.4823C46.2107 56.1073 46 55.5985 46 55.0681C46 54.5377 46.2107 54.029 46.5858 53.6539C46.9609 53.2788 47.4696 53.0681 48 53.0681H55.312C57.0977 53.0679 58.8322 53.6652 60.2391 54.7649C61.6461 55.8645 62.6448 57.4032 63.076 59.1361L66.572 73.1561C66.6456 73.4512 66.6509 73.7592 66.5876 74.0567C66.5243 74.3541 66.3939 74.6332 66.2065 74.8727C66.019 75.1122 65.7794 75.3058 65.5059 75.4388C65.2324 75.5718 64.9321 75.6406 64.628 75.6401L64.64 75.6201Z" fill="#A2ACB5"/>
<path d="M82.7 144.952C86.5659 144.952 89.7 141.818 89.7 137.952C89.7 134.086 86.5659 130.952 82.7 130.952C78.834 130.952 75.7 134.086 75.7 137.952C75.7 141.818 78.834 144.952 82.7 144.952Z" fill="#F4F6F8"/>
<path d="M82.7 146.952C80.9199 146.952 79.1799 146.424 77.6998 145.435C76.2198 144.446 75.0662 143.041 74.385 141.396C73.7039 139.752 73.5256 137.942 73.8729 136.196C74.2202 134.451 75.0773 132.847 76.336 131.588C77.5947 130.33 79.1983 129.472 80.9441 129.125C82.69 128.778 84.4996 128.956 86.1441 129.637C87.7886 130.318 89.1943 131.472 90.1832 132.952C91.1721 134.432 91.7 136.172 91.7 137.952C91.6968 140.338 90.7476 142.625 89.0604 144.313C87.3733 146 85.0859 146.949 82.7 146.952ZM82.7 132.952C81.7111 132.952 80.7444 133.245 79.9221 133.795C79.0999 134.344 78.459 135.125 78.0806 136.039C77.7021 136.952 77.6031 137.958 77.796 138.928C77.989 139.898 78.4652 140.788 79.1644 141.488C79.8637 142.187 80.7546 142.663 81.7245 142.856C82.6944 143.049 83.6997 142.95 84.6134 142.572C85.527 142.193 86.3079 141.552 86.8573 140.73C87.4067 139.908 87.7 138.941 87.7 137.952C87.7 136.626 87.1732 135.354 86.2355 134.417C85.2978 133.479 84.026 132.952 82.7 132.952Z" fill="#A2ACB5"/>
<path d="M130.588 144.952C134.454 144.952 137.588 141.818 137.588 137.952C137.588 134.086 134.454 130.952 130.588 130.952C126.722 130.952 123.588 134.086 123.588 137.952C123.588 141.818 126.722 144.952 130.588 144.952Z" fill="#F4F6F8"/>
<path d="M130.588 146.952C128.808 146.952 127.068 146.424 125.588 145.435C124.108 144.446 122.954 143.041 122.273 141.396C121.592 139.752 121.414 137.942 121.761 136.196C122.108 134.451 122.965 132.847 124.224 131.588C125.483 130.33 127.086 129.472 128.832 129.125C130.578 128.778 132.388 128.956 134.032 129.637C135.677 130.318 137.082 131.472 138.071 132.952C139.06 134.432 139.588 136.172 139.588 137.952C139.585 140.338 138.635 142.625 136.948 144.313C135.261 146 132.974 146.949 130.588 146.952ZM130.588 132.952C129.599 132.952 128.632 133.245 127.81 133.795C126.988 134.344 126.347 135.125 125.968 136.039C125.59 136.952 125.491 137.958 125.684 138.928C125.877 139.898 126.353 140.788 127.052 141.488C127.752 142.187 128.643 142.663 129.612 142.856C130.582 143.049 131.588 142.95 132.501 142.572C133.415 142.193 134.196 141.552 134.745 140.73C135.295 139.908 135.588 138.941 135.588 137.952C135.588 136.626 135.061 135.354 134.123 134.417C133.186 133.479 131.914 132.952 130.588 132.952Z" fill="#A2ACB5"/>
<path d="M133.6 80.4481L126.548 113.708C126.354 114.603 125.86 115.405 125.148 115.981C124.436 116.558 123.548 116.873 122.632 116.876H79.8321C78.9266 116.876 78.0479 116.57 77.3395 116.006C76.631 115.442 76.1349 114.655 75.9321 113.772L75.0081 109.752C110.872 117.2 122.432 84.2121 124.8 75.6201H129.68C130.276 75.6191 130.865 75.7514 131.403 76.0072C131.942 76.2631 132.416 76.636 132.792 77.0988C133.168 77.5616 133.435 78.1025 133.575 78.682C133.715 79.2615 133.723 79.8649 133.6 80.4481Z" fill="#E1E4E6"/>
<path d="M131.4 90.6201C139.684 90.6201 146.4 83.9044 146.4 75.6201C146.4 67.3358 139.684 60.6201 131.4 60.6201C123.116 60.6201 116.4 67.3358 116.4 75.6201C116.4 83.9044 123.116 90.6201 131.4 90.6201Z" fill="#EF5B5B"/>
<path d="M127.28 70.3999C128.131 69.1332 129.504 68.4985 131.4 68.4959C133.296 68.4932 134.669 69.1279 135.52 70.3999C136.368 71.6639 136.793 73.3972 136.796 75.5999C136.799 77.8025 136.373 79.5505 135.52 80.8439C134.669 82.1105 133.296 82.7438 131.4 82.7438C129.504 82.7438 128.131 82.1105 127.28 80.8439C126.427 79.5772 126 77.8292 126 75.5999C126 73.3705 126.427 71.6372 127.28 70.3999ZM133.148 72.6159C132.864 71.9199 132.284 71.5679 131.4 71.5679C130.516 71.5679 129.936 71.9199 129.652 72.6159C129.331 73.5766 129.189 74.5879 129.232 75.5999C129.22 76.3229 129.27 77.0457 129.384 77.7599C129.461 78.2698 129.677 78.7488 130.008 79.1439C130.393 79.4882 130.891 79.6786 131.408 79.6786C131.925 79.6786 132.423 79.4882 132.808 79.1439C133.139 78.7488 133.355 78.2698 133.432 77.7599C133.546 77.0457 133.596 76.3229 133.584 75.5999C133.622 74.5869 133.474 73.5756 133.148 72.6159Z" fill="white"/>
<path d="M27.2 108.2C27.5956 108.2 27.9822 108.317 28.3111 108.537C28.64 108.757 28.8964 109.069 29.0478 109.435C29.1991 109.8 29.2387 110.202 29.1616 110.59C29.0844 110.978 28.8939 111.335 28.6142 111.614C28.3345 111.894 27.9781 112.084 27.5902 112.162C27.2022 112.239 26.8001 112.199 26.4346 112.048C26.0692 111.896 25.7568 111.64 25.5371 111.311C25.3173 110.982 25.2 110.596 25.2 110.2C25.2 109.67 25.4107 109.161 25.7858 108.786C26.1609 108.411 26.6696 108.2 27.2 108.2ZM27.2 105C26.1715 105 25.1662 105.305 24.311 105.876C23.4559 106.448 22.7894 107.26 22.3958 108.21C22.0023 109.16 21.8993 110.206 22.0999 111.214C22.3006 112.223 22.7958 113.15 23.523 113.877C24.2503 114.604 25.1768 115.099 26.1855 115.3C27.1942 115.501 28.2398 115.398 29.19 115.004C30.1401 114.611 30.9523 113.944 31.5236 113.089C32.095 112.234 32.4 111.228 32.4 110.2C32.4 108.821 31.8521 107.498 30.877 106.523C29.9018 105.548 28.5791 105 27.2 105Z" fill="#A2ACB5"/>
<path d="M88.2 46.2C88.5956 46.2 88.9822 46.3173 89.3111 46.5371C89.64 46.7568 89.8964 47.0692 90.0478 47.4346C90.1991 47.8001 90.2387 48.2022 90.1616 48.5902C90.0844 48.9781 89.8939 49.3345 89.6142 49.6142C89.3345 49.8939 88.9781 50.0844 88.5902 50.1616C88.2022 50.2387 87.8001 50.1991 87.4346 50.0478C87.0692 49.8964 86.7568 49.64 86.5371 49.3111C86.3173 48.9822 86.2 48.5956 86.2 48.2C86.2 47.6696 86.4107 47.1609 86.7858 46.7858C87.1609 46.4107 87.6696 46.2 88.2 46.2ZM88.2 43C87.1715 43 86.1662 43.305 85.311 43.8764C84.4559 44.4477 83.7894 45.2599 83.3958 46.21C83.0023 47.1602 82.8993 48.2058 83.0999 49.2145C83.3006 50.2232 83.7958 51.1497 84.523 51.877C85.2503 52.6042 86.1768 53.0994 87.1855 53.3001C88.1942 53.5007 89.2398 53.3977 90.1899 53.0042C91.1401 52.6106 91.9522 51.9441 92.5236 51.089C93.095 50.2338 93.4 49.2285 93.4 48.2C93.4 46.8209 92.8521 45.4982 91.877 44.523C90.9018 43.5479 89.5791 43 88.2 43Z" fill="#A2ACB5"/>
<path d="M46.6889 127.749C46.4789 127.75 46.271 127.708 46.0773 127.627C45.8836 127.546 45.708 127.427 45.5609 127.277L43.1609 124.877L40.7609 127.277C40.614 127.432 40.4375 127.556 40.2418 127.642C40.0462 127.728 39.8354 127.773 39.6219 127.776C39.4083 127.779 39.1964 127.739 38.9985 127.659C38.8006 127.579 38.6208 127.459 38.4696 127.309C38.3185 127.158 38.1991 126.978 38.1184 126.78C38.0378 126.583 37.9976 126.371 38.0001 126.157C38.0027 125.944 38.0479 125.733 38.1333 125.537C38.2186 125.341 38.3422 125.164 38.4969 125.017L42.0449 121.469C42.1935 121.32 42.37 121.202 42.5642 121.122C42.7585 121.041 42.9667 121 43.1769 121C43.3872 121 43.5954 121.041 43.7896 121.122C43.9839 121.202 44.1603 121.32 44.3089 121.469L47.8529 125.017C48.0769 125.241 48.2295 125.526 48.2914 125.837C48.3532 126.147 48.3215 126.469 48.2003 126.762C48.0791 127.054 47.8738 127.304 47.6105 127.48C47.3471 127.656 47.0376 127.75 46.7209 127.749H46.6889Z" fill="#A2ACB5"/>
<path d="M110.665 42.7493C110.455 42.7494 110.247 42.7082 110.052 42.6279C109.858 42.5476 109.682 42.4298 109.533 42.2813L107.133 39.8813L104.733 42.2813C104.433 42.5815 104.025 42.7501 103.601 42.7501C103.176 42.7501 102.769 42.5815 102.469 42.2813C102.169 41.981 102 41.5738 102 41.1493C102 40.7247 102.169 40.3175 102.469 40.0173L106.017 36.4693C106.165 36.3205 106.342 36.2025 106.536 36.122C106.73 36.0414 106.939 36 107.149 36C107.359 36 107.567 36.0414 107.762 36.122C107.956 36.2025 108.132 36.3205 108.281 36.4693L111.825 40.0173C112.051 40.2427 112.204 40.5305 112.265 40.8437C112.326 41.1569 112.292 41.4812 112.167 41.7749C112.042 42.0685 111.833 42.3183 111.565 42.4919C111.297 42.6655 110.984 42.7551 110.665 42.7493Z" fill="#A2ACB5"/>
<path d="M162.665 121.743C162.455 121.743 162.247 121.702 162.052 121.622C161.858 121.542 161.682 121.424 161.533 121.275L159.133 118.875L156.733 121.275C156.433 121.575 156.025 121.744 155.601 121.744C155.176 121.744 154.769 121.575 154.469 121.275C154.169 120.975 154 120.568 154 120.143C154 119.719 154.169 119.311 154.469 119.011L158.017 115.467C158.317 115.168 158.723 115 159.147 115C159.571 115 159.977 115.168 160.277 115.467L163.825 119.011C164.049 119.235 164.201 119.52 164.263 119.831C164.325 120.141 164.293 120.463 164.172 120.756C164.051 121.048 163.846 121.298 163.582 121.474C163.319 121.65 163.01 121.744 162.693 121.743H162.665Z" fill="#A2ACB5"/>
</svg>
