<svg width="22" height="20" viewBox="0 0 22 20" fill="none" xmlns="http://www.w3.org/2000/svg">
<g opacity="0.5">
<path d="M20.9256 9.77637C20.7681 9.54719 16.9831 4.17969 10.9998 4.17969C5.86562 4.17969 1.29062 9.51637 1.09812 9.74387C0.967295 9.89887 0.967295 10.1264 1.09812 10.2822C1.29062 10.5097 5.86562 15.8464 10.9998 15.8464C16.134 15.8464 20.7089 10.5097 20.9014 10.2822C21.0223 10.1389 21.0331 9.93137 20.9256 9.77637ZM10.9998 15.013C6.88397 15.013 2.97062 11.088 1.97647 10.013C2.96897 8.93723 6.87815 5.01305 10.9998 5.01305C15.8156 5.01305 19.2148 8.93223 20.0448 9.99055C19.0864 11.0314 15.1506 15.013 10.9998 15.013Z" fill="#66717C" stroke="#66717C" stroke-width="0.75"/>
<path d="M10.9996 6.67969C9.16126 6.67969 7.66626 8.17469 7.66626 10.013C7.66626 11.8513 9.16126 13.3463 10.9996 13.3463C12.8379 13.3463 14.3329 11.8513 14.3329 10.013C14.3329 8.17469 12.8379 6.67969 10.9996 6.67969ZM10.9996 12.513C9.62126 12.513 8.49958 11.3914 8.49958 10.013C8.49958 8.63473 9.62126 7.51305 10.9996 7.51305C12.3779 7.51305 13.4996 8.63473 13.4996 10.013C13.4996 11.3914 12.3779 12.513 10.9996 12.513Z" fill="#66717C" stroke="#66717C" stroke-width="0.75"/>
</g>
</svg>
