<svg width="22" height="20" viewBox="0 0 22 20" fill="none" xmlns="http://www.w3.org/2000/svg">
<g opacity="0.5">
<path d="M11.0003 4.16736C5.86618 4.16736 1.29126 9.50395 1.09876 9.73145C0.967081 9.88645 0.967081 10.1139 1.09876 10.2698C1.21376 10.4056 2.89541 12.358 5.32037 13.913L7.93201 11.3014C7.76201 10.9014 7.66701 10.4622 7.66701 10.0006C7.66701 8.1623 9.16199 6.66732 11.0003 6.66732C11.462 6.66732 11.9011 6.76232 12.3011 6.93232L14.4485 4.78485C13.4019 4.41068 12.2528 4.16736 11.0003 4.16736Z" fill="#66717C" stroke="#66717C" stroke-width="0.25"/>
<path d="M20.9261 9.76262C20.8194 9.60844 19.0503 7.11848 16.0762 5.51351L18.3787 3.21104C18.5411 3.04855 18.5411 2.78437 18.3787 2.62187C18.2162 2.45938 17.952 2.45938 17.7895 2.62187L3.62306 16.7884C3.46057 16.9509 3.46057 17.215 3.62306 17.3775C3.70388 17.4592 3.81056 17.5 3.91724 17.5C4.02392 17.5 4.13056 17.4592 4.21223 17.3784L6.82469 14.7659C8.11217 15.3942 9.53215 15.8334 11.0004 15.8334C16.1345 15.8334 20.7095 10.4968 20.902 10.2693C21.0228 10.1251 21.0336 9.91762 20.9261 9.76262ZM11.0004 13.3334C10.2313 13.3334 9.53215 13.0609 8.96716 12.6226L13.6229 7.96687C14.0612 8.53186 14.3337 9.23103 14.3337 10.0002C14.3337 11.8384 12.8387 13.3334 11.0004 13.3334Z" fill="#66717C" stroke="#66717C" stroke-width="0.25"/>
</g>
</svg>
