<svg width="33" height="23" viewBox="0 0 33 23" fill="none" xmlns="http://www.w3.org/2000/svg">
<path d="M27.2716 22.6168H3.4C2.76348 22.6168 2.15303 22.3639 1.70294 21.9139C1.25286 21.4638 1 20.8533 1 20.2168V3.4C1 2.76348 1.25286 2.15303 1.70294 1.70294C2.15303 1.25286 2.76348 1 3.4 1H27.2716C27.9081 1 28.5186 1.25286 28.9687 1.70294C29.4187 2.15303 29.6716 2.76348 29.6716 3.4V9.64H23.56C23.2417 9.64 22.9365 9.76643 22.7115 9.99147C22.4864 10.2165 22.36 10.5217 22.36 10.84V12.88C22.36 13.1983 22.4864 13.5035 22.7115 13.7285C22.9365 13.9536 23.2417 14.08 23.56 14.08H29.6716V20.2132C29.6721 20.5287 29.6103 20.8412 29.4899 21.1328C29.3695 21.4243 29.1928 21.6894 28.9699 21.9126C28.747 22.1358 28.4823 22.3129 28.1909 22.4338C27.8995 22.5546 27.5871 22.6168 27.2716 22.6168ZM3.4 2.2C3.08174 2.2 2.77652 2.32643 2.55147 2.55147C2.32643 2.77652 2.2 3.08174 2.2 3.4V20.2168C2.2 20.5351 2.32643 20.8403 2.55147 21.0653C2.77652 21.2904 3.08174 21.4168 3.4 21.4168H27.2716C27.5899 21.4168 27.8951 21.2904 28.1201 21.0653C28.3452 20.8403 28.4716 20.5351 28.4716 20.2168V15.2884H23.56C23.2448 15.2884 22.9327 15.2263 22.6416 15.1057C22.3504 14.9851 22.0858 14.8083 21.8629 14.5855C21.6401 14.3626 21.4633 14.098 21.3427 13.8068C21.2221 13.5157 21.16 13.2036 21.16 12.8884V10.8484C21.16 10.2119 21.4129 9.60143 21.8629 9.15135C22.313 8.70126 22.9235 8.4484 23.56 8.4484H28.4716V3.4084C28.4716 3.09014 28.3452 2.78492 28.1201 2.55987C27.8951 2.33483 27.5899 2.2084 27.2716 2.2084L3.4 2.2Z" fill="#04565A" stroke="#04565A" stroke-width="0.5"/>
<path d="M29.6802 15.2882H23.5602C23.245 15.2882 22.9329 15.2262 22.6417 15.1055C22.3505 14.9849 22.086 14.8082 21.8631 14.5853C21.6402 14.3624 21.4635 14.0979 21.3428 13.8067C21.2222 13.5155 21.1602 13.2034 21.1602 12.8882V10.8482C21.1602 10.2117 21.413 9.60127 21.8631 9.15118C22.3132 8.7011 22.9236 8.44824 23.5602 8.44824H29.6802C30.3167 8.44824 30.9271 8.7011 31.3772 9.15118C31.8273 9.60127 32.0802 10.2117 32.0802 10.8482V12.8882C32.0802 13.2034 32.0181 13.5155 31.8975 13.8067C31.7769 14.0979 31.6001 14.3624 31.3772 14.5853C31.1544 14.8082 30.8898 14.9849 30.5986 15.1055C30.3074 15.2262 29.9953 15.2882 29.6802 15.2882ZM23.5602 9.64824C23.2419 9.64824 22.9367 9.77467 22.7116 9.99971C22.4866 10.2248 22.3602 10.53 22.3602 10.8482V12.8882C22.3602 13.0458 22.3912 13.2019 22.4515 13.3475C22.5118 13.493 22.6002 13.6253 22.7116 13.7368C22.8231 13.8482 22.9553 13.9366 23.1009 13.9969C23.2465 14.0572 23.4026 14.0882 23.5602 14.0882H29.6802C29.8377 14.0882 29.9938 14.0572 30.1394 13.9969C30.285 13.9366 30.4173 13.8482 30.5287 13.7368C30.6401 13.6253 30.7285 13.493 30.7888 13.3475C30.8491 13.2019 30.8802 13.0458 30.8802 12.8882V10.8482C30.8802 10.53 30.7537 10.2248 30.5287 9.99971C30.3036 9.77467 29.9984 9.64824 29.6802 9.64824H23.5602Z" fill="#04565A" stroke="#04565A" stroke-width="0.5"/>
<path d="M9.52703 9.02299L9.04566 9.00859C9.02458 9.00793 9.00385 9.00311 8.98463 8.99443C8.96542 8.98575 8.9481 8.97336 8.93368 8.95798C8.91926 8.9426 8.908 8.92453 8.90057 8.9048C8.89313 8.88507 8.88966 8.86406 8.89034 8.84299V8.83373C8.95484 8.13937 9.27604 7.49404 9.79114 7.02396C10.3062 6.55388 10.9782 6.29286 11.6755 6.29196C12.3729 6.29106 13.0455 6.55034 13.5618 7.01909C14.0781 7.48784 14.401 8.13234 14.4673 8.82653C14.471 8.86907 14.4577 8.91134 14.4303 8.94411C14.4029 8.97688 14.3637 8.99747 14.3212 9.00139H14.3119L13.8316 9.01785C13.791 9.01906 13.7515 9.00473 13.7211 8.97777C13.6907 8.95082 13.6717 8.91328 13.6681 8.87282C13.6156 8.38181 13.3834 7.92755 13.0162 7.59744C12.6489 7.26734 12.1726 7.08471 11.6788 7.08471C11.185 7.08471 10.7086 7.26734 10.3414 7.59744C9.97417 7.92755 9.74199 8.38181 9.68954 8.87282C9.68741 8.91411 9.66922 8.95293 9.63886 8.98099C9.60849 9.00904 9.56836 9.02412 9.52703 9.02299Z" fill="#04565A" stroke="#04565A" stroke-width="0.5"/>
<path d="M7.43037 12.2698C7.4163 12.2629 7.40458 12.252 7.39671 12.2384C7.38883 12.2249 7.38516 12.2093 7.38614 12.1937C7.39738 11.9935 7.45855 11.7994 7.56409 11.629C7.71107 11.3947 7.94182 11.2253 8.20935 11.1551C8.47688 11.085 8.76108 11.1195 9.00409 11.2515C9.01816 11.2587 9.02984 11.2698 9.03769 11.2835C9.04555 11.2972 9.04924 11.3129 9.04832 11.3286C9.03376 11.5005 8.98774 11.6682 8.91255 11.8234C8.72843 12.1926 8.15757 12.6195 7.43037 12.2698Z" fill="#04565A"/>
<path d="M9.89421 13.3436C9.88313 13.3547 9.86907 13.3624 9.85374 13.3656C9.83841 13.3689 9.82246 13.3677 9.80781 13.3621C9.62099 13.288 9.4558 13.1681 9.32746 13.0134C9.15252 12.7994 9.06576 12.5267 9.08488 12.251C9.10399 11.9752 9.22753 11.7171 9.43032 11.5292C9.4416 11.5181 9.45589 11.5105 9.47142 11.5074C9.48696 11.5043 9.50306 11.5058 9.51775 11.5117C9.67641 11.5794 9.82087 11.6764 9.94358 11.7977C10.2336 12.0888 10.4579 12.7666 9.89421 13.3436Z" fill="#04565A"/>
<path d="M17.509 12.4332C17.4724 11.8627 17.262 11.3171 16.9063 10.8697C16.5505 10.4222 16.0663 10.0943 15.5188 9.93004C14.9712 9.76577 14.3865 9.77299 13.8432 9.95072C13.2998 10.1285 12.8239 10.4682 12.4793 10.9243L10.2164 13.829C9.96853 14.1476 9.62973 14.3835 9.24485 14.5053C8.85998 14.6272 8.44718 14.6293 8.06107 14.5114C7.67496 14.3935 7.33375 14.1612 7.08257 13.8452C6.8314 13.5291 6.68211 13.1442 6.65446 12.7415C6.62681 12.3387 6.7221 11.9371 6.92772 11.5896C7.13334 11.2422 7.43959 10.9654 7.80597 10.7959C8.17234 10.6263 8.58156 10.572 8.97948 10.6401C9.37739 10.7083 9.74525 10.8956 10.0344 11.1773C10.0638 11.2044 10.1024 11.2195 10.1424 11.2195C10.1824 11.2195 10.2209 11.2044 10.2504 11.1773L10.6104 10.8575C10.6262 10.8434 10.6392 10.8264 10.6484 10.8074C10.6577 10.7884 10.6631 10.7677 10.6644 10.7466C10.6656 10.7254 10.6627 10.7043 10.6557 10.6843C10.6487 10.6643 10.6379 10.6459 10.6237 10.6301L10.6176 10.6229C10.2108 10.2185 9.68963 9.94872 9.12456 9.85006C8.55949 9.7514 7.97775 9.82862 7.45798 10.0713C6.93822 10.314 6.5055 10.7104 6.21832 11.2069C5.93114 11.7035 5.80335 12.2762 5.85223 12.8478C5.90111 13.4193 6.12429 13.9621 6.49161 14.4026C6.85894 14.8432 7.35268 15.1604 7.9061 15.3113C8.45952 15.4622 9.04593 15.4395 9.58604 15.2463C10.1262 15.0532 10.5939 14.6988 10.9261 14.2312C10.9714 14.1674 11.0156 14.1036 11.064 14.0419L13.1005 11.4252V11.4201C13.3045 11.1462 13.5753 10.929 13.8869 10.7894C14.1986 10.6498 14.5409 10.5924 14.8811 10.6226C15.2213 10.6528 15.5481 10.7696 15.8303 10.9619C16.1125 11.1542 16.3408 11.4156 16.4933 11.7212C16.6459 12.0268 16.7176 12.3663 16.7017 12.7075C16.6858 13.0486 16.5827 13.38 16.4024 13.6701C16.2221 13.9601 15.9704 14.1991 15.6715 14.3643C15.3726 14.5295 15.0364 14.6154 14.6948 14.6138C14.1997 14.6139 13.7225 14.4282 13.3577 14.0933C13.3284 14.066 13.2898 14.0508 13.2497 14.0508C13.2096 14.0508 13.171 14.066 13.1417 14.0933L12.8033 14.4297C12.7732 14.4603 12.7563 14.5015 12.7563 14.5444C12.7563 14.5873 12.7732 14.6285 12.8033 14.6591H12.8084C13.3241 15.1445 14.0062 15.4139 14.7144 15.412C15.097 15.4116 15.4756 15.3329 15.8267 15.1807C16.1777 15.0284 16.4939 14.8059 16.7558 14.5269C17.0176 14.2478 17.2195 13.9181 17.349 13.558C17.4786 13.1979 17.533 12.8151 17.509 12.4332Z" fill="#04565A" stroke="#04565A" stroke-width="0.5"/>
<path d="M10.1694 18.4681H9.37025C9.35379 18.4683 9.33769 18.4633 9.32419 18.4539C9.31069 18.4445 9.30045 18.4311 9.29491 18.4156C9.28937 18.4001 9.28879 18.3832 9.29326 18.3674C9.29773 18.3515 9.30702 18.3375 9.31985 18.3272C10.7002 17.1515 10.8627 15.8915 10.8771 15.4616C10.8784 15.4205 10.8957 15.3815 10.9253 15.3529C10.9548 15.3243 10.9944 15.3083 11.0355 15.3083H11.5189C11.561 15.3083 11.6014 15.325 11.6313 15.3547C11.6612 15.3843 11.6781 15.4246 11.6784 15.4667C11.6784 15.4667 11.6784 15.4739 11.6784 15.478C11.5847 16.5967 11.0884 17.6434 10.2816 18.4239C10.2514 18.4527 10.2112 18.4686 10.1694 18.4681Z" fill="#04565A" stroke="#04565A" stroke-width="0.5"/>
<path d="M12.8511 18.4178C12.5992 18.0951 12.3762 17.7509 12.1846 17.3892C12.1733 17.3688 12.1666 17.3462 12.1648 17.3229C12.163 17.2997 12.1663 17.2763 12.1743 17.2545L12.4304 16.5221C12.434 16.5122 12.4395 16.503 12.4466 16.4952C12.4537 16.4874 12.4623 16.4811 12.4718 16.4766C12.4814 16.4721 12.4917 16.4695 12.5023 16.469C12.5128 16.4686 12.5234 16.4702 12.5333 16.4738C12.5511 16.48 12.5661 16.4924 12.5754 16.5087C12.9312 17.1476 13.3392 17.7558 13.7953 18.3273C13.802 18.3354 13.8069 18.3448 13.8099 18.3548C13.8128 18.3649 13.8138 18.3755 13.8126 18.3859C13.8115 18.3963 13.8083 18.4064 13.8032 18.4156C13.7981 18.4248 13.7912 18.4329 13.783 18.4394C13.7697 18.4505 13.753 18.4567 13.7357 18.4569L12.9776 18.4754C12.9536 18.4758 12.9297 18.4708 12.9078 18.4609C12.886 18.4509 12.8666 18.4362 12.8511 18.4178Z" fill="#04565A" stroke="#04565A" stroke-width="0.5"/>
</svg>
