<svg width="44" height="42" viewBox="0 0 44 42" fill="none" xmlns="http://www.w3.org/2000/svg">
<g clip-path="url(#clip0)">
<path d="M0.570994 29.2807C0.570994 28.8657 0.594274 28.4563 0.637184 28.053C1.24999 33.8041 6.11619 38.2843 12.03 38.2843C17.9438 38.2843 22.81 33.8041 23.4228 28.053C23.4659 28.4565 23.489 28.8657 23.489 29.2807C23.489 35.6094 18.3585 40.7399 12.0298 40.7399C9.64219 40.7399 7.4258 40.0091 5.59033 38.7597L5.59056 38.7602L0.816114 40.4637L4.18508 37.6298C1.96185 35.5396 0.570984 32.5735 0.570984 29.2807L0.570994 29.2807Z" fill="#EBE7F2"/>
<path d="M42.529 12.0297C42.529 11.6148 42.5057 11.2053 42.4628 10.802C41.85 16.5531 36.9838 21.0333 31.07 21.0333C25.1562 21.0333 20.29 16.5531 19.6772 10.802C19.6343 11.2055 19.611 11.6147 19.611 12.0297C19.611 18.3584 24.7415 23.4889 31.0703 23.4889C33.4578 23.4889 35.6742 22.7581 37.5097 21.5087L37.5095 21.5092L42.2839 23.2128L38.9149 20.3788C41.1382 18.2883 42.529 15.3222 42.529 12.0297V12.0297Z" fill="#EBE7F2"/>
<path fill-rule="evenodd" clip-rule="evenodd" d="M12.0298 17.251C5.39663 17.251 0 22.6476 0 29.2808C0 31.5903 0.65252 33.8227 1.89001 35.7561L0.27867 40.2719C0.20449 40.4796 0.25676 40.7113 0.41264 40.8672C0.56852 41.0231 0.79995 41.0756 1.00788 41.0012L5.51346 39.3937C7.45666 40.649 9.70317 41.3106 12.0296 41.3106C18.6628 41.3106 24.0594 35.914 24.0594 29.2808C24.0596 22.6476 18.663 17.251 12.0298 17.251L12.0298 17.251ZM12.0298 40.1695C9.83534 40.1695 7.71982 39.519 5.91198 38.2886C5.81612 38.2233 5.70383 38.1898 5.59085 38.1898C5.52626 38.1898 5.46145 38.2007 5.39914 38.2231L1.7581 39.522L3.06041 35.8723C3.12134 35.7013 3.09761 35.5116 2.99604 35.3615C1.78275 33.5625 1.1414 31.46 1.1414 29.2811C1.1414 23.2771 6.02586 18.3924 12.03 18.3924C18.0342 18.3924 22.9187 23.2771 22.9187 29.2811C22.9187 35.285 18.0338 40.1695 12.0298 40.1695H12.0298Z" fill="#04565A"/>
<path fill-rule="evenodd" clip-rule="evenodd" d="M41.2096 18.5051C42.4469 16.5719 43.0996 14.3393 43.0996 12.0298C43.0996 5.39663 37.703 0 31.0698 0C24.4366 0 19.04 5.39662 19.04 12.0298C19.04 18.663 24.4366 24.0596 31.0698 24.0596C33.396 24.0596 35.6425 23.3978 37.5859 22.1427L42.0915 23.7502C42.2994 23.8246 42.5311 23.7721 42.6867 23.6162C42.8426 23.4603 42.8949 23.2286 42.8207 23.0209L41.2096 18.5051ZM37.7005 20.9718C37.5291 20.9105 37.3385 20.9349 37.1876 21.0376C35.3796 22.2682 33.2641 22.9185 31.0698 22.9185C25.0659 22.9185 20.1812 18.034 20.1812 12.0298C20.1812 6.02564 25.0659 1.14118 31.0698 1.14118C37.0738 1.14118 41.9584 6.02588 41.9584 12.0298C41.9584 14.2086 41.3171 16.3111 40.1038 18.1102C40.0025 18.2606 39.9785 18.4503 40.0394 18.621L41.3417 22.2707L37.7005 20.9718Z" fill="#04565A"/>
<g clip-path="url(#clip1)">
<path d="M36.9858 15.2681H34.5873C34.3732 15.2681 34.1998 15.0946 34.1998 14.8806V9.86556C34.1998 9.65146 34.3732 9.478 34.5873 9.478H36.9858C37.1999 9.478 37.3734 9.65146 37.3734 9.86556V14.8806C37.3734 15.0944 37.1999 15.2681 36.9858 15.2681Z" fill="#04565A"/>
<path d="M33.003 14.6382H32.4879C32.238 14.6382 32.0218 14.7897 31.9091 15.0127C31.5473 15.7284 30.8131 16.1808 30.0097 16.1808H25.749C25.3248 16.1808 24.9808 15.8368 24.9808 15.4126C24.9808 14.9883 25.3248 14.6443 25.749 14.6443H25.2337C24.8318 14.6443 24.4657 14.3552 24.4255 13.9553C24.3794 13.4954 24.7393 13.1079 25.1896 13.1079H24.8377C24.4358 13.1079 24.0697 12.8187 24.0297 12.4188C23.9836 11.9589 24.3436 11.5714 24.7941 11.5714H25.2907C24.8528 11.5714 24.5004 11.2048 24.5236 10.7618C24.5442 10.3711 24.8995 10.0808 25.2907 10.0808H27.3003C27.6171 10.0808 27.7719 9.69436 27.543 9.47571L26.342 8.32839C25.8634 7.75185 25.8807 6.9115 26.3826 6.35506L26.4504 6.27996C26.5937 6.12111 26.8388 6.10833 26.9979 6.25189C27.904 7.36477 28.9443 8.36147 30.0948 9.21918L31.1897 10.0354H33.0028C33.223 10.0354 33.4018 10.2138 33.4018 10.4343V14.2392C33.402 14.4597 33.2233 14.6382 33.003 14.6382L33.003 14.6382Z" fill="#04565A"/>
<circle cx="5.77499" cy="29.629" r="1.725" fill="#04565A" stroke="#04565A"/>
<circle cx="12.0299" cy="29.629" r="1.725" fill="#04565A" stroke="#04565A"/>
<circle cx="18.2848" cy="29.629" r="1.725" fill="#04565A" stroke="#04565A"/>
</g>
</g>
<defs>
<clipPath id="clip0">
<rect width="43.0996" height="41.3106" fill="white"/>
</clipPath>
<clipPath id="clip1">
<rect width="33.8234" height="25.702" fill="white" transform="translate(3.54999 6.15201)"/>
</clipPath>
</defs>
</svg>
