<svg xmlns="http://www.w3.org/2000/svg" width="18" height="18" fill="none" viewBox="0 0 18 18">
    <path fill="#04565A" d="M17.983 6.051l-1.018-4.074c-.125-.501-.575-.852-1.091-.852H2.127c-.516 0-.966.351-1.092.852L.017 6.05c-.011.044-.017.09-.017.136C0 7.737 1.198 9 2.672 9c.856 0 1.62-.426 2.11-1.088C5.27 8.574 6.034 9 6.89 9 7.747 9 8.51 8.574 9 7.912 9.49 8.574 10.252 9 11.11 9c.857 0 1.62-.426 2.109-1.088.49.662 1.252 1.088 2.11 1.088C16.801 9 18 7.738 18 6.187c0-.046-.006-.092-.017-.136zM15.328 10.125c-.766 0-1.494-.234-2.11-.661-1.23.856-2.987.856-4.218 0-1.23.856-2.988.856-4.219 0-.615.427-1.343.661-2.11.661-.551 0-1.072-.129-1.546-.35v5.975c0 .621.504 1.125 1.125 1.125h4.5v-4.5h4.5v4.5h4.5c.621 0 1.125-.504 1.125-1.125V9.775c-.474.221-.995.35-1.547.35z"/>
</svg>
