<svg width="20" height="20" viewBox="0 0 20 20" fill="none" xmlns="http://www.w3.org/2000/svg">
<path d="M13.9452 7.56528C14.0326 7.48386 14.103 7.38604 14.1525 7.2774C14.2021 7.16876 14.2297 7.05142 14.2339 6.9321C14.2381 6.81278 14.2187 6.6938 14.1769 6.58196C14.1351 6.47012 14.0717 6.36761 13.9902 6.28028C13.9088 6.19295 13.811 6.12251 13.7024 6.07299C13.5937 6.02347 13.4764 5.99583 13.3571 5.99165C13.2377 5.98747 13.1188 6.00683 13.0069 6.04864C12.8951 6.09044 12.7926 6.15386 12.7052 6.23528L10.0452 8.71528L7.56524 6.05437C7.3993 5.88441 7.17343 5.78615 6.93596 5.78061C6.69849 5.77507 6.46829 5.8627 6.29461 6.02474C6.12093 6.18678 6.01756 6.41036 6.00664 6.64764C5.99571 6.88492 6.07809 7.11706 6.23615 7.29437L8.71615 9.95437L6.05524 12.4344C5.96483 12.515 5.89143 12.6128 5.83936 12.7222C5.78729 12.8315 5.7576 12.9502 5.75203 13.0712C5.74646 13.1922 5.76512 13.3131 5.80692 13.4267C5.84872 13.5404 5.91281 13.6446 5.99544 13.7332C6.07806 13.8217 6.17755 13.8929 6.28806 13.9424C6.39857 13.992 6.51787 14.019 6.63896 14.0218C6.76005 14.0247 6.88048 14.0033 6.99318 13.9589C7.10588 13.9145 7.20858 13.8481 7.29524 13.7635L9.95524 11.2844L12.4352 13.9444C12.5153 14.0365 12.6131 14.1115 12.7228 14.165C12.8325 14.2184 12.9518 14.2493 13.0737 14.2557C13.1955 14.2621 13.3174 14.2438 13.4321 14.2021C13.5468 14.1604 13.6519 14.096 13.7411 14.0128C13.8304 13.9296 13.902 13.8292 13.9517 13.7178C14.0013 13.6063 14.028 13.486 14.0302 13.3639C14.0323 13.2419 14.0099 13.1207 13.9642 13.0076C13.9186 12.8944 13.8506 12.7916 13.7643 12.7053L11.2852 10.0453L13.9452 7.56528Z" fill="#04565A"/>
<path fill-rule="evenodd" clip-rule="evenodd" d="M0 10C0 4.47727 4.47727 0 10 0C15.5227 0 20 4.47727 20 10C20 15.5227 15.5227 20 10 20C4.47727 20 0 15.5227 0 10ZM10 18.1818C8.92555 18.1818 7.86162 17.9702 6.86895 17.559C5.87629 17.1478 4.97433 16.5452 4.21458 15.7854C3.45483 15.0257 2.85216 14.1237 2.44099 13.131C2.02981 12.1384 1.81818 11.0745 1.81818 10C1.81818 8.92555 2.02981 7.86162 2.44099 6.86895C2.85216 5.87629 3.45483 4.97433 4.21458 4.21458C4.97433 3.45483 5.87629 2.85216 6.86895 2.44099C7.86162 2.02981 8.92555 1.81818 10 1.81818C12.17 1.81818 14.251 2.68019 15.7854 4.21458C17.3198 5.74897 18.1818 7.83005 18.1818 10C18.1818 12.17 17.3198 14.251 15.7854 15.7854C14.251 17.3198 12.17 18.1818 10 18.1818Z" fill="#04565A"/>
</svg>
