<svg width="16" height="16" viewBox="0 0 16 16" fill="none" xmlns="http://www.w3.org/2000/svg">
<path d="M9.77955 13.2742L8.62512 14.415V8.625C8.62512 8.27981 8.3453 8 8.00012 8C7.65493 8 7.37512 8.27981 7.37512 8.625V14.3532L6.28318 13.2742C6.03765 13.0316 5.64193 13.0339 5.39931 13.2794C5.15668 13.525 5.15906 13.9207 5.40456 14.1633L6.70421 15.4476C7.05881 15.8039 7.52996 16 8.03137 16C8.53277 16 9.00393 15.8039 9.35852 15.4476L10.6582 14.1633C10.9037 13.9207 10.9061 13.525 10.6634 13.2794C10.4208 13.0339 10.0251 13.0315 9.77955 13.2742Z" fill="#04565A"/>
<path d="M15.375 8.625C15.0298 8.625 14.75 8.90481 14.75 9.25C14.75 9.93925 14.1892 10.5 13.5 10.5H10.5C10.1548 10.5 9.875 10.7798 9.875 11.125C9.875 11.4702 10.1548 11.75 10.5 11.75H13.5C14.8785 11.75 16 10.6285 16 9.25C16 8.90481 15.7202 8.625 15.375 8.625Z" fill="#04565A"/>
<path d="M9.72412 7.93129C9.82881 7.9987 9.94603 8.03092 10.0619 8.03088C10.2673 8.03088 10.4685 7.92973 10.588 7.7442C10.9598 7.16688 11.1562 6.50823 11.1562 5.83951C11.1562 3.97854 9.74034 2.46451 8 2.46451C6.25966 2.46451 4.84375 3.97854 4.84375 5.83951C4.84375 6.55532 5.02494 7.19695 5.38228 7.74651C5.57044 8.03588 5.95759 8.11795 6.24694 7.92979C6.53631 7.74163 6.61837 7.35451 6.43022 7.06513C6.20697 6.72173 6.09375 6.30942 6.09375 5.83951C6.09375 4.66779 6.94887 3.71451 8 3.71451C9.05113 3.71451 9.90625 4.66779 9.90625 5.83951C9.90625 6.2677 9.77859 6.69232 9.53703 7.06741C9.35016 7.35767 9.43391 7.74442 9.72412 7.93129Z" fill="#04565A"/>
<path d="M12.9688 6.46875C13.3139 6.46875 13.5938 6.18893 13.5938 5.84375C13.5938 5.49857 13.3139 5.21875 12.9688 5.21875C12.6236 5.21875 12.3438 5.49857 12.3438 5.84375C12.3438 6.18893 12.6236 6.46875 12.9688 6.46875Z" fill="#04565A"/>
<path d="M3.03125 6.46875C3.37643 6.46875 3.65625 6.18893 3.65625 5.84375C3.65625 5.49857 3.37643 5.21875 3.03125 5.21875C2.68607 5.21875 2.40625 5.49857 2.40625 5.84375C2.40625 6.18893 2.68607 6.46875 3.03125 6.46875Z" fill="#04565A"/>
<path d="M13.5 0H2.5C1.1215 0 0 1.1215 0 2.5V9.25C0 10.6285 1.1215 11.75 2.5 11.75H5.5C5.84519 11.75 6.125 11.4702 6.125 11.125C6.125 10.7798 5.84519 10.5 5.5 10.5H2.5C1.81075 10.5 1.25 9.93925 1.25 9.25V2.5C1.25 1.81075 1.81075 1.25 2.5 1.25H13.5C14.1892 1.25 14.75 1.81075 14.75 2.5V6.125C14.75 6.47019 15.0298 6.75 15.375 6.75C15.7202 6.75 16 6.47019 16 6.125V2.5C16 1.1215 14.8785 0 13.5 0Z" fill="#04565A"/>
</svg>
