<svg width="22" height="22" viewBox="0 0 22 22" fill="none" xmlns="http://www.w3.org/2000/svg">
<path d="M15.34 8.322C15.4361 8.23244 15.5136 8.12484 15.568 8.00533C15.6225 7.88583 15.6529 7.75676 15.6575 7.62551C15.6621 7.49425 15.6408 7.36337 15.5948 7.24035C15.5488 7.11733 15.4791 7.00457 15.3895 6.9085C15.2999 6.81244 15.1923 6.73496 15.0728 6.68049C14.9533 6.62601 14.8243 6.5956 14.693 6.59101C14.5618 6.58641 14.4309 6.60771 14.3079 6.6537C14.1848 6.69968 14.0721 6.76944 13.976 6.859L11.05 9.587L8.32201 6.66C8.13948 6.47305 7.89102 6.36496 7.6298 6.35887C7.36859 6.35278 7.11536 6.44917 6.92431 6.62741C6.73327 6.80565 6.61957 7.05159 6.60755 7.3126C6.59553 7.57361 6.68615 7.82896 6.86001 8.024L9.58801 10.95L6.66101 13.678C6.56155 13.7667 6.48082 13.8743 6.42354 13.9946C6.36626 14.1149 6.3336 14.2454 6.32747 14.3785C6.32135 14.5116 6.34188 14.6446 6.38786 14.7696C6.43384 14.8946 6.50434 15.0092 6.59523 15.1067C6.68612 15.2041 6.79555 15.2824 6.91711 15.3369C7.03867 15.3914 7.16991 15.4211 7.3031 15.4242C7.4363 15.4273 7.56877 15.4038 7.69274 15.355C7.81671 15.3062 7.92968 15.2331 8.02501 15.14L10.951 12.413L13.679 15.339C13.7671 15.4403 13.8747 15.5228 13.9953 15.5816C14.116 15.6405 14.2472 15.6744 14.3813 15.6814C14.5153 15.6885 14.6494 15.6684 14.7756 15.6225C14.9017 15.5766 15.0173 15.5058 15.1155 15.4142C15.2137 15.3227 15.2924 15.2123 15.3471 15.0897C15.4017 14.9671 15.4311 14.8347 15.4334 14.7005C15.4358 14.5663 15.4112 14.433 15.3609 14.3085C15.3107 14.1841 15.2359 14.071 15.141 13.976L12.414 11.05L15.34 8.322Z" fill="white"/>
<path fill-rule="evenodd" clip-rule="evenodd" d="M0 11C0 4.925 4.925 0 11 0C17.075 0 22 4.925 22 11C22 17.075 17.075 22 11 22C4.925 22 0 17.075 0 11ZM11 20C9.8181 20 8.64778 19.7672 7.55585 19.3149C6.46392 18.8626 5.47177 18.1997 4.63604 17.364C3.80031 16.5282 3.13738 15.5361 2.68508 14.4442C2.23279 13.3522 2 12.1819 2 11C2 9.8181 2.23279 8.64778 2.68508 7.55585C3.13738 6.46392 3.80031 5.47177 4.63604 4.63604C5.47177 3.80031 6.46392 3.13738 7.55585 2.68508C8.64778 2.23279 9.8181 2 11 2C13.3869 2 15.6761 2.94821 17.364 4.63604C19.0518 6.32387 20 8.61305 20 11C20 13.3869 19.0518 15.6761 17.364 17.364C15.6761 19.0518 13.3869 20 11 20Z" fill="white"/>
</svg>
