<svg width="34" height="22" viewBox="0 0 34 22" fill="none" xmlns="http://www.w3.org/2000/svg">
<g clip-path="url(#clip0)">
<path d="M32.4 21.2H1.6C0.7 21.2 0 20.5 0 19.6V1.6C0 0.7 0.7 0 1.6 0H32.4C33.3 0 34 0.7 34 1.6V19.6C34 20.5 33.3 21.2 32.4 21.2Z" fill="#00B14F"/>
<path d="M11.3 10.4V10.7C11.3 12.5 12 14.1 13.2 15.3C14.4 16.5 16 17.2 17.7 17.2C19.1 17.2 20.3 16.9 21.4 16.3C22.3 15.8 22.6 15.3 22.7 15.2V9.8H17.5V10.8H21.7V14.9C21.2 15.4 20.1 16.2 17.8 16.2C16.3 16.2 15 15.6 13.9 14.6C12.9 13.6 12.3 12.2 12.3 10.7V10.4C12.3 9 12.9 7.6 14 6.6C15.1 5.5 16.6 5 18.1 5C19.5 5 20.5 5.2 21.3 5.7V4.5C20.6 4.2 19.6 4 18.2 4C14.5 4 11.3 6.9 11.3 10.4Z" fill="white"/>
<path d="M21.4 7.59995V6.39995C20.5 5.89995 19.5 5.69995 18.2 5.69995C16.9 5.69995 15.6 6.19995 14.6 7.09995C13.6 7.99995 13.1 9.19995 13.1 10.4V10.7C13.1 13.3 15.2 15.4 17.8 15.4C19.9 15.4 20.7 14.7 21 14.5V11.5H17.6V12.5H20V14C19.7 14.1 19 14.4 17.8 14.4C16.8 14.4 15.9 14 15.2 13.3C14.5 12.6 14.1 11.7 14.1 10.7V10.4C14.1 8.39995 16 6.69995 18.2 6.69995C19.7 6.69995 20.7 6.89995 21.4 7.59995Z" fill="white"/>
</g>
<defs>
<clipPath id="clip0">
<rect width="34" height="21.2" fill="white"/>
</clipPath>
</defs>
</svg>
