<svg width="150" height="150" viewBox="0 0 150 150" fill="none" xmlns="http://www.w3.org/2000/svg">
<g clip-path="url(#clip0)">
<g clip-path="url(#clip1)">
<g clip-path="url(#clip2)">
<g clip-path="url(#clip3)">
<path fill-rule="evenodd" clip-rule="evenodd" d="M115.167 31.0089C98.2749 26.6291 81.2836 19.8092 66.0303 11.2866C65.3462 10.9046 64.5124 10.9044 63.8279 11.2866C48.1359 20.0535 32.0631 26.5047 14.6911 31.0091C13.6954 31.2674 13 32.166 13 33.1947V58.1191C13 83.7527 25.4837 100.709 35.9566 110.42C47.1906 120.837 60.2186 126.598 64.9292 126.598C69.6398 126.598 82.6678 120.837 93.9018 110.42C104.374 100.709 116.858 83.7529 116.858 58.1191V33.1944C116.858 32.1658 116.163 31.2672 115.167 31.0089L115.167 31.0089ZM90.8315 107.108C84.6098 112.878 78.5637 116.52 74.5868 118.559C69.5477 121.144 66.0502 122.082 64.929 122.082C63.8078 122.082 60.3105 121.144 55.2712 118.559C51.2948 116.52 45.2485 112.878 39.0265 107.108C29.2133 98.009 17.5153 82.1233 17.5153 58.1187V34.9343C34.2147 30.4639 49.7565 24.2047 64.9292 15.8394C79.7172 23.9807 96.0474 30.5567 112.342 34.9336V58.1186H112.343C112.342 82.1233 100.645 98.0089 90.8315 107.108L90.8315 107.108Z" fill="#04565A"/>
</g>
</g>
<g clip-path="url(#clip4)">
<g clip-path="url(#clip5)">
<path fill-rule="evenodd" clip-rule="evenodd" d="M107.328 37.0469C93.0285 32.8896 79.1207 27.2427 65.9915 20.2633C65.3282 19.9104 64.5327 19.9111 63.8699 20.2646C50.7206 27.2732 36.8129 32.921 22.5325 37.0512C21.5669 37.3304 20.902 38.2146 20.902 39.22V58.118C20.902 66.9407 22.5739 75.3134 25.8709 83.0036C29.1514 90.6554 34.0442 97.6385 40.413 103.76C44.968 108.138 50.2273 111.996 55.6229 114.916C56.5897 115.44 61.562 118.078 64.519 118.624C64.6544 118.649 64.7915 118.661 64.9287 118.661C65.066 118.661 65.2031 118.649 65.3385 118.624C68.2955 118.078 73.2678 115.44 74.2346 114.916C79.6295 111.996 84.889 108.138 89.4445 103.76C95.8133 97.6389 100.706 90.6556 103.987 83.0036C107.284 75.3136 108.956 66.9409 108.956 58.118V39.215C108.956 38.211 108.292 37.3275 107.328 37.0469L107.328 37.0469ZM104.44 58.118C104.44 74.6846 98.3424 88.9451 86.3157 100.504C82.049 104.605 77.1282 108.215 72.0852 110.945C69.7897 112.188 66.691 113.636 64.9288 114.091C63.1666 113.636 60.0678 112.188 57.7725 110.945C52.7293 108.215 47.8085 104.604 43.542 100.504C31.5155 88.9454 25.4175 74.6844 25.4175 58.118V40.9104C39.0441 36.8534 52.3238 31.4433 64.9328 24.8111C77.5215 31.4153 90.7999 36.8233 104.44 40.9031V58.118H104.44Z" fill="#04565A"/>
</g>
</g>
<path d="M46.1959 91.8969L46.1508 91.8483C45.3152 90.9327 43.8959 90.8623 42.9734 91.6927C42.0466 92.5267 41.9714 93.9544 42.8054 94.8812L42.8506 94.9297C43.2956 95.4169 43.9056 95.6648 44.5184 95.6648C45.0564 95.6648 45.5965 95.4734 46.0279 95.0853C46.9548 94.2512 47.03 92.8234 46.1959 91.8969Z" fill="#04565A"/>
<path d="M58.3736 102.145C55.6539 100.428 53.0351 98.4502 50.5903 96.2646C49.6608 95.4333 48.2335 95.5135 47.4024 96.443C46.5715 97.3728 46.6515 98.7999 47.5812 99.631C50.2122 101.983 53.0326 104.114 55.9641 105.964C56.3382 106.2 56.7547 106.312 57.1668 106.312C57.9159 106.312 58.6488 105.94 59.0782 105.259C59.7438 104.205 59.4284 102.81 58.3736 102.145Z" fill="#04565A"/>
<path fill-rule="evenodd" clip-rule="evenodd" d="M76.872 58.205V50.7722C76.872 44.1867 71.5142 38.829 64.9283 38.829C58.3429 38.829 52.9852 44.1867 52.9852 50.7722V58.205C50.2989 58.3018 48.1429 60.5158 48.1429 63.2253V80.558C48.1427 83.329 50.3971 85.5832 53.1681 85.5832H76.6895C79.4605 85.5832 81.7149 83.329 81.7149 80.558V63.2253C81.7149 60.5156 79.5587 58.3014 76.872 58.205V58.205ZM57.5005 50.7722C57.5005 46.6765 60.8327 43.3445 64.9286 43.3445C69.0242 43.3445 72.3562 46.6765 72.3562 50.7722V58.2002H57.5003V50.7722H57.5005ZM77.1991 80.5583C77.1991 80.8346 76.9657 81.0678 76.6893 81.0678H53.1676C52.8913 81.0678 52.6578 80.8346 52.6578 80.5583V63.2256H52.658C52.658 62.9492 52.8915 62.716 53.1678 62.716H55.2425H74.614H76.6893C76.9657 62.716 77.1991 62.9492 77.1991 63.2256L77.1991 80.5583Z" fill="#04565A"/>
<path d="M64.9288 67.363C63.1901 67.363 61.772 68.7811 61.772 70.5199C61.772 71.3747 62.1158 72.1511 62.671 72.7203V74.93C62.671 76.1767 63.6818 77.1877 64.9288 77.1877C66.1758 77.1877 67.1866 76.1767 67.1866 74.93V72.7203C67.7418 72.1508 68.0856 71.3747 68.0856 70.5199C68.0856 68.7811 66.6675 67.363 64.9288 67.363Z" fill="#04565A"/>
</g>
<circle cx="109.333" cy="111.516" r="27.5" fill="white"/>
<g clip-path="url(#clip6)">
<g clip-path="url(#clip7)">
<path fill-rule="evenodd" clip-rule="evenodd" d="M108.833 89.016C96.7027 89.016 86.833 98.8857 86.833 111.016C86.833 123.146 96.7027 133.016 108.833 133.016C120.963 133.016 130.833 123.146 130.833 111.016C130.833 98.8857 120.963 89.016 108.833 89.016ZM121.129 105.227L107.069 119.176C106.242 120.003 104.918 120.059 104.036 119.232L96.5924 112.45C95.7102 111.623 95.6551 110.244 96.427 109.362C97.2541 108.48 98.6325 108.425 99.5147 109.252L105.414 114.655L117.986 102.084C118.868 101.201 120.247 101.201 121.129 102.084C122.011 102.966 122.011 104.344 121.129 105.227H121.129Z" fill="#04565A"/>
</g>
</g>
</g>
<defs>
<clipPath id="clip0">
<rect width="123.833" height="128.016" fill="white" transform="translate(13 11)"/>
</clipPath>
<clipPath id="clip1">
<rect width="103.858" height="115.598" fill="white" transform="translate(13 11)"/>
</clipPath>
<clipPath id="clip2">
<rect width="103.858" height="115.598" fill="white" transform="translate(13 11)"/>
</clipPath>
<clipPath id="clip3">
<rect width="103.858" height="115.598" fill="white" transform="translate(13 11)"/>
</clipPath>
<clipPath id="clip4">
<rect width="88.0535" height="98.6622" fill="white" transform="translate(20.902 19.999)"/>
</clipPath>
<clipPath id="clip5">
<rect width="88.0535" height="98.6622" fill="white" transform="translate(20.902 19.999)"/>
</clipPath>
<clipPath id="clip6">
<rect width="44" height="44" fill="white" transform="translate(86.833 89.016)"/>
</clipPath>
<clipPath id="clip7">
<rect width="44" height="44" fill="white" transform="translate(86.833 89.016)"/>
</clipPath>
</defs>
</svg>
