<svg width="16" height="16" viewBox="0 0 16 16" fill="none" xmlns="http://www.w3.org/2000/svg">
<path d="M15.375 8.625C15.0298 8.625 14.75 8.90481 14.75 9.25C14.75 9.93925 14.1892 10.5 13.5 10.5H12.4375C12.0923 10.5 11.8125 10.7798 11.8125 11.125C11.8125 11.4702 12.0923 11.75 12.4375 11.75H13.5C14.8785 11.75 16 10.6285 16 9.25C16 8.90481 15.7202 8.625 15.375 8.625Z" fill="#04565A"/>
<path d="M8 2.46426C6.25966 2.46426 4.84375 3.9783 4.84375 5.83926C4.84375 6.55511 5.02494 7.1967 5.38228 7.74626C5.57044 8.03564 5.95756 8.11767 6.24694 7.92951C6.53634 7.74136 6.61838 7.3542 6.43019 7.06483C6.20694 6.72151 6.09375 6.30917 6.09375 5.83926C6.09375 4.66755 6.94887 3.71426 8 3.71426C9.05113 3.71426 9.90625 4.66755 9.90625 5.83926C9.90625 6.26748 9.77856 6.69211 9.53703 7.06717C9.35016 7.35739 9.43391 7.74414 9.72412 7.93105C9.82881 7.99845 9.94603 8.03067 10.0619 8.03064C10.2673 8.03064 10.4685 7.92948 10.588 7.74398C10.9598 7.16667 11.1563 6.50805 11.1563 5.8393C11.1562 3.9783 9.74034 2.46426 8 2.46426Z" fill="#04565A"/>
<path d="M9.35829 9.17737C9.00369 8.82112 8.53254 8.625 8.03113 8.625C7.52973 8.625 7.05857 8.82112 6.70398 9.17737L5.40432 10.4617C5.15879 10.7043 5.15641 11.1001 5.39907 11.3456C5.64169 11.5911 6.03744 11.5935 6.28291 11.3508L7.37488 10.2717V15.375C7.37488 15.7202 7.65469 16 7.99988 16C8.34507 16 8.62488 15.7202 8.62488 15.375V10.21L9.77932 11.3508C9.9011 11.4712 10.0599 11.5312 10.2186 11.5312C10.3798 11.5312 10.5409 11.4693 10.6632 11.3456C10.9059 11.1001 10.9035 10.7043 10.6579 10.4617L9.35829 9.17737Z" fill="#04565A"/>
<path d="M12.9688 6.46875C13.3139 6.46875 13.5938 6.18893 13.5938 5.84375C13.5938 5.49857 13.3139 5.21875 12.9688 5.21875C12.6236 5.21875 12.3438 5.49857 12.3438 5.84375C12.3438 6.18893 12.6236 6.46875 12.9688 6.46875Z" fill="#04565A"/>
<path d="M3.03125 6.46875C3.37643 6.46875 3.65625 6.18893 3.65625 5.84375C3.65625 5.49857 3.37643 5.21875 3.03125 5.21875C2.68607 5.21875 2.40625 5.49857 2.40625 5.84375C2.40625 6.18893 2.68607 6.46875 3.03125 6.46875Z" fill="#04565A"/>
<path d="M13.5 0H2.5C1.1215 0 0 1.1215 0 2.5V9.25C0 10.6285 1.1215 11.75 2.5 11.75H3.625C3.97019 11.75 4.25 11.4702 4.25 11.125C4.25 10.7798 3.97019 10.5 3.625 10.5H2.5C1.81075 10.5 1.25 9.93925 1.25 9.25V2.5C1.25 1.81075 1.81075 1.25 2.5 1.25H13.5C14.1892 1.25 14.75 1.81075 14.75 2.5V6.125C14.75 6.47019 15.0298 6.75 15.375 6.75C15.7202 6.75 16 6.47019 16 6.125V2.5C16 1.1215 14.8785 0 13.5 0Z" fill="#04565A"/>
</svg>
