<svg width="32" height="24" viewBox="0 0 32 24" fill="none" xmlns="http://www.w3.org/2000/svg">
<rect width="32" height="24" rx="4" fill="#F4F6F8"/>
<path d="M23.5 13.9986C23.224 13.9986 23 13.7746 23 13.4986C23 11.5686 21.43 9.99864 19.5 9.99864H14.6667V12.1653C14.6667 12.6053 14.1373 12.828 13.8213 12.5266L10.1547 9.02664C10.056 8.93264 10 8.80197 10 8.6653C10 8.52864 10.056 8.39797 10.1547 8.30397L13.8213 4.80397C14.1387 4.5013 14.6667 4.72664 14.6667 5.1653V7.33197H18.8333C21.682 7.33197 24 9.64997 24 12.4986V13.4986C24 13.7746 23.776 13.9986 23.5 13.9986Z" fill="#04565A"/>
<path d="M17.3333 18.8314V16.6647H13.1667C10.318 16.6647 8 14.3467 8 11.498V10.498C8 10.222 8.224 9.99805 8.5 9.99805C8.776 9.99805 9 10.222 9 10.498C9 12.428 10.57 13.998 12.5 13.998H17.3333V11.8314C17.3333 11.3934 17.8607 11.166 18.1787 11.47L21.8453 14.97C21.944 15.064 22 15.1947 22 15.3314C22 15.468 21.944 15.5987 21.8453 15.6927L18.1787 19.1927C17.8607 19.4954 17.3333 19.27 17.3333 18.8314Z" fill="#04565A"/>
</svg>
