<svg width="22" height="19" viewBox="0 0 22 19" fill="none" xmlns="http://www.w3.org/2000/svg">
<path d="M11.075 5.85743L11.0732 10.1051C11.0732 10.2664 11.1372 10.4205 11.2511 10.5343L14.2898 13.5724L15.1484 12.7139L12.2875 9.85364L12.2893 5.85742L11.075 5.85743Z" fill="#04565A" stroke="#04565A" stroke-width="0.5"/>
<path d="M12.25 1.00001C7.85068 1.00001 4.20969 4.17387 3.59989 8.28573H1L4.125 11.3214L7.25 8.28572H4.86291C5.46085 4.8455 8.54099 2.2143 12.25 2.2143C16.3857 2.2143 19.75 5.48244 19.75 9.50002C19.75 13.5176 16.3858 16.7857 12.25 16.7857C9.9252 16.7857 7.76944 15.7636 6.3357 13.9812L5.3506 14.7283C7.02295 16.8071 9.5376 18 12.25 18C17.0748 18 21 14.1864 21 9.50002C21 4.81365 17.0748 1.00003 12.25 1L12.25 1.00001Z" fill="#04565A" stroke="#04565A" stroke-width="0.5"/>
</svg>
