<svg width="32" height="24" viewBox="0 0 32 24" fill="none" xmlns="http://www.w3.org/2000/svg">
<rect width="32" height="24" rx="4" fill="#F4F6F8"/>
<path d="M24 7.70616C23.9995 7.25382 23.8195 6.82017 23.4997 6.50031C23.1798 6.18046 22.7462 6.00054 22.2938 6H9.70616C9.25382 6.00054 8.82017 6.18046 8.50031 6.50031C8.18046 6.82017 8.00054 7.25382 8 7.70616V8.04739H24V7.70616Z" fill="#04565A"/>
<path d="M8 9.18481V16.1232C8.00054 16.5755 8.18046 17.0092 8.50031 17.3291C8.82017 17.6489 9.25382 17.8288 9.70616 17.8294H22.2938C22.4036 17.8296 22.5132 17.8189 22.6209 17.7975C23.009 17.7211 23.3586 17.5125 23.6101 17.2072C23.8616 16.9018 23.9994 16.5188 24 16.1232V9.18481H8ZM10.8436 12.2685H12.2652C12.416 12.2685 12.5606 12.3285 12.6673 12.4351C12.774 12.5418 12.8339 12.6864 12.8339 12.8373C12.8339 12.9881 12.774 13.1328 12.6673 13.2394C12.5606 13.3461 12.416 13.406 12.2652 13.406H10.8436C10.6928 13.406 10.5481 13.3461 10.4415 13.2394C10.3348 13.1328 10.2749 12.9881 10.2749 12.8373C10.2749 12.6864 10.3348 12.5418 10.4415 12.4351C10.5481 12.3285 10.6928 12.2685 10.8436 12.2685ZM14.0664 15.5545H10.8436C10.6928 15.5545 10.5481 15.4946 10.4415 15.3879C10.3348 15.2813 10.2749 15.1366 10.2749 14.9858C10.2749 14.8349 10.3348 14.6903 10.4415 14.5836C10.5481 14.477 10.6928 14.417 10.8436 14.417H14.0664C14.2172 14.417 14.3618 14.477 14.4685 14.5836C14.5752 14.6903 14.6351 14.8349 14.6351 14.9858C14.6351 15.1366 14.5752 15.2813 14.4685 15.3879C14.3618 15.4946 14.2172 15.5545 14.0664 15.5545Z" fill="#04565A"/>
</svg>
