<svg width="20" height="20" viewBox="0 0 20 20" fill="none" xmlns="http://www.w3.org/2000/svg">
<g clip-path="url(#clip0)">
<g clip-path="url(#clip1)">
<g clip-path="url(#clip2)">
<path fill-rule="evenodd" clip-rule="evenodd" d="M14.1574 1C14.0856 1 7.21029 1 7.21029 1C5.98528 1 4.89462 2.08037 4.89462 3.22641L4.22538 3.24144C3.00096 3.24144 2 4.30676 2 5.45281V16.5848C2 17.7309 3.09069 18.8112 4.3157 18.8112H12.9995C14.2245 18.8112 15.3152 17.7309 15.3152 16.5848H15.8941C17.1191 16.5848 18.2098 15.5045 18.2098 14.3584V5.46619L14.1574 1ZM12.9996 17.6981H4.31574C3.70787 17.6981 3.1579 17.1521 3.1579 16.5849V5.4529C3.1579 4.88574 3.65288 4.35807 4.26075 4.35807L4.89465 4.3397V14.3585C4.89465 15.5046 5.98532 16.5849 7.21032 16.5849H14.1574C14.1574 17.1521 13.6074 17.6981 12.9996 17.6981V17.6981ZM17.0519 14.3585C17.0519 14.9256 16.5019 15.4716 15.894 15.4716H7.2102C6.60234 15.4716 6.05237 14.9256 6.05237 14.3585V3.22644C6.05237 2.65927 6.60234 2.11324 7.2102 2.11324H12.9994C12.9901 3.3951 12.9994 4.35356 12.9994 4.35356C12.9994 5.51017 14.082 6.56604 15.3151 6.56604C15.3151 6.56604 15.9299 6.56604 17.0519 6.56604V14.3585ZM15.3151 5.45288C14.6986 5.45288 14.1573 4.37587 14.1573 3.79811C14.1573 3.79811 14.1573 3.21256 14.1573 2.13053V2.1294L17.0519 5.45288H15.3151ZM14.1573 8.80214H8.94706C8.6275 8.80214 8.36813 9.05093 8.36813 9.35818C8.36813 9.66542 8.6275 9.91422 8.94706 9.91422H14.1573C14.4769 9.91422 14.7363 9.6654 14.7363 9.35818C14.7363 9.05094 14.4769 8.80214 14.1573 8.80214ZM14.1573 11.5824H8.94706C8.6275 11.5824 8.36813 11.8312 8.36813 12.1385C8.36813 12.4457 8.6275 12.6945 8.94706 12.6945H14.1573C14.4769 12.6945 14.7363 12.4457 14.7363 12.1385C14.7363 11.8312 14.4769 11.5824 14.1573 11.5824Z" fill="#04565A"/>
</g>
</g>
</g>
<defs>
<clipPath id="clip0">
<rect width="16" height="18.2857" fill="white" transform="translate(2 1)"/>
</clipPath>
<clipPath id="clip1">
<rect width="16.2098" height="17.8112" fill="white" transform="translate(2 1)"/>
</clipPath>
<clipPath id="clip2">
<rect width="16.2098" height="17.8112" fill="white" transform="translate(2 1)"/>
</clipPath>
</defs>
</svg>
