<svg width="22" height="22" viewBox="0 0 22 22" fill="none" xmlns="http://www.w3.org/2000/svg">
<mask id="path-1-inside-1" fill="white">
<path fill-rule="evenodd" clip-rule="evenodd" d="M11 11C13.4862 11 15.5 8.98625 15.5 6.5C15.5 4.01375 13.4862 2 11 2C8.51375 2 6.5 4.01375 6.5 6.5C6.5 8.98625 8.51375 11 11 11ZM11 13.25C7.99625 13.25 2 14.7575 2 17.75V20H20V17.75C20 14.7575 14.0037 13.25 11 13.25Z"/>
</mask>
<path d="M2 20H0.5V21.5H2V20ZM20 20V21.5H21.5V20H20ZM11 12.5C14.3147 12.5 17 9.81468 17 6.5H14C14 8.15782 12.6578 9.5 11 9.5V12.5ZM17 6.5C17 3.18532 14.3147 0.5 11 0.5V3.5C12.6578 3.5 14 4.84218 14 6.5H17ZM11 0.5C7.68532 0.5 5 3.18532 5 6.5H8C8 4.84218 9.34218 3.5 11 3.5V0.5ZM5 6.5C5 9.81468 7.68532 12.5 11 12.5V9.5C9.34218 9.5 8 8.15782 8 6.5H5ZM11 11.75C9.31061 11.75 6.871 12.1621 4.81579 12.9854C3.78698 13.3975 2.76017 13.9496 1.96651 14.6821C1.16266 15.424 0.5 16.4509 0.5 17.75H3.5C3.5 17.5528 3.58688 17.2691 4.00119 16.8867C4.42569 16.4949 5.08568 16.109 5.9314 15.7702C7.62525 15.0917 9.68564 14.75 11 14.75V11.75ZM0.5 17.75V20H3.5V17.75H0.5ZM2 21.5H20V18.5H2V21.5ZM21.5 20V17.75H18.5V20H21.5ZM21.5 17.75C21.5 16.4509 20.8373 15.424 20.0335 14.6821C19.2398 13.9496 18.213 13.3975 17.1842 12.9854C15.129 12.1621 12.6894 11.75 11 11.75V14.75C12.3144 14.75 14.3747 15.0917 16.0686 15.7702C16.9143 16.109 17.5743 16.4949 17.9988 16.8867C18.4131 17.2691 18.5 17.5528 18.5 17.75H21.5Z" fill="#A2ACB5" mask="url(#path-1-inside-1)"/>
</svg>
