<svg width="11" height="11" viewBox="0 0 11 11" fill="none" xmlns="http://www.w3.org/2000/svg">
<path fill-rule="evenodd" clip-rule="evenodd" d="M10.5 0.75C10.5 0.551088 10.421 0.360322 10.2803 0.21967C10.1397 0.0790178 9.94891 0 9.75 0H0.749999C0.551087 0 0.360323 0.0790178 0.219671 0.21967C0.0790186 0.360322 0 0.551088 0 0.75C0 0.948912 0.0790186 1.13968 0.219671 1.28033C0.360323 1.42098 0.551087 1.5 0.749999 1.5H7.9395L0.430237 8.86827C0.360505 8.938 0.305191 9.02078 0.267452 9.11189C0.229714 9.203 0.21029 9.30065 0.21029 9.39927C0.21029 9.49788 0.229714 9.59554 0.267452 9.68664C0.305191 9.77775 0.360505 9.86054 0.430237 9.93027C0.499969 10 0.582753 10.0553 0.673862 10.0931C0.764971 10.1308 0.862621 10.1502 0.961237 10.1502C1.05985 10.1502 1.1575 10.1308 1.24861 10.0931C1.33972 10.0553 1.42251 10 1.49224 9.93027L9 2.5605V9.75C9 9.94891 9.07902 10.1397 9.21967 10.2803C9.36032 10.421 9.55109 10.5 9.75 10.5C9.94891 10.5 10.1397 10.421 10.2803 10.2803C10.421 10.1397 10.5 9.94891 10.5 9.75V0.75Z" fill="#04565A"/>
</svg>
