<svg width="25" height="26" viewBox="0 0 25 26" fill="none" xmlns="http://www.w3.org/2000/svg">
<path d="M5.5 5H23L21 16H7L5.5 5Z" fill="#04565A"/>
<path d="M0 1.0715C0 0.787323 0.11289 0.514782 0.313836 0.313836C0.514782 0.11289 0.787323 0 1.0715 0H1.8687C3.22594 0 4.04028 0.912921 4.5046 1.76155C4.81462 2.32731 5.03892 2.98307 5.21465 3.57739C5.26218 3.57364 5.30984 3.57173 5.35752 3.57168H23.213C24.3988 3.57168 25.2561 4.70604 24.9303 5.84755L22.3187 15.0039C22.0845 15.8252 21.5892 16.5478 20.9076 17.0623C20.226 17.5769 19.3953 17.8553 18.5413 17.8555H10.0436C9.18278 17.8556 8.3458 17.5729 7.66129 17.051C6.97677 16.5291 6.48259 15.7968 6.25472 14.9668L5.16893 11.0065L3.36881 4.93749L3.36738 4.92606C3.14451 4.116 2.93592 3.35738 2.62447 2.79162C2.32588 2.24159 2.08586 2.14301 1.87013 2.14301H1.0715C0.787323 2.14301 0.514782 2.03012 0.313836 1.82917C0.11289 1.62823 0 1.35568 0 1.0715ZM7.24765 10.4864L8.32058 14.3996C8.53488 15.1739 9.23922 15.7125 10.0436 15.7125H18.5413C18.9295 15.7125 19.3071 15.586 19.6169 15.3522C19.9268 15.1184 20.152 14.79 20.2586 14.4167L22.7402 5.71468H5.83612L7.22765 10.4107L7.24765 10.4864Z" fill="#04565A"/>
<path d="M12.1438 22.1448C12.1438 22.9026 11.8427 23.6293 11.3069 24.1652C10.771 24.7011 10.0442 25.0021 9.28642 25.0021C8.5286 25.0021 7.80183 24.7011 7.26597 24.1652C6.73012 23.6293 6.42908 22.9026 6.42908 22.1448C6.42908 21.3869 6.73012 20.6602 7.26597 20.1243C7.80183 19.5885 8.5286 19.2874 9.28642 19.2874C10.0442 19.2874 10.771 19.5885 11.3069 20.1243C11.8427 20.6602 12.1438 21.3869 12.1438 22.1448ZM10.0008 22.1448C10.0008 21.9553 9.9255 21.7736 9.79153 21.6396C9.65757 21.5057 9.47587 21.4304 9.28642 21.4304C9.09697 21.4304 8.91527 21.5057 8.78131 21.6396C8.64734 21.7736 8.57208 21.9553 8.57208 22.1448C8.57208 22.3342 8.64734 22.5159 8.78131 22.6499C8.91527 22.7838 9.09697 22.8591 9.28642 22.8591C9.47587 22.8591 9.65757 22.7838 9.79153 22.6499C9.9255 22.5159 10.0008 22.3342 10.0008 22.1448Z" fill="#04565A"/>
<path d="M22.1441 22.1448C22.1441 22.9026 21.8431 23.6293 21.3072 24.1652C20.7714 24.7011 20.0446 25.0021 19.2868 25.0021C18.529 25.0021 17.8022 24.7011 17.2663 24.1652C16.7305 23.6293 16.4294 22.9026 16.4294 22.1448C16.4294 21.3869 16.7305 20.6602 17.2663 20.1243C17.8022 19.5885 18.529 19.2874 19.2868 19.2874C20.0446 19.2874 20.7714 19.5885 21.3072 20.1243C21.8431 20.6602 22.1441 21.3869 22.1441 22.1448ZM20.0011 22.1448C20.0011 21.9553 19.9259 21.7736 19.7919 21.6396C19.6579 21.5057 19.4762 21.4304 19.2868 21.4304C19.0973 21.4304 18.9156 21.5057 18.7817 21.6396C18.6477 21.7736 18.5725 21.9553 18.5725 22.1448C18.5725 22.3342 18.6477 22.5159 18.7817 22.6499C18.9156 22.7838 19.0973 22.8591 19.2868 22.8591C19.4762 22.8591 19.6579 22.7838 19.7919 22.6499C19.9259 22.5159 20.0011 22.3342 20.0011 22.1448Z" fill="#04565A"/>
</svg>
