<svg width="21" height="21" viewBox="0 0 21 21" fill="none" xmlns="http://www.w3.org/2000/svg">
<path d="M0.875 2.51875C0.875 2.31486 0.955993 2.11933 1.10016 1.97516C1.24433 1.83099 1.43986 1.75 1.64375 1.75H2.2157C3.18945 1.75 3.7737 2.40497 4.10682 3.01382C4.32925 3.41972 4.49018 3.8902 4.61625 4.3166C4.65035 4.31391 4.68454 4.31254 4.71875 4.3125H17.5292C18.3799 4.3125 18.995 5.12635 18.7612 5.94532L16.8875 12.5145C16.7196 13.1038 16.3642 13.6222 15.8751 13.9914C15.3861 14.3605 14.7902 14.5603 14.1774 14.5604H8.08075C7.46318 14.5605 6.86269 14.3577 6.37159 13.9832C5.88048 13.6088 5.52594 13.0834 5.36245 12.4879L4.58345 9.6466L3.29195 5.2924L3.29092 5.2842C3.13102 4.70302 2.98137 4.15875 2.75792 3.75285C2.5437 3.35822 2.3715 3.2875 2.21672 3.2875H1.64375C1.43986 3.2875 1.24433 3.20651 1.10016 3.06234C0.955993 2.91817 0.875 2.72264 0.875 2.51875ZM6.07482 9.2735L6.8446 12.081C6.99835 12.6365 7.50367 13.023 8.08075 13.023H14.1774C14.4559 13.0229 14.7269 12.9322 14.9492 12.7644C15.1715 12.5967 15.3331 12.3611 15.4095 12.0933L17.1899 5.85H5.06212L6.06047 9.21917L6.07482 9.2735Z" fill="#A2ACB5"/>
<path d="M9.58749 17.6375C9.58749 18.1812 9.37151 18.7026 8.98706 19.087C8.60261 19.4715 8.08118 19.6875 7.53749 19.6875C6.99379 19.6875 6.47237 19.4715 6.08792 19.087C5.70347 18.7026 5.48749 18.1812 5.48749 17.6375C5.48749 17.0938 5.70347 16.5723 6.08792 16.1879C6.47237 15.8034 6.99379 15.5875 7.53749 15.5875C8.08118 15.5875 8.60261 15.8034 8.98706 16.1879C9.37151 16.5723 9.58749 17.0938 9.58749 17.6375ZM8.04999 17.6375C8.04999 17.5015 7.99599 17.3712 7.89988 17.2751C7.80377 17.179 7.67341 17.125 7.53749 17.125C7.40156 17.125 7.27121 17.179 7.1751 17.2751C7.07898 17.3712 7.02499 17.5015 7.02499 17.6375C7.02499 17.7734 7.07898 17.9037 7.1751 17.9999C7.27121 18.096 7.40156 18.15 7.53749 18.15C7.67341 18.15 7.80377 18.096 7.89988 17.9999C7.99599 17.9037 8.04999 17.7734 8.04999 17.6375Z" fill="#A2ACB5"/>
<path d="M16.7625 17.6375C16.7625 18.1812 16.5465 18.7026 16.162 19.087C15.7776 19.4715 15.2562 19.6875 14.7125 19.6875C14.1688 19.6875 13.6474 19.4715 13.2629 19.087C12.8785 18.7026 12.6625 18.1812 12.6625 17.6375C12.6625 17.0938 12.8785 16.5723 13.2629 16.1879C13.6474 15.8034 14.1688 15.5875 14.7125 15.5875C15.2562 15.5875 15.7776 15.8034 16.162 16.1879C16.5465 16.5723 16.7625 17.0938 16.7625 17.6375ZM15.225 17.6375C15.225 17.5015 15.171 17.3712 15.0749 17.2751C14.9788 17.179 14.8484 17.125 14.7125 17.125C14.5766 17.125 14.4462 17.179 14.3501 17.2751C14.254 17.3712 14.2 17.5015 14.2 17.6375C14.2 17.7734 14.254 17.9037 14.3501 17.9999C14.4462 18.096 14.5766 18.15 14.7125 18.15C14.8484 18.15 14.9788 18.096 15.0749 17.9999C15.171 17.9037 15.225 17.7734 15.225 17.6375Z" fill="#A2ACB5"/>
</svg>
