<svg width="24" height="25" viewBox="0 0 24 25" fill="none" xmlns="http://www.w3.org/2000/svg">
<path d="M0 1.02864C0 0.75583 0.108374 0.494191 0.301282 0.301282C0.494191 0.108374 0.75583 0 1.02864 0H1.79395C3.0969 0 3.87867 0.876404 4.32442 1.69109C4.62204 2.23421 4.83737 2.86374 5.00606 3.4343C5.05169 3.4307 5.09745 3.42886 5.14322 3.42881H22.2845C23.4229 3.42881 24.2458 4.5178 23.9331 5.61365L21.426 14.4037C21.2012 15.1922 20.7256 15.8859 20.0713 16.3799C19.417 16.8738 18.6195 17.1411 17.7996 17.1413H9.64182C8.81546 17.1413 8.01197 16.87 7.35483 16.369C6.6977 15.8679 6.22329 15.165 6.00453 14.3681L4.96217 10.5662L3.23405 4.73999L3.23268 4.72902C3.01872 3.95136 2.81848 3.22308 2.51949 2.67996C2.23284 2.15192 2.00243 2.05729 1.79533 2.05729H1.02864C0.75583 2.05729 0.494191 1.94891 0.301282 1.756C0.108374 1.5631 0 1.30146 0 1.02864ZM6.95774 10.067L7.98776 13.8236C8.19349 14.567 8.86965 15.084 9.64182 15.084H17.7996C18.1723 15.084 18.5348 14.9626 18.8323 14.7381C19.1297 14.5137 19.346 14.1984 19.4482 13.8401L21.8306 5.4861H5.60268L6.93854 9.9943L6.95774 10.067Z" fill="#04565A"/>
<path d="M11.658 21.2588C11.658 21.9863 11.369 22.684 10.8546 23.1984C10.3402 23.7128 9.64249 24.0018 8.91498 24.0018C8.18748 24.0018 7.48978 23.7128 6.97536 23.1984C6.46093 22.684 6.17194 21.9863 6.17194 21.2588C6.17194 20.5313 6.46093 19.8336 6.97536 19.3192C7.48978 18.8047 8.18748 18.5157 8.91498 18.5157C9.64249 18.5157 10.3402 18.8047 10.8546 19.3192C11.369 19.8336 11.658 20.5313 11.658 21.2588ZM9.60075 21.2588C9.60075 21.0769 9.5285 20.9025 9.39989 20.7739C9.27129 20.6453 9.09686 20.573 8.91498 20.573C8.73311 20.573 8.55868 20.6453 8.43008 20.7739C8.30147 20.9025 8.22922 21.0769 8.22922 21.2588C8.22922 21.4407 8.30147 21.6151 8.43008 21.7437C8.55868 21.8723 8.73311 21.9446 8.91498 21.9446C9.09686 21.9446 9.27129 21.8723 9.39989 21.7437C9.5285 21.6151 9.60075 21.4407 9.60075 21.2588Z" fill="#04565A"/>
<path d="M21.2584 21.2588C21.2584 21.9863 20.9694 22.684 20.455 23.1984C19.9405 23.7128 19.2428 24.0018 18.5153 24.0018C17.7878 24.0018 17.0901 23.7128 16.5757 23.1984C16.0613 22.684 15.7723 21.9863 15.7723 21.2588C15.7723 20.5313 16.0613 19.8336 16.5757 19.3192C17.0901 18.8047 17.7878 18.5157 18.5153 18.5157C19.2428 18.5157 19.9405 18.8047 20.455 19.3192C20.9694 19.8336 21.2584 20.5313 21.2584 21.2588ZM19.2011 21.2588C19.2011 21.0769 19.1288 20.9025 19.0002 20.7739C18.8716 20.6453 18.6972 20.573 18.5153 20.573C18.3335 20.573 18.159 20.6453 18.0304 20.7739C17.9018 20.9025 17.8296 21.0769 17.8296 21.2588C17.8296 21.4407 17.9018 21.6151 18.0304 21.7437C18.159 21.8723 18.3335 21.9446 18.5153 21.9446C18.6972 21.9446 18.8716 21.8723 19.0002 21.7437C19.1288 21.6151 19.2011 21.4407 19.2011 21.2588Z" fill="#04565A"/>
</svg>
