<svg width="56" height="56" viewBox="0 0 56 56" fill="none" xmlns="http://www.w3.org/2000/svg">
<circle cx="28" cy="28" r="27.25" fill="white" stroke="#04565A" stroke-width="1.5"/>
<rect x="16.9277" y="34.8359" width="20.8372" height="5.2093" fill="#04565A"/>
<rect x="18.2285" y="31.905" width="18.2326" height="3.90698" fill="#04565A"/>
<path d="M27.3473 26.0456C30.2243 26.0456 32.5566 23.7133 32.5566 20.8363C32.5566 17.9592 30.2243 15.627 27.3473 15.627C24.4703 15.627 22.138 17.9592 22.138 20.8363C22.138 23.7133 24.4703 26.0456 27.3473 26.0456Z" fill="#04565A"/>
<path d="M37.7659 39.0688V36.4642C37.7659 33.5871 35.4336 31.2549 32.5566 31.2549H22.138C19.261 31.2549 16.9287 33.5871 16.9287 36.4642V39.0688M32.5566 20.8363C32.5566 23.7133 30.2243 26.0456 27.3473 26.0456C24.4703 26.0456 22.138 23.7133 22.138 20.8363C22.138 17.9592 24.4703 15.627 27.3473 15.627C30.2243 15.627 32.5566 17.9592 32.5566 20.8363Z" stroke="#04565A" stroke-width="1.5" stroke-linecap="round" stroke-linejoin="round"/>
</svg>
