<svg width="18" height="18" viewBox="0 0 18 18" fill="none" xmlns="http://www.w3.org/2000/svg">
<path d="M15.375 0.749512H7.875C7.17904 0.750256 6.51179 1.02706 6.01967 1.51918C5.52755 2.0113 5.25074 2.67855 5.25 3.37451V8.24951H12.4392L9.96984 5.77967C9.83513 5.63787 9.76114 5.44906 9.76364 5.25349C9.76614 5.05792 9.84495 4.87106 9.98325 4.73276C10.1215 4.59446 10.3084 4.51566 10.504 4.51315C10.6995 4.51065 10.8884 4.58464 11.0302 4.71936L14.7802 8.46936C14.9207 8.61 14.9997 8.80069 14.9997 8.99951C14.9997 9.19834 14.9207 9.38903 14.7802 9.52967L11.0302 13.2797C10.8884 13.4144 10.6995 13.4884 10.504 13.4859C10.3084 13.4834 10.1215 13.4046 9.98325 13.2663C9.84495 13.128 9.76614 12.9411 9.76364 12.7455C9.76114 12.55 9.83513 12.3612 9.96984 12.2194L12.4392 9.74951H5.25V14.6245C5.25 16.1269 6.83391 17.2495 8.25 17.2495H15.375C16.071 17.2488 16.7382 16.972 17.2303 16.4798C17.7225 15.9877 17.9993 15.3205 18 14.6245V3.37451C17.9993 2.67855 17.7225 2.0113 17.2303 1.51918C16.7382 1.02706 16.071 0.750256 15.375 0.749512ZM0.75 8.24951C0.551088 8.24951 0.360322 8.32853 0.21967 8.46918C0.0790178 8.60984 0 8.8006 0 8.99951C0 9.19843 0.0790178 9.38919 0.21967 9.52984C0.360322 9.6705 0.551088 9.74951 0.75 9.74951H5.25V8.24951H0.75Z" fill="white"/>
</svg>
