<svg width="56" height="56" viewBox="0 0 56 56" fill="none" xmlns="http://www.w3.org/2000/svg">
<circle cx="28" cy="28" r="27.25" fill="white" stroke="#04565A" stroke-width="1.5"/>
<path d="M41.9737 23.4133L40.39 17.0747C40.1957 16.296 39.4957 15.75 38.6925 15.75H17.3093C16.506 15.75 15.806 16.296 15.61 17.0747L14.0262 23.4133C14.0088 23.4815 14 23.5532 14 23.625C14 26.0365 15.8638 28 18.1562 28C19.488 28 20.6762 27.3368 21.4375 26.3077C22.1987 27.3368 23.387 28 24.7188 28C26.0505 28 27.2388 27.3368 28 26.3077C28.7612 27.3368 29.9478 28 31.2812 28C32.6147 28 33.8013 27.3368 34.5625 26.3077C35.3237 27.3368 36.5103 28 37.8438 28C40.1362 28 42 26.0365 42 23.625C42 23.5532 41.9912 23.4815 41.9737 23.4133Z" fill="#04565A"/>
<path d="M37.8438 29.7503C36.652 29.7503 35.5198 29.3863 34.5625 28.7213C32.648 30.0531 29.9145 30.0531 28 28.7213C26.0855 30.0531 23.352 30.0531 21.4375 28.7213C20.4802 29.3863 19.348 29.7503 18.1562 29.7503C17.297 29.7503 16.4868 29.5491 15.75 29.2061V38.5003C15.75 39.4663 16.534 40.2503 17.5 40.2503H24.5V33.2503H31.5V40.2503H38.5C39.466 40.2503 40.25 39.4663 40.25 38.5003V29.2061C39.5133 29.5491 38.703 29.7503 37.8438 29.7503Z" fill="#04565A"/>
</svg>
