<svg width="24" height="24" viewBox="0 0 24 24" fill="none" xmlns="http://www.w3.org/2000/svg">
<path d="M19.6667 4.66675H7C6.73478 4.66675 6.48043 4.7721 6.29289 4.95964C6.10536 5.14718 6 5.40153 6 5.66675V21.6667C6 21.932 6.10536 22.1863 6.29289 22.3739C6.48043 22.5614 6.73478 22.6667 7 22.6667H19.6667C19.9319 22.6667 20.1862 22.5614 20.3738 22.3739C20.5613 22.1863 20.6667 21.932 20.6667 21.6667V5.66675C20.6667 5.40153 20.5613 5.14718 20.3738 4.95964C20.1862 4.7721 19.9319 4.66675 19.6667 4.66675ZM19.3333 21.3334H7.33333V6.00008H19.3333V21.3334Z" fill="black"/>
<path d="M17.3332 2.33325C17.3332 2.06804 17.2278 1.81368 17.0403 1.62615C16.8527 1.43861 16.5984 1.33325 16.3332 1.33325H3.6665C3.40129 1.33325 3.14693 1.43861 2.9594 1.62615C2.77186 1.81368 2.6665 2.06804 2.6665 2.33325V18.3333C2.6665 18.5985 2.77186 18.8528 2.9594 19.0404C3.14693 19.2279 3.40129 19.3333 3.6665 19.3333H3.99984V2.66659H17.3332V2.33325Z" fill="black"/>
</svg>
