<svg width="25" height="24" viewBox="0 0 25 24" fill="none" xmlns="http://www.w3.org/2000/svg">
<path d="M12.1368 12C11.0243 12 10.114 11.1 10.114 10C10.114 8.9 11.0243 8 12.1368 8C13.2493 8 14.1596 8.9 14.1596 10C14.1596 11.1 13.2493 12 12.1368 12ZM18.2051 10.2C18.2051 6.57 15.5249 4 12.1368 4C8.74862 4 6.06844 6.57 6.06844 10.2C6.06844 12.54 8.04065 15.64 12.1368 19.34C16.2329 15.64 18.2051 12.54 18.2051 10.2ZM12.1368 2C16.3846 2 20.2279 5.22 20.2279 10.2C20.2279 13.52 17.5275 17.45 12.1368 22C6.74607 17.45 4.04565 13.52 4.04565 10.2C4.04565 5.22 7.88894 2 12.1368 2Z" fill="#04565A"/>
<path d="M18.2051 10C18.2051 14.4183 14.9297 20 12.1368 20C9.34391 20 5.56274 14.4183 5.56274 10C5.56274 5.58172 9.34391 4 12.1368 4C14.9297 4 18.2051 5.58172 18.2051 10Z" fill="#04565A"/>
<ellipse cx="12.1368" cy="10" rx="2.02278" ry="2" fill="white"/>
</svg>
