<svg width="16" height="16" viewBox="0 0 16 16" fill="none" xmlns="http://www.w3.org/2000/svg">
<path d="M1.66008 6.24597L14.1601 1.51503C14.2052 1.49778 14.2543 1.49396 14.3015 1.50403C14.3487 1.5141 14.392 1.53762 14.4262 1.57176C14.4603 1.6059 14.4838 1.64919 14.4939 1.69641C14.504 1.74363 14.5001 1.79275 14.4829 1.83784L9.75196 14.3378C9.73314 14.3853 9.70024 14.4259 9.65768 14.4541C9.61512 14.4823 9.56494 14.4968 9.51389 14.4957C9.46284 14.4945 9.41336 14.4777 9.37212 14.4476C9.33088 14.4175 9.29986 14.3755 9.28321 14.3272L7.17696 9.13691C7.1524 9.06335 7.11108 8.99652 7.05624 8.94169C7.00141 8.88685 6.93458 8.84553 6.86102 8.82097L1.67071 6.71659C1.62181 6.70033 1.57914 6.66935 1.54853 6.62789C1.51791 6.58644 1.50086 6.53654 1.4997 6.48502C1.49853 6.43351 1.51332 6.38289 1.54203 6.34009C1.57074 6.2973 1.61197 6.26443 1.66008 6.24597Z" stroke="white" stroke-width="1.5" stroke-linecap="round" stroke-linejoin="round"/>
</svg>
