<svg width="25" height="24" viewBox="0 0 25 24" fill="none" xmlns="http://www.w3.org/2000/svg">
<path d="M12.1367 12.0001C11.0241 12.0001 10.1139 11.1001 10.1139 10.0001C10.1139 8.90006 11.0241 8.00006 12.1367 8.00006C13.2492 8.00006 14.1594 8.90006 14.1594 10.0001C14.1594 11.1001 13.2492 12.0001 12.1367 12.0001ZM18.205 10.2001C18.205 6.57006 15.5248 4.00006 12.1367 4.00006C8.7485 4.00006 6.06831 6.57006 6.06831 10.2001C6.06831 12.5401 8.04053 15.6401 12.1367 19.3401C16.2328 15.6401 18.205 12.5401 18.205 10.2001ZM12.1367 2.00006C16.3845 2.00006 20.2278 5.22006 20.2278 10.2001C20.2278 13.5201 17.5274 17.4501 12.1367 22.0001C6.74595 17.4501 4.04553 13.5201 4.04553 10.2001C4.04553 5.22006 7.88882 2.00006 12.1367 2.00006Z" fill="#04565A"/>
<ellipse cx="12.1367" cy="10" rx="2.02278" ry="2" fill="#04565A"/>
</svg>
