<svg width="14" height="13" viewBox="0 0 14 13" fill="none" xmlns="http://www.w3.org/2000/svg">
<path d="M9.00016 1.83326C9.00016 1.11392 8.15083 0.733256 7.6135 1.21059L4.61816 3.87259C4.52674 3.95404 4.40861 3.99911 4.28616 3.99926H1.8335C1.43567 3.99926 1.05414 4.15729 0.772836 4.4386C0.491531 4.7199 0.333496 5.10143 0.333496 5.49926V8.49726C0.333496 8.89508 0.491531 9.27661 0.772836 9.55792C1.05414 9.83922 1.43567 9.99726 1.8335 9.99726H4.28683C4.40927 9.9974 4.52741 10.0425 4.61883 10.1239L7.61283 12.7866C8.15016 13.2639 9.00016 12.8826 9.00016 12.1639V1.83326Z" fill="#04565A"/>
<path d="M9.81344 5.14669C9.90719 5.05305 10.0343 5.00046 10.1668 5.00046C10.2993 5.00046 10.4264 5.05305 10.5201 5.14669L11.6668 6.29335L12.8134 5.14669C12.8592 5.09756 12.9144 5.05816 12.9757 5.03083C13.0371 5.00351 13.1033 4.98881 13.1704 4.98763C13.2376 4.98644 13.3042 4.99879 13.3665 5.02394C13.4288 5.04909 13.4853 5.08652 13.5328 5.134C13.5803 5.18148 13.6177 5.23803 13.6429 5.30029C13.668 5.36255 13.6803 5.42923 13.6792 5.49637C13.678 5.5635 13.6633 5.62971 13.636 5.69105C13.6086 5.75238 13.5692 5.80758 13.5201 5.85335L12.3734 7.00002L13.5201 8.14669C13.5692 8.19246 13.6086 8.24766 13.636 8.309C13.6633 8.37033 13.678 8.43654 13.6792 8.50367C13.6803 8.57081 13.668 8.63749 13.6429 8.69975C13.6177 8.76201 13.5803 8.81857 13.5328 8.86605C13.4853 8.91353 13.4288 8.95096 13.3665 8.9761C13.3042 9.00125 13.2376 9.0136 13.1704 9.01242C13.1033 9.01123 13.0371 8.99654 12.9757 8.96921C12.9144 8.94188 12.8592 8.90248 12.8134 8.85335L11.6668 7.70669L10.5201 8.85335C10.4743 8.90248 10.4191 8.94188 10.3578 8.96921C10.2965 8.99654 10.2303 9.01123 10.1631 9.01242C10.096 9.0136 10.0293 9.00125 9.96704 8.9761C9.90478 8.95096 9.84822 8.91353 9.80074 8.86605C9.75326 8.81857 9.71583 8.76201 9.69069 8.69975C9.66554 8.63749 9.65319 8.57081 9.65437 8.50367C9.65556 8.43654 9.67025 8.37033 9.69758 8.309C9.72491 8.24766 9.76431 8.19246 9.81344 8.14669L10.9601 7.00002L9.81344 5.85335C9.7198 5.7596 9.66721 5.63252 9.66721 5.50002C9.66721 5.36752 9.7198 5.24044 9.81344 5.14669Z" fill="#04565A"/>
</svg>
