<svg width="18" height="17" viewBox="0 0 18 17" fill="none" xmlns="http://www.w3.org/2000/svg">
<path d="M11.5556 2.11077C11.5556 1.15165 10.4231 0.644096 9.70668 1.28054L5.7129 4.82988C5.591 4.93848 5.43349 4.99858 5.27023 4.99877H2C1.46957 4.99877 0.960861 5.20948 0.585787 5.58456C0.210714 5.95963 0 6.46834 0 6.99877V10.9961C0 11.5265 0.210714 12.0353 0.585787 12.4103C0.960861 12.7854 1.46957 12.9961 2 12.9961H5.27112C5.43438 12.9963 5.59189 13.0564 5.71379 13.165L9.70579 16.7152C10.4222 17.3517 11.5556 16.8432 11.5556 15.885V2.11077Z" fill="white"/>
<path d="M12.6565 6.52859C12.7815 6.40375 12.951 6.33362 13.1276 6.33362C13.3043 6.33362 13.4737 6.40375 13.5987 6.52859L15.1276 8.05748L16.6565 6.52859C16.7176 6.46309 16.7912 6.41056 16.8729 6.37412C16.9547 6.33768 17.043 6.31809 17.1325 6.31651C17.222 6.31493 17.3109 6.3314 17.3939 6.36493C17.477 6.39846 17.5524 6.44836 17.6157 6.51167C17.679 6.57498 17.7289 6.65038 17.7624 6.73339C17.7959 6.81641 17.8124 6.90532 17.8108 6.99483C17.8093 7.08435 17.7897 7.17263 17.7532 7.2544C17.7168 7.33618 17.6643 7.40978 17.5988 7.47082L16.0699 8.99971L17.5988 10.5286C17.6643 10.5896 17.7168 10.6632 17.7532 10.745C17.7897 10.8268 17.8093 10.9151 17.8108 11.0046C17.8124 11.0941 17.7959 11.183 17.7624 11.266C17.7289 11.349 17.679 11.4244 17.6157 11.4877C17.5524 11.5511 17.477 11.601 17.3939 11.6345C17.3109 11.668 17.222 11.6845 17.1325 11.6829C17.043 11.6813 16.9547 11.6617 16.8729 11.6253C16.7912 11.5889 16.7176 11.5363 16.6565 11.4708L15.1276 9.94193L13.5987 11.4708C13.5377 11.5363 13.4641 11.5889 13.3823 11.6253C13.3006 11.6617 13.2123 11.6813 13.1228 11.6829C13.0333 11.6845 12.9443 11.668 12.8613 11.6345C12.7783 11.601 12.7029 11.5511 12.6396 11.4877C12.5763 11.4244 12.5264 11.349 12.4929 11.266C12.4593 11.183 12.4429 11.0941 12.4444 11.0046C12.446 10.9151 12.4656 10.8268 12.502 10.745C12.5385 10.6632 12.591 10.5896 12.6565 10.5286L14.1854 8.99971L12.6565 7.47082C12.5317 7.34581 12.4616 7.17637 12.4616 6.9997C12.4616 6.82304 12.5317 6.65359 12.6565 6.52859Z" fill="white"/>
</svg>
