<svg width="20" height="20" viewBox="0 0 20 20" fill="none" xmlns="http://www.w3.org/2000/svg">
<path d="M18.061 15.4611C17.5253 14.9835 17.0563 14.436 16.6666 13.8334C16.2411 13.0014 15.9861 12.0929 15.9166 11.1611V8.41669C15.9202 6.95314 15.3893 5.53862 14.4236 4.43889C13.4579 3.33917 12.1239 2.62994 10.6721 2.44446V1.7278C10.6721 1.53109 10.594 1.34245 10.4549 1.20336C10.3158 1.06427 10.1271 0.98613 9.93045 0.98613C9.73374 0.98613 9.5451 1.06427 9.40601 1.20336C9.26692 1.34245 9.18878 1.53109 9.18878 1.7278V2.45557C7.75003 2.65442 6.4321 3.36794 5.47907 4.46397C4.52605 5.55999 4.00252 6.96426 4.00545 8.41669V11.1611C3.93587 12.0929 3.68088 13.0014 3.25545 13.8334C2.8726 14.4347 2.41111 14.9821 1.88322 15.4611C1.82396 15.5132 1.77647 15.5773 1.7439 15.6491C1.71133 15.721 1.69444 15.7989 1.69434 15.8778V16.6334C1.69434 16.7807 1.75287 16.922 1.85705 17.0262C1.96124 17.1304 2.10255 17.1889 2.24989 17.1889H17.6943C17.8417 17.1889 17.983 17.1304 18.0872 17.0262C18.1914 16.922 18.2499 16.7807 18.2499 16.6334V15.8778C18.2498 15.7989 18.2329 15.721 18.2003 15.6491C18.1678 15.5773 18.1203 15.5132 18.061 15.4611ZM2.84989 16.0778C3.36679 15.5785 3.82189 15.0189 4.20545 14.4111C4.74134 13.4064 5.05402 12.2978 5.12211 11.1611V8.41669C5.10008 7.76559 5.20929 7.11673 5.44325 6.50872C5.67721 5.90072 6.03112 5.34601 6.48392 4.87763C6.93672 4.40925 7.47914 4.03678 8.07888 3.78239C8.67863 3.52801 9.32343 3.39691 9.97489 3.39691C10.6264 3.39691 11.2712 3.52801 11.8709 3.78239C12.4706 4.03678 13.0131 4.40925 13.4659 4.87763C13.9187 5.34601 14.2726 5.90072 14.5065 6.50872C14.7405 7.11673 14.8497 7.76559 14.8277 8.41669V11.1611C14.8958 12.2978 15.2084 13.4064 15.7443 14.4111C16.1279 15.0189 16.583 15.5785 17.0999 16.0778H2.84989Z" fill="#A2ACB5" stroke="#A2ACB5" stroke-width="0.2"/>
<path d="M9.99963 19.0444C10.3496 19.0364 10.6854 18.9048 10.9477 18.673C11.2101 18.4412 11.3819 18.1241 11.433 17.7778H8.51074C8.56323 18.1335 8.74314 18.4581 9.01702 18.6911C9.2909 18.9241 9.64009 19.0496 9.99963 19.0444Z" fill="#A2ACB5" stroke="#A2ACB5" stroke-width="0.2"/>
</svg>
