<svg width="20" height="20" viewBox="0 0 20 20" fill="none" xmlns="http://www.w3.org/2000/svg">
<path d="M18.25 15.6278L18.0611 15.4611C17.5252 14.9837 17.0562 14.4362 16.6667 13.8334C16.2412 13.0014 15.9862 12.0929 15.9167 11.1611V8.41669C15.9203 6.95314 15.3894 5.53862 14.4237 4.43889C13.458 3.33917 12.124 2.62994 10.6722 2.44446V1.7278C10.6722 1.53109 10.5941 1.34245 10.455 1.20336C10.3159 1.06427 10.1272 0.98613 9.93055 0.98613C9.73384 0.98613 9.5452 1.06427 9.40611 1.20336C9.26702 1.34245 9.18888 1.53109 9.18888 1.7278V2.45557C7.75013 2.65442 6.4322 3.36794 5.47917 4.46397C4.52615 5.56 4.00262 6.96427 4.00555 8.41669V11.1611C3.93597 12.0929 3.68098 13.0014 3.25555 13.8334C2.8727 14.4347 2.41121 14.9821 1.88332 15.4611L1.69444 15.6278V17.1945H18.25V15.6278Z" fill="#04565A"/>
<path d="M8.51113 17.7778C8.55985 18.1299 8.73435 18.4526 9.0024 18.6861C9.27046 18.9196 9.61396 19.0482 9.96946 19.0482C10.325 19.0482 10.6685 18.9196 10.9365 18.6861C11.2046 18.4526 11.3791 18.1299 11.4278 17.7778H8.51113Z" fill="#04565A"/>
</svg>
