<svg width="14" height="11" viewBox="0 0 14 11" fill="none" xmlns="http://www.w3.org/2000/svg">
<path d="M7.91218 1.97557C8.5082 2.34532 8.92614 2.97102 9.00223 3.69731C9.24531 3.80969 9.51509 3.87431 9.80111 3.87431C10.8453 3.87431 11.6917 3.03692 11.6917 2.0039C11.6917 0.970727 10.8453 0.133331 9.80111 0.133331C8.76688 0.13365 7.92794 0.956083 7.91218 1.97557ZM6.67364 5.80553C7.71784 5.80553 8.56418 4.96797 8.56418 3.93496C8.56418 2.90194 7.71768 2.06455 6.67364 2.06455C5.62959 2.06455 4.78277 2.9021 4.78277 3.93512C4.78277 4.96813 5.62959 5.80553 6.67364 5.80553ZM7.47557 5.93302H5.87138C4.53664 5.93302 3.45076 7.00758 3.45076 8.32822V10.2693L3.45575 10.2997L3.59088 10.3416C4.86465 10.7353 5.97128 10.8667 6.88212 10.8667C8.66119 10.8667 9.69237 10.3648 9.75591 10.3328L9.88219 10.2696H9.89571V8.32822C9.89619 7.00758 8.81031 5.93302 7.47557 5.93302ZM10.6034 4.00197H9.01156C8.99435 4.63212 8.72248 5.19956 8.29247 5.60768C9.47889 5.95674 10.3469 7.0453 10.3469 8.33108V8.92924C11.9186 8.87226 12.8243 8.43152 12.884 8.40191L13.0103 8.33856H13.0238V6.39684C13.0238 5.07637 11.938 4.00197 10.6034 4.00197ZM3.35633 3.87463C3.72617 3.87463 4.07028 3.76783 4.36177 3.5859C4.45443 2.98789 4.77843 2.46534 5.24125 2.10943C5.24318 2.07441 5.24656 2.03971 5.24656 2.00438C5.24656 0.971204 4.40006 0.133809 3.35633 0.133809C2.31196 0.133809 1.46579 0.971204 1.46579 2.00438C1.46579 3.03708 2.31196 3.87463 3.35633 3.87463ZM5.05416 5.60768C4.62624 5.20163 4.35534 4.63722 4.33555 4.01088C4.27651 4.00658 4.21812 4.00197 4.15795 4.00197H2.55391C1.21917 4.00197 0.133301 5.07637 0.133301 6.39684V8.33824L0.138288 8.36817L0.273419 8.41035C1.29527 8.72598 2.20724 8.87146 2.99936 8.91731V8.33108C2.99968 7.0453 3.86742 5.95706 5.05416 5.60768Z" fill="white"/>
</svg>
