<svg width="23" height="25" viewBox="0 0 23 25" fill="none" xmlns="http://www.w3.org/2000/svg">
<path d="M1.21166 12.8544L11.056 2.88794C12.262 1.66698 13.8977 0.981051 15.6033 0.981051C17.3088 0.981051 18.9445 1.66698 20.1505 2.88794C21.3565 4.1089 22.0341 5.76488 22.0341 7.49158C22.0341 9.21828 21.3565 10.8743 20.1505 12.0952L10.3062 22.0616C9.50217 22.8756 8.4117 23.3329 7.27467 23.3329C6.13763 23.3329 5.04717 22.8756 4.24316 22.0616C3.43916 21.2477 2.98747 20.1437 2.98747 18.9925C2.98747 17.8414 3.43916 16.7374 4.24316 15.9235L14.0982 5.95703C14.5002 5.55005 15.0455 5.3214 15.614 5.3214C16.1825 5.3214 16.7277 5.55005 17.1297 5.95703C17.5317 6.36402 17.7576 6.91601 17.7576 7.49158C17.7576 8.06715 17.5317 8.61914 17.1297 9.02613L8.03522 18.2226" stroke="#04565A" stroke-width="1.5" stroke-linecap="round" stroke-linejoin="round"/>
</svg>
