<svg width="16" height="20" viewBox="0 0 16 20" fill="none" xmlns="http://www.w3.org/2000/svg">
<path d="M1.56949 0.529053H10.951L15.9236 5.80932V18.1848C15.9236 18.8351 15.429 19.3619 14.8195 19.3619H1.56949C0.959972 19.3619 0.465332 18.8351 0.465332 18.1848V1.70609C0.465332 1.05579 0.960029 0.529053 1.56949 0.529053Z" fill="#E03030"/>
<path d="M15.9078 5.82514H12.0592C11.4497 5.82514 10.9551 5.29785 10.9551 4.64811V0.540192L15.9078 5.82514Z" fill="#CB3C3C"/>
<path d="M11.7819 9.45236C11.9669 9.45236 12.0575 9.28051 12.0575 9.11397C12.0575 8.94151 11.963 8.77496 11.7819 8.77496H10.7286C10.5226 8.77496 10.4078 8.9568 10.4078 9.15751V11.9171C10.4078 12.1631 10.5392 12.2996 10.717 12.2996C10.8937 12.2996 11.0256 12.1631 11.0256 11.9171V11.1597H11.6627C11.8604 11.1597 11.9592 10.9872 11.9592 10.816C11.9592 10.6483 11.8604 10.4817 11.6627 10.4817H11.0256V9.45236H11.7819ZM8.22156 8.77496H7.45084C7.24159 8.77496 7.09307 8.92799 7.09307 9.15513V11.9195C7.09307 12.2013 7.30671 12.2896 7.45963 12.2896H8.26846C9.22574 12.2896 9.85788 11.6182 9.85788 10.5817C9.85737 9.48591 9.26225 8.77496 8.22156 8.77496ZM8.25857 11.6082H7.78873V9.4565H8.21219C8.85318 9.4565 9.13195 9.91498 9.13195 10.5476C9.13195 11.1397 8.85809 11.6082 8.25857 11.6082ZM5.43521 8.77496H4.67168C4.45581 8.77496 4.33545 8.92677 4.33545 9.15751V11.9171C4.33545 12.1631 4.47346 12.2996 4.65894 12.2996C4.84443 12.2996 4.98244 12.1631 4.98244 11.9171V11.1114H5.46108C6.05181 11.1114 6.5393 10.6653 6.5393 9.94786C6.53936 9.2458 6.069 8.77496 5.43521 8.77496ZM5.42252 10.4641H4.9825V9.42295H5.42252C5.69415 9.42295 5.86695 9.64893 5.86695 9.94378C5.86638 10.2381 5.69415 10.4641 5.42252 10.4641Z" fill="white"/>
</svg>
