<svg width="24" height="25" viewBox="0 0 24 25" fill="none" xmlns="http://www.w3.org/2000/svg">
<path d="M12 12.404C10.9 12.404 10 11.5141 10 10.4265C10 9.33889 10.9 8.44903 12 8.44903C13.1 8.44903 14 9.33889 14 10.4265C14 11.5141 13.1 12.404 12 12.404ZM18 10.6242C18 7.03513 15.35 4.49408 12 4.49408C8.65 4.49408 6 7.03513 6 10.6242C6 12.9379 7.95 16.003 12 19.6613C16.05 16.003 18 12.9379 18 10.6242ZM12 2.5166C16.2 2.5166 20 5.70034 20 10.6242C20 13.9069 17.33 17.7926 12 22.2914C6.67 17.7926 4 13.9069 4 10.6242C4 5.70034 7.8 2.5166 12 2.5166Z" fill="white"/>
<path d="M18 10.4263C18 14.7948 14.7614 20.3137 12 20.3137C9.23858 20.3137 5.5 14.7948 5.5 10.4263C5.5 6.0578 9.23858 4.4939 12 4.4939C14.7614 4.4939 18 6.0578 18 10.4263Z" fill="white"/>
<ellipse cx="12" cy="10.4264" rx="2" ry="1.97747" fill="#04565A"/>
</svg>
