<svg width="17" height="14" viewBox="0 0 17 14" fill="none" xmlns="http://www.w3.org/2000/svg">
<path d="M10.1464 2.40292C10.9238 2.8852 11.4689 3.70133 11.5682 4.64867C11.8852 4.79525 12.2371 4.87954 12.6102 4.87954C13.9722 4.87954 15.0761 3.78729 15.0761 2.43987C15.0761 1.09225 13.9722 0 12.6102 0C11.2612 0.000415227 10.1669 1.07315 10.1464 2.40292ZM8.53087 7.39851C9.89288 7.39851 10.9968 6.30605 10.9968 4.95864C10.9968 3.61123 9.89267 2.51897 8.53087 2.51897C7.16907 2.51897 6.06452 3.61144 6.06452 4.95885C6.06452 6.30626 7.16907 7.39851 8.53087 7.39851ZM9.57688 7.56481H7.48445C5.74348 7.56481 4.32713 8.96641 4.32713 10.689V13.2208L4.33363 13.2605L4.50989 13.3151C6.17133 13.8287 7.61475 14 8.80281 14C11.1233 14 12.4683 13.3454 12.5512 13.3037L12.7159 13.2212H12.7336V10.689C12.7342 8.96641 11.3178 7.56481 9.57688 7.56481ZM13.6566 5.04605H11.5803C11.5579 5.86799 11.2033 6.60813 10.6424 7.14045C12.1899 7.59575 13.3221 9.01562 13.3221 10.6927V11.4729C15.3722 11.3986 16.5535 10.8237 16.6314 10.7851L16.7961 10.7025H16.8137V8.1698C16.8137 6.44744 15.3974 5.04605 13.6566 5.04605ZM4.20396 4.87996C4.68636 4.87996 5.13518 4.74065 5.5154 4.50334C5.63626 3.72334 6.05886 3.04175 6.66254 2.57752C6.66506 2.53185 6.66947 2.48659 6.66947 2.4405C6.66947 1.09288 5.56534 0.000622795 4.20396 0.000622795C2.84174 0.000622795 1.73803 1.09288 1.73803 2.4405C1.73803 3.78749 2.84174 4.87996 4.20396 4.87996ZM6.41851 7.14045C5.86036 6.61083 5.507 5.87463 5.48119 5.05767C5.40419 5.05207 5.32802 5.04605 5.24954 5.04605H3.15732C1.41636 5.04605 0 6.44744 0 8.1698V10.7021L0.00650475 10.7411L0.182762 10.7961C1.51561 11.2078 2.70514 11.3976 3.73834 11.4574V10.6927C3.73876 9.01562 4.87059 7.59616 6.41851 7.14045Z" fill="white"/>
</svg>
