<svg width="23" height="24" viewBox="0 0 23 24" fill="none" xmlns="http://www.w3.org/2000/svg">
<path d="M18.5812 15.4382C17.9197 15.4414 17.2673 15.5885 16.6723 15.8686C16.0773 16.1486 15.5548 16.5545 15.1433 17.0564L8.68304 13.1436C8.91849 12.4074 8.91849 11.6195 8.68304 10.8833L15.1433 6.97056C15.7991 7.75715 16.721 8.29351 17.7458 8.48464C18.7706 8.67576 19.8322 8.50931 20.7424 8.01478C21.6527 7.52024 22.3529 6.72954 22.7191 5.78273C23.0852 4.83593 23.0936 3.79414 22.7428 2.84191C22.392 1.88968 21.7046 1.08847 20.8024 0.58022C19.9002 0.0719664 18.8415 -0.110529 17.8137 0.0650614C16.7859 0.240652 15.8555 0.762996 15.1871 1.53956C14.5188 2.31613 14.1558 3.29679 14.1624 4.30784C14.1665 4.6907 14.226 5.07112 14.3391 5.43799L7.87882 9.35074C7.30848 8.65516 6.52891 8.14871 5.64816 7.90157C4.76741 7.65443 3.82912 7.67885 2.96334 7.97145C2.09756 8.26404 1.34719 8.81032 0.81622 9.53457C0.285253 10.2588 0 11.1251 0 12.0135C0 12.9018 0.285253 13.7681 0.81622 14.4924C1.34719 15.2166 2.09756 15.7629 2.96334 16.0555C3.82912 16.3481 4.76741 16.3725 5.64816 16.1254C6.52891 15.8782 7.30848 15.3718 7.87882 14.6762L14.3391 18.5889C14.226 18.9558 14.1665 19.3362 14.1624 19.7191C14.1624 20.5658 14.4215 21.3934 14.9071 22.0974C15.3926 22.8014 16.0827 23.3501 16.8902 23.6741C17.6976 23.9981 18.5861 24.0829 19.4433 23.9177C20.3004 23.7526 21.0878 23.3448 21.7058 22.7462C22.3237 22.1475 22.7446 21.3847 22.9151 20.5543C23.0856 19.7238 22.9981 18.8631 22.6636 18.0809C22.3292 17.2986 21.7628 16.63 21.0361 16.1597C20.3095 15.6893 19.4551 15.4382 18.5812 15.4382ZM18.5812 1.73929C19.1056 1.73929 19.6182 1.88994 20.0542 2.17217C20.4902 2.45441 20.83 2.85556 21.0307 3.3249C21.2313 3.79424 21.2838 4.31068 21.1815 4.80893C21.0792 5.30718 20.8267 5.76485 20.4559 6.12407C20.0851 6.48329 19.6127 6.72792 19.0984 6.82702C18.5841 6.92613 18.051 6.87527 17.5666 6.68086C17.0821 6.48645 16.668 6.15724 16.3767 5.73484C16.0854 5.31245 15.9299 4.81585 15.9299 4.30784C15.9299 3.62662 16.2092 2.9733 16.7064 2.4916C17.2037 2.00991 17.878 1.73929 18.5812 1.73929ZM4.44098 14.582C3.91661 14.582 3.40401 14.4314 2.96801 14.1491C2.532 13.8669 2.19218 13.4657 1.99151 12.9964C1.79084 12.5271 1.73834 12.0106 1.84064 11.5124C1.94294 11.0141 2.19545 10.5564 2.56624 10.1972C2.93703 9.83801 3.40944 9.59338 3.92374 9.49428C4.43804 9.39517 4.97113 9.44603 5.45559 9.64044C5.94005 9.83485 6.35412 10.1641 6.64545 10.5865C6.93678 11.0089 7.09227 11.5055 7.09227 12.0135C7.09227 12.6947 6.81294 13.348 6.31573 13.8297C5.81851 14.3114 5.14415 14.582 4.44098 14.582ZM18.5812 22.2876C18.0568 22.2876 17.5442 22.137 17.1082 21.8548C16.6722 21.5725 16.3324 21.1714 16.1317 20.702C15.931 20.2327 15.8785 19.7162 15.9808 19.218C16.0831 18.7197 16.3357 18.2621 16.7064 17.9029C17.0772 17.5436 17.5496 17.299 18.0639 17.1999C18.5782 17.1008 19.1113 17.1517 19.5958 17.3461C20.0802 17.5405 20.4943 17.8697 20.7857 18.2921C21.077 18.7145 21.2325 19.2111 21.2325 19.7191C21.2325 20.4003 20.9531 21.0536 20.4559 21.5353C19.9587 22.017 19.2843 22.2876 18.5812 22.2876Z" fill="#04565A"/>
</svg>
