<svg width="30" height="29" viewBox="0 0 30 29" fill="none" xmlns="http://www.w3.org/2000/svg">
<path d="M14.3217 1.47962C14.4667 1.18593 14.7658 1 15.0933 1C15.4209 0.999943 15.72 1.18587 15.865 1.47958L19.2214 8.27928C19.537 8.91865 20.147 9.36192 20.8526 9.4644L28.3569 10.5553C28.6811 10.6024 28.9504 10.8294 29.0516 11.141C29.1528 11.4524 29.0685 11.7944 28.8339 12.0231L23.4042 17.3164C22.8936 17.8143 22.6606 18.5313 22.781 19.234L24.0622 26.7069C24.1176 27.0298 23.9849 27.356 23.7198 27.5484C23.4549 27.741 23.1036 27.7663 22.8137 27.6139L16.1015 24.0858C15.4704 23.754 14.7164 23.754 14.0852 24.0859L7.37361 27.6138C7.08367 27.7662 6.73236 27.7407 6.46741 27.5482C6.2024 27.3557 6.06976 27.0294 6.12509 26.7067L7.40684 19.2344C7.52744 18.5314 7.29442 17.8143 6.78371 17.3163L1.35363 12.0231C1.11914 11.7945 1.03466 11.4525 1.13588 11.141C1.23712 10.8295 1.50638 10.6025 1.83053 10.5553L9.3346 9.46451C10.0403 9.36192 10.6503 8.91871 10.9659 8.27922L14.3217 1.47962Z" fill="#04565A" stroke="#04565A"/>
</svg>
