<svg width="31" height="29" viewBox="0 0 31 29" fill="none" xmlns="http://www.w3.org/2000/svg">
<path d="M14.435 1.47962C14.5799 1.18593 14.879 1 15.2066 1C15.5342 0.999943 15.8333 1.18587 15.9783 1.47958L19.3346 8.27928C19.6503 8.91865 20.2603 9.36192 20.9659 9.4644L28.4702 10.5553C28.7944 10.6024 29.0636 10.8294 29.1649 11.141C29.2661 11.4524 29.1817 11.7944 28.9472 12.0231L23.5174 17.3164C23.0068 17.8143 22.7739 18.5313 22.8943 19.234L24.1755 26.7069C24.2308 27.0298 24.0981 27.356 23.8331 27.5484C23.5682 27.741 23.2169 27.7663 22.927 27.6139L16.2148 24.0858C15.5837 23.754 14.8297 23.754 14.1984 24.0859L7.48689 27.6138C7.19695 27.7662 6.84564 27.7407 6.58069 27.5482C6.31568 27.3557 6.18304 27.0294 6.23837 26.7067L7.52012 19.2344C7.64073 18.5314 7.4077 17.8143 6.89699 17.3163L1.46692 12.0231C1.23242 11.7945 1.14794 11.4525 1.24917 11.141C1.3504 10.8295 1.61967 10.6025 1.94382 10.5553L9.44788 9.46451C10.1535 9.36192 10.7636 8.91871 11.0792 8.27922L14.435 1.47962Z" stroke="#04565A" stroke-width="2"/>
</svg>
