<svg width="18" height="18" viewBox="0 0 18 18" fill="none" xmlns="http://www.w3.org/2000/svg">
<g clip-path="url(#clip0)">
<path d="M16.3125 15.75H1.68751C0.756973 15.75 0 14.9931 0 14.0625V11.25C0 10.9391 0.25158 10.6875 0.562504 10.6875C1.49304 10.6875 2.25001 9.93054 2.25001 9C2.25001 8.06947 1.49304 7.31249 0.562504 7.31249C0.25158 7.31253 0 7.06095 0 6.75003V3.93751C0 3.00697 0.756973 2.25 1.68751 2.25H16.3125C17.2431 2.25 18 3.00697 18 3.93751V6.75003C18 7.06095 17.7485 7.31253 17.4375 7.31253C16.507 7.31253 15.75 8.06951 15.75 9.00004C15.75 9.93058 16.507 10.6876 17.4375 10.6876C17.7485 10.6876 18 10.9391 18 11.2501V14.0626C18 14.9931 17.2431 15.75 16.3125 15.75ZM1.12501 11.7559V14.0625C1.12501 14.3729 1.37715 14.625 1.68751 14.625H16.3125C16.6229 14.625 16.875 14.3729 16.875 14.0625V11.7559C15.5929 11.4945 14.625 10.3585 14.625 9C14.625 7.64152 15.5929 6.50557 16.875 6.24407V3.93751C16.875 3.62715 16.6229 3.37501 16.3125 3.37501H1.68751C1.37715 3.37501 1.12501 3.62715 1.12501 3.93751V6.24411C2.4071 6.50557 3.37502 7.64156 3.37502 9.00004C3.37502 10.3585 2.4071 11.4945 1.12501 11.7559Z" fill="#04565A"/>
<rect x="0.899994" y="2.70001" width="16.2" height="4.5" fill="#04565A"/>
<rect x="0.899994" y="10.8" width="16.2" height="4.5" fill="#04565A"/>
<rect x="2.70001" y="6.29999" width="12.6" height="4.5" fill="#04565A"/>
<path d="M6.78604 13.2948L10.1598 4.29796L11.2132 4.69297L7.8394 13.6898L6.78604 13.2948Z" fill="white"/>
<path d="M6.33897 9.18941C5.40843 9.18941 4.65146 8.43244 4.65146 7.5019C4.65146 6.57136 5.40843 5.81439 6.33897 5.81439C7.26951 5.81439 8.02648 6.57136 8.02648 7.5019C8.02648 8.43244 7.26951 9.18941 6.33897 9.18941ZM6.33897 6.9394C6.02861 6.9394 5.77647 7.19155 5.77647 7.5019C5.77647 7.81226 6.02861 8.06441 6.33897 8.06441C6.64933 8.06441 6.90147 7.81226 6.90147 7.5019C6.90147 7.19155 6.64933 6.9394 6.33897 6.9394Z" fill="white"/>
<path d="M12.1533 12.678C11.2228 12.678 10.4658 11.9211 10.4658 10.9905C10.4658 10.06 11.2228 9.30301 12.1533 9.30301C13.0838 9.30301 13.8408 10.06 13.8408 10.9905C13.8408 11.9211 13.0838 12.678 12.1533 12.678ZM12.1533 10.428C11.8429 10.428 11.5908 10.6802 11.5908 10.9905C11.5908 11.3009 11.8429 11.553 12.1533 11.553C12.4637 11.553 12.7158 11.3009 12.7158 10.9905C12.7158 10.6802 12.4637 10.428 12.1533 10.428Z" fill="white"/>
</g>
<defs>
<clipPath id="clip0">
<rect width="18" height="18" fill="white"/>
</clipPath>
</defs>
</svg>
