<svg width="24" height="24" viewBox="0 0 24 24" fill="none" xmlns="http://www.w3.org/2000/svg">
<path d="M12.375 19.5056C12.1352 19.5054 11.9017 19.4283 11.7089 19.2857L11.678 19.2618L7.39078 15.7462H4.125C3.82663 15.7462 3.54048 15.6277 3.3295 15.4167C3.11853 15.2057 3 14.9195 3 14.6212V9.37165C3 9.07328 3.11853 8.78713 3.3295 8.57615C3.54048 8.36517 3.82663 8.24665 4.125 8.24665H7.38984L11.677 4.73102L11.708 4.70712C11.8756 4.58371 12.0741 4.50922 12.2815 4.49193C12.489 4.47464 12.6971 4.51523 12.8828 4.60918C13.0686 4.70314 13.2246 4.84677 13.3335 5.02411C13.4425 5.20145 13.5001 5.40554 13.5 5.61368V18.3796C13.5 18.678 13.3815 18.9641 13.1705 19.1751C12.9595 19.3861 12.6734 19.5046 12.375 19.5046V19.5056ZM16.5 15.7466C16.3721 15.7466 16.2463 15.7138 16.1346 15.6514C16.023 15.589 15.9291 15.4991 15.862 15.3902C15.7948 15.2813 15.7567 15.1571 15.7511 15.0293C15.7455 14.9015 15.7728 14.7744 15.8302 14.6601C16.275 13.7741 16.5005 12.8788 16.5005 11.9966C16.5005 11.0891 16.282 10.2191 15.8325 9.33743C15.7464 9.16075 15.7331 8.95733 15.7954 8.77092C15.8577 8.58452 15.9907 8.43004 16.1658 8.34071C16.3409 8.25139 16.5441 8.23437 16.7316 8.29331C16.9191 8.35225 17.076 8.48244 17.1684 8.65587C17.7281 9.75415 18 10.8468 18 11.9966C18 13.1137 17.7188 14.2363 17.1703 15.3332C17.1079 15.4575 17.0122 15.562 16.8938 15.635C16.7754 15.708 16.6391 15.7467 16.5 15.7466Z" fill="white"/>
<path d="M18.7501 17.996C18.6184 17.9961 18.489 17.9616 18.3749 17.8958C18.2608 17.83 18.1661 17.7353 18.1002 17.6213C18.0343 17.5073 17.9995 17.3779 17.9995 17.2462C17.9995 17.1145 18.0341 16.9851 18.1 16.871C18.9845 15.3265 19.5001 14.0328 19.5001 11.996C19.5001 9.92791 18.9873 8.64353 18.1019 7.12337C18.0105 6.95197 17.9892 6.75179 18.0424 6.56498C18.0956 6.37817 18.2192 6.2193 18.3873 6.12181C18.5553 6.02432 18.7546 5.99582 18.9432 6.0423C19.1318 6.08879 19.295 6.20663 19.3984 6.37103C20.387 8.06603 21.0002 9.59978 21.0002 11.996C21.0002 14.3567 20.388 15.8979 19.4008 17.621C19.3349 17.7352 19.24 17.83 19.1258 17.8958C19.0116 17.9617 18.882 17.9962 18.7501 17.996Z" fill="white"/>
</svg>
